<svg xmlns="http://www.w3.org/2000/svg" xmlns:xlink="http://www.w3.org/1999/xlink" width="700" zoomAndPan="magnify" viewBox="0 0 525 525.000007" height="700" preserveAspectRatio="xMidYMid meet" version="1.0"><defs><g/><clipPath id="219d2e3512"><path d="M 52.898438 98.191406 L 472.664062 98.191406 L 472.664062 425.8125 L 52.898438 425.8125 Z M 52.898438 98.191406 " clip-rule="nonzero"/></clipPath><clipPath id="9aa329ed74"><path d="M 88.082031 98.191406 L 436.917969 98.191406 C 446.25 98.191406 455.199219 101.898438 461.796875 108.496094 C 468.394531 115.09375 472.101562 124.042969 472.101562 133.375 L 472.101562 390.628906 C 472.101562 399.960938 468.394531 408.910156 461.796875 415.507812 C 455.199219 422.105469 446.25 425.8125 436.917969 425.8125 L 88.082031 425.8125 C 78.75 425.8125 69.800781 422.105469 63.203125 415.507812 C 56.605469 408.910156 52.898438 399.960938 52.898438 390.628906 L 52.898438 133.375 C 52.898438 124.042969 56.605469 115.09375 63.203125 108.496094 C 69.800781 101.898438 78.75 98.191406 88.082031 98.191406 Z M 88.082031 98.191406 " clip-rule="nonzero"/></clipPath></defs><g clip-path="url(#219d2e3512)"><g clip-path="url(#9aa329ed74)"><path fill="#0b3e27" d="M 52.898438 98.191406 L 472.664062 98.191406 L 472.664062 425.8125 L 52.898438 425.8125 Z M 52.898438 98.191406 " fill-opacity="1" fill-rule="nonzero"/></g></g><g fill="#ffffff" fill-opacity="1"><g transform="translate(139.772608, 333.297961)"><g><path d="M 112.6875 -62.875 C 112.6875 -41.84375 108.332031 -25.753906 99.625 -14.609375 C 90.925781 -3.472656 78.1875 2.09375 61.40625 2.09375 C 44.832031 2.09375 32.160156 -3.367188 23.390625 -14.296875 C 14.617188 -25.234375 10.128906 -40.90625 9.921875 -61.3125 L 9.921875 -89.296875 C 9.921875 -110.535156 14.320312 -126.65625 23.125 -137.65625 C 31.9375 -148.65625 44.628906 -154.15625 61.203125 -154.15625 C 77.773438 -154.15625 90.445312 -148.707031 99.21875 -137.8125 C 107.988281 -126.914062 112.476562 -111.265625 112.6875 -90.859375 Z M 82.5 -93.578125 C 82.5 -106.179688 80.773438 -115.351562 77.328125 -121.09375 C 73.890625 -126.84375 68.515625 -129.71875 61.203125 -129.71875 C 54.097656 -129.71875 48.859375 -126.984375 45.484375 -121.515625 C 42.109375 -116.046875 40.316406 -107.5 40.109375 -95.875 L 40.109375 -58.90625 C 40.109375 -46.507812 41.796875 -37.300781 45.171875 -31.28125 C 48.546875 -25.257812 53.957031 -22.25 61.40625 -22.25 C 68.789062 -22.25 74.117188 -25.132812 77.390625 -30.90625 C 80.660156 -36.6875 82.363281 -45.53125 82.5 -57.4375 Z M 82.5 -93.578125 "/></g></g><g transform="translate(262.488388, 333.297961)"><g><path d="M 114.5625 0 L 10.34375 0 L 10.34375 -20.671875 L 59.53125 -73.109375 C 66.28125 -80.484375 71.273438 -86.921875 74.515625 -92.421875 C 77.753906 -97.921875 79.375 -103.144531 79.375 -108.09375 C 79.375 -114.84375 77.664062 -120.148438 74.25 -124.015625 C 70.84375 -127.878906 65.972656 -129.8125 59.640625 -129.8125 C 52.816406 -129.8125 47.4375 -127.460938 43.5 -122.765625 C 39.5625 -118.066406 37.59375 -111.890625 37.59375 -104.234375 L 7.3125 -104.234375 C 7.3125 -113.492188 9.519531 -121.953125 13.9375 -129.609375 C 18.363281 -137.265625 24.613281 -143.269531 32.6875 -147.625 C 40.757812 -151.976562 49.914062 -154.15625 60.15625 -154.15625 C 75.820312 -154.15625 87.988281 -150.394531 96.65625 -142.875 C 105.320312 -135.351562 109.65625 -124.734375 109.65625 -111.015625 C 109.65625 -103.492188 107.707031 -95.832031 103.8125 -88.03125 C 99.914062 -80.238281 93.234375 -71.15625 83.765625 -60.78125 L 49.1875 -24.328125 L 114.5625 -24.328125 Z M 114.5625 0 "/></g></g></g></svg>