<svg xmlns="http://www.w3.org/2000/svg" xmlns:xlink="http://www.w3.org/1999/xlink" width="700" zoomAndPan="magnify" viewBox="0 0 525 525.000007" height="700" preserveAspectRatio="xMidYMid meet" version="1.0"><defs><g/><clipPath id="d36e4402b5"><path d="M 52.898438 98.191406 L 472.664062 98.191406 L 472.664062 425.8125 L 52.898438 425.8125 Z M 52.898438 98.191406 " clip-rule="nonzero"/></clipPath><clipPath id="15a52e08a1"><path d="M 88.082031 98.191406 L 436.917969 98.191406 C 446.25 98.191406 455.199219 101.898438 461.796875 108.496094 C 468.394531 115.09375 472.101562 124.042969 472.101562 133.375 L 472.101562 390.628906 C 472.101562 399.960938 468.394531 408.910156 461.796875 415.507812 C 455.199219 422.105469 446.25 425.8125 436.917969 425.8125 L 88.082031 425.8125 C 78.75 425.8125 69.800781 422.105469 63.203125 415.507812 C 56.605469 408.910156 52.898438 399.960938 52.898438 390.628906 L 52.898438 133.375 C 52.898438 124.042969 56.605469 115.09375 63.203125 108.496094 C 69.800781 101.898438 78.75 98.191406 88.082031 98.191406 Z M 88.082031 98.191406 " clip-rule="nonzero"/></clipPath></defs><g clip-path="url(#d36e4402b5)"><g clip-path="url(#15a52e08a1)"><path fill="#0b3e27" d="M 52.898438 98.191406 L 472.664062 98.191406 L 472.664062 425.8125 L 52.898438 425.8125 Z M 52.898438 98.191406 " fill-opacity="1" fill-rule="nonzero"/></g></g><g fill="#ffffff" fill-opacity="1"><g transform="translate(139.772608, 333.298021)"><g><path d="M 112.6875 -62.875 C 112.6875 -41.84375 108.332031 -25.753906 99.625 -14.609375 C 90.925781 -3.472656 78.1875 2.09375 61.40625 2.09375 C 44.832031 2.09375 32.160156 -3.367188 23.390625 -14.296875 C 14.617188 -25.234375 10.128906 -40.90625 9.921875 -61.3125 L 9.921875 -89.296875 C 9.921875 -110.535156 14.320312 -126.65625 23.125 -137.65625 C 31.9375 -148.65625 44.628906 -154.15625 61.203125 -154.15625 C 77.773438 -154.15625 90.445312 -148.707031 99.21875 -137.8125 C 107.988281 -126.914062 112.476562 -111.265625 112.6875 -90.859375 Z M 82.5 -93.578125 C 82.5 -106.179688 80.773438 -115.351562 77.328125 -121.09375 C 73.890625 -126.84375 68.515625 -129.71875 61.203125 -129.71875 C 54.097656 -129.71875 48.859375 -126.984375 45.484375 -121.515625 C 42.109375 -116.046875 40.316406 -107.5 40.109375 -95.875 L 40.109375 -58.90625 C 40.109375 -46.507812 41.796875 -37.300781 45.171875 -31.28125 C 48.546875 -25.257812 53.957031 -22.25 61.40625 -22.25 C 68.789062 -22.25 74.117188 -25.132812 77.390625 -30.90625 C 80.660156 -36.6875 82.363281 -45.53125 82.5 -57.4375 Z M 82.5 -93.578125 "/></g></g><g transform="translate(262.488388, 333.298021)"><g><path d="M 41.046875 -89.40625 L 57.125 -89.40625 C 64.78125 -89.40625 70.453125 -91.316406 74.140625 -95.140625 C 77.835938 -98.972656 79.6875 -104.054688 79.6875 -110.390625 C 79.6875 -116.515625 77.859375 -121.28125 74.203125 -124.6875 C 70.546875 -128.101562 65.515625 -129.8125 59.109375 -129.8125 C 53.328125 -129.8125 48.488281 -128.226562 44.59375 -125.0625 C 40.695312 -121.894531 38.75 -117.769531 38.75 -112.6875 L 8.5625 -112.6875 C 8.5625 -120.625 10.703125 -127.742188 14.984375 -134.046875 C 19.265625 -140.347656 25.25 -145.273438 32.9375 -148.828125 C 40.632812 -152.378906 49.113281 -154.15625 58.375 -154.15625 C 74.457031 -154.15625 87.0625 -150.304688 96.1875 -142.609375 C 105.3125 -134.921875 109.875 -124.320312 109.875 -110.8125 C 109.875 -103.84375 107.75 -97.429688 103.5 -91.578125 C 99.25 -85.734375 93.675781 -81.25 86.78125 -78.125 C 95.351562 -75.0625 101.742188 -70.460938 105.953125 -64.328125 C 110.160156 -58.203125 112.265625 -50.960938 112.265625 -42.609375 C 112.265625 -29.097656 107.335938 -18.269531 97.484375 -10.125 C 87.640625 -1.976562 74.601562 2.09375 58.375 2.09375 C 43.195312 2.09375 30.785156 -1.910156 21.140625 -9.921875 C 11.503906 -17.929688 6.6875 -28.515625 6.6875 -41.671875 L 36.859375 -41.671875 C 36.859375 -35.960938 39 -31.296875 43.28125 -27.671875 C 47.570312 -24.054688 52.847656 -22.25 59.109375 -22.25 C 66.285156 -22.25 71.910156 -24.144531 75.984375 -27.9375 C 80.054688 -31.726562 82.09375 -36.757812 82.09375 -43.03125 C 82.09375 -58.207031 73.738281 -65.796875 57.03125 -65.796875 L 41.046875 -65.796875 Z M 41.046875 -89.40625 "/></g></g></g></svg>