<svg xmlns="http://www.w3.org/2000/svg" xmlns:xlink="http://www.w3.org/1999/xlink" width="700" zoomAndPan="magnify" viewBox="0 0 525 525.000007" height="700" preserveAspectRatio="xMidYMid meet" version="1.0"><defs><clipPath id="7392150418"><path d="M 174 46.300781 L 350 46.300781 L 350 160 L 174 160 Z M 174 46.300781 " clip-rule="nonzero"/></clipPath><clipPath id="e73273f9c7"><path d="M 83 170 L 442 170 L 442 477.480469 L 83 477.480469 Z M 83 170 " clip-rule="nonzero"/></clipPath></defs><g clip-path="url(#7392150418)"><path fill="#000000" d="M 222.855469 159.203125 C 249.191406 155.980469 275.53125 155.980469 301.328125 159.203125 L 348.628906 94.6875 C 350.78125 90.925781 349.167969 84.472656 342.71875 82.324219 L 317.992188 72.648438 L 301.328125 105.441406 C 300.253906 107.59375 297.03125 110.816406 292.191406 108.667969 C 288.96875 107.054688 287.890625 102.753906 289.503906 99.527344 L 311.003906 58.128906 C 312.617188 54.367188 308.316406 46.300781 298.640625 46.300781 L 225.542969 46.300781 C 215.867188 46.300781 211.566406 53.292969 213.179688 57.59375 L 235.753906 98.992188 C 237.367188 102.214844 236.292969 106.515625 233.066406 108.128906 C 230.917969 109.207031 226.078125 109.207031 223.929688 105.441406 L 206.191406 72.648438 L 181.46875 82.863281 C 176.628906 85.011719 172.867188 90.386719 175.554688 95.226562 Z M 222.855469 159.203125 " fill-opacity="1" fill-rule="nonzero"/></g><g clip-path="url(#e73273f9c7)"><path fill="#000000" d="M 441.078125 379.632812 C 426.566406 265.65625 311.003906 176.945312 301.867188 173.183594 C 297.566406 171.03125 279.828125 170.496094 262.628906 170.496094 C 245.429688 170.496094 227.691406 171.570312 223.390625 173.183594 C 214.253906 176.945312 98.691406 265.65625 84.179688 379.632812 C 80.417969 408.128906 86.332031 430.707031 100.84375 447.375 C 127.179688 477.480469 174.480469 477.480469 175.019531 477.480469 L 350.242188 477.480469 C 350.78125 477.480469 398.078125 476.945312 424.417969 447.375 C 438.929688 430.707031 444.304688 408.128906 441.078125 379.632812 Z M 298.105469 307.589844 C 301.867188 307.589844 304.015625 310.277344 304.015625 313.503906 C 304.015625 316.730469 301.328125 318.878906 298.105469 318.878906 L 221.78125 318.878906 C 220.703125 323.183594 220.703125 327.484375 220.703125 331.785156 C 220.703125 336.085938 221.242188 340.386719 221.78125 344.6875 L 298.640625 344.6875 C 302.40625 344.6875 305.09375 347.914062 305.09375 351.136719 C 305.09375 354.902344 301.867188 357.589844 298.640625 357.589844 L 225.542969 357.589844 C 234.679688 380.707031 256.71875 395.761719 281.441406 396.300781 C 290.578125 396.300781 299.179688 394.148438 307.242188 390.386719 C 310.46875 388.773438 314.765625 389.847656 316.378906 393.609375 C 317.992188 396.835938 316.917969 401.136719 313.15625 402.75 C 303.480469 407.589844 292.191406 410.277344 281.441406 410.277344 C 249.730469 409.738281 221.78125 388.773438 211.566406 358.664062 L 190.066406 358.664062 C 186.304688 358.664062 183.617188 355.441406 183.617188 352.214844 C 183.617188 348.449219 186.84375 345.761719 190.066406 345.761719 L 207.804688 345.761719 C 206.191406 337.160156 206.191406 328.558594 207.804688 319.957031 L 189.53125 319.957031 C 185.765625 319.957031 183.082031 316.730469 183.082031 313.503906 C 183.082031 310.277344 186.304688 307.054688 189.53125 307.054688 L 211.03125 307.054688 C 221.242188 276.945312 249.191406 255.976562 280.90625 255.441406 C 292.191406 255.441406 303.480469 258.128906 313.15625 263.503906 C 316.378906 265.117188 317.992188 269.417969 316.378906 272.644531 C 314.765625 275.871094 310.46875 277.484375 307.242188 275.871094 C 299.179688 271.570312 290.042969 269.417969 280.90625 269.417969 C 256.179688 269.957031 234.679688 284.472656 225.003906 307.054688 Z M 298.105469 307.589844 " fill-opacity="1" fill-rule="nonzero"/></g></svg>