<svg xmlns="http://www.w3.org/2000/svg" xmlns:xlink="http://www.w3.org/1999/xlink" width="700" zoomAndPan="magnify" viewBox="0 0 525 525.000007" height="700" preserveAspectRatio="xMidYMid meet" version="1.0"><defs><clipPath id="96cc685727"><path d="M 45.289062 97 L 479.460938 97 L 479.460938 427 L 45.289062 427 Z M 45.289062 97 " clip-rule="nonzero"/></clipPath></defs><g clip-path="url(#96cc685727)"><path fill="#000000" d="M 479.460938 396.609375 L 479.460938 134.457031 C 474.226562 134.457031 469.109375 134.535156 464.058594 134.652344 L 464.058594 116.515625 L 459.003906 116.515625 C 452.960938 116.515625 447.097656 116.648438 441.332031 116.839844 L 441.332031 97.507812 L 436.273438 97.507812 C 322.257812 97.507812 263.160156 143.460938 262.558594 143.933594 L 262.371094 144.078125 L 262.183594 143.925781 C 261.597656 143.460938 202.488281 97.507812 88.480469 97.507812 L 83.425781 97.507812 L 83.425781 116.84375 C 77.652344 116.648438 71.789062 116.515625 65.746094 116.515625 L 60.683594 116.515625 L 60.683594 134.65625 C 55.636719 134.539062 50.523438 134.457031 45.289062 134.457031 L 45.289062 396.609375 C 188.566406 396.609375 262.375 426.316406 262.375 426.316406 C 262.375 426.316406 336.1875 396.613281 479.460938 396.609375 Z M 70.800781 126.121094 C 75.089844 126.164062 79.28125 126.269531 83.425781 126.40625 L 83.425781 360.335938 C 83.40625 360.996094 83.519531 361.589844 83.714844 361.949219 C 84.585938 363.820312 85.105469 363.792969 85.347656 364.09375 C 86.144531 364.644531 86.035156 364.503906 86.15625 364.589844 C 86.207031 364.617188 86.21875 364.617188 86.21875 364.617188 L 93.542969 368.085938 L 93.542969 365.15625 C 146.578125 365.804688 186.804688 376.636719 213.96875 387.410156 C 219.011719 389.410156 223.585938 391.410156 227.722656 393.34375 C 196.667969 385.058594 144.175781 375.007812 70.800781 374.5625 Z M 213.96875 129.375 C 227.964844 134.933594 238.492188 140.476562 245.464844 144.601562 C 248.957031 146.667969 251.566406 148.371094 253.285156 149.550781 C 253.507812 149.699219 253.710938 149.851562 253.910156 149.984375 L 253.910156 396.371094 C 234.355469 384.261719 180.339844 356.617188 93.542969 355.574219 L 93.542969 107.125 C 146.578125 107.773438 186.804688 118.601562 213.96875 129.375 Z M 431.214844 107.125 L 431.214844 355.574219 C 344.421875 356.617188 290.398438 384.253906 270.847656 396.367188 L 270.847656 149.984375 C 281.253906 142.71875 335.390625 108.304688 431.214844 107.125 Z M 453.949219 374.5625 C 380.546875 375.007812 328.054688 385.0625 297 393.351562 C 323.941406 380.765625 370.167969 365.3125 435.082031 365.121094 L 441.328125 368.082031 L 441.328125 126.414062 C 445.472656 126.273438 449.664062 126.164062 453.949219 126.121094 Z M 453.949219 374.5625 " fill-opacity="1" fill-rule="nonzero"/></g></svg>