<svg xmlns="http://www.w3.org/2000/svg" xmlns:xlink="http://www.w3.org/1999/xlink" width="700" zoomAndPan="magnify" viewBox="0 0 525 525.000007" height="700" preserveAspectRatio="xMidYMid meet" version="1.0"><defs><clipPath id="8f268664c4"><path d="M 99 161 L 427 161 L 427 438.339844 L 99 438.339844 Z M 99 161 " clip-rule="nonzero"/></clipPath><clipPath id="970e06084c"><path d="M 279 85.757812 L 292 85.757812 L 292 128 L 279 128 Z M 279 85.757812 " clip-rule="nonzero"/></clipPath></defs><g clip-path="url(#8f268664c4)"><path fill="#000000" d="M 424.03125 347.917969 L 377.777344 308.828125 C 379.277344 306.03125 380.226562 302.9375 380.496094 299.671875 C 381.027344 293.382812 379.082031 287.269531 375.03125 282.480469 C 372.066406 278.949219 368.207031 276.425781 363.878906 275.121094 C 370.304688 266.523438 370.230469 254.304688 363.035156 245.75 C 359.910156 242.039062 355.796875 239.4375 351.183594 238.203125 C 356.328125 229.777344 355.804688 218.636719 349.09375 210.65625 C 345.378906 206.257812 340.265625 203.417969 334.582031 202.578125 C 337.183594 194.980469 335.867188 186.234375 330.332031 179.664062 C 326.292969 174.859375 320.59375 171.925781 314.304688 171.390625 C 307.980469 170.839844 301.902344 172.796875 297.097656 176.84375 L 296.222656 177.582031 L 269.714844 165.203125 C 255.839844 157.992188 243.691406 163.664062 237.816406 172.460938 C 235.859375 175.382812 234.660156 178.539062 234.035156 181.722656 L 228.257812 176.839844 C 218.308594 168.457031 203.40625 169.734375 195.027344 179.664062 C 189.492188 186.234375 188.171875 194.980469 190.78125 202.578125 C 185.097656 203.417969 179.996094 206.25 176.269531 210.664062 C 172.222656 215.46875 170.285156 221.578125 170.816406 227.867188 C 171.132812 231.597656 172.285156 235.109375 174.171875 238.203125 C 169.703125 239.410156 165.53125 241.941406 162.320312 245.746094 C 155.121094 254.296875 155.054688 266.519531 161.484375 275.117188 C 157.277344 276.398438 153.371094 278.851562 150.332031 282.464844 C 143.929688 290.050781 143.191406 300.535156 147.609375 308.824219 L 101.332031 347.914062 C 98.929688 349.9375 98.628906 353.527344 100.652344 355.925781 C 101.777344 357.257812 103.378906 357.945312 105.003906 357.945312 C 106.296875 357.945312 107.59375 357.507812 108.660156 356.609375 L 155.097656 317.386719 L 173.722656 333.105469 C 178.003906 336.714844 183.316406 338.648438 188.867188 338.648438 C 189.542969 338.648438 190.222656 338.613281 190.90625 338.558594 C 197.183594 338.023438 202.878906 335.089844 206.90625 330.296875 C 210.964844 325.5 212.90625 319.398438 212.378906 313.105469 C 212.097656 309.773438 211.109375 306.636719 209.570312 303.796875 C 214.265625 302.65625 218.667969 300.128906 222.007812 296.164062 C 226.609375 290.699219 228.195312 283.75 227.132812 277.191406 C 227.140625 277.191406 227.144531 277.191406 227.152344 277.191406 C 233.777344 277.191406 240.304688 274.441406 244.777344 269.15625 C 248.953125 264.953125 251.109375 259.234375 250.84375 253.058594 C 250.832031 252.851562 250.765625 252.660156 250.753906 252.460938 C 251.683594 252.574219 252.605469 252.726562 253.554688 252.726562 C 254.230469 252.726562 254.917969 252.699219 255.597656 252.636719 C 261.890625 252.101562 267.578125 249.164062 271.28125 244.726562 C 275.480469 240.546875 277.652344 234.84375 277.394531 228.660156 C 277.160156 223.042969 274.890625 217.761719 271.195312 213.609375 L 304.417969 185.535156 C 306.902344 183.445312 310.046875 182.417969 313.332031 182.722656 C 316.597656 182.996094 319.546875 184.515625 321.632812 186.996094 C 325.96875 192.140625 325.308594 199.882812 320.167969 204.226562 L 315.871094 207.867188 C 315.867188 207.871094 315.867188 207.871094 315.867188 207.871094 C 313.472656 209.894531 313.171875 213.484375 315.207031 215.882812 C 317.222656 218.277344 320.808594 218.574219 323.207031 216.550781 L 323.234375 216.519531 C 325.703125 214.457031 328.867188 213.476562 332.082031 213.730469 C 335.355469 214 338.316406 215.515625 340.402344 217.992188 C 344.742188 223.152344 344.082031 230.878906 338.933594 235.222656 L 329.820312 242.941406 C 329.820312 242.941406 329.816406 242.945312 329.808594 242.945312 C 327.417969 244.976562 327.117188 248.566406 329.144531 250.960938 C 331.167969 253.359375 334.753906 253.660156 337.152344 251.628906 L 337.15625 251.628906 C 339.632812 249.527344 342.878906 248.554688 346.046875 248.804688 C 349.308594 249.082031 352.253906 250.597656 354.339844 253.074219 C 358.671875 258.226562 358.015625 265.960938 352.878906 270.304688 L 341.820312 279.644531 L 341.816406 279.648438 C 339.417969 281.671875 339.109375 285.261719 341.132812 287.660156 C 343.15625 290.0625 346.734375 290.375 349.140625 288.34375 L 349.15625 288.332031 C 351.632812 286.246094 354.757812 285.273438 358.042969 285.523438 C 361.304688 285.800781 364.246094 287.316406 366.339844 289.804688 C 368.433594 292.289062 369.433594 295.453125 369.164062 298.710938 C 368.882812 301.976562 367.371094 304.933594 364.894531 307.023438 L 313.253906 350.652344 C 292.179688 368.460938 274.796875 366.578125 248.691406 361.378906 C 246.984375 361.019531 245.242188 361.492188 243.910156 362.613281 L 166.15625 428.304688 C 163.757812 430.324219 163.457031 433.914062 165.484375 436.320312 C 166.605469 437.648438 168.207031 438.339844 169.828125 438.339844 C 171.121094 438.339844 172.417969 437.898438 173.492188 436.996094 L 249.160156 373.058594 C 259.945312 375.140625 269.816406 376.589844 279.347656 376.238281 L 351.917969 437.011719 C 352.992188 437.90625 354.28125 438.339844 355.566406 438.339844 C 357.191406 438.339844 358.804688 437.644531 359.929688 436.300781 C 361.941406 433.890625 361.628906 430.308594 359.21875 428.296875 L 294.355469 373.96875 C 302.964844 371.53125 311.554688 366.980469 320.582031 359.355469 L 370.289062 317.375 L 416.703125 356.601562 C 417.769531 357.507812 419.070312 357.945312 420.367188 357.945312 C 421.984375 357.945312 423.589844 357.261719 424.714844 355.929688 C 426.730469 353.53125 426.429688 349.941406 424.03125 347.917969 Z M 247.859375 193.394531 C 243.558594 189.757812 244.34375 183.152344 247.269531 178.777344 C 248.714844 176.617188 254.222656 169.980469 264.703125 175.398438 L 286.667969 185.660156 L 262.683594 205.925781 L 247.910156 193.449219 L 247.871094 193.414062 C 247.867188 193.410156 247.871094 193.398438 247.859375 193.394531 Z M 198.234375 322.949219 C 196.152344 325.433594 193.207031 326.945312 189.953125 327.21875 C 186.660156 327.515625 183.527344 326.492188 181.054688 324.402344 L 160.46875 307.035156 C 155.328125 302.667969 154.671875 294.941406 159.019531 289.800781 C 163.328125 284.683594 170.957031 284.003906 176.109375 288.269531 L 196.804688 305.734375 C 199.28125 307.820312 200.792969 310.773438 201.066406 314.042969 C 201.339844 317.3125 200.332031 320.46875 198.234375 322.949219 Z M 213.332031 288.820312 C 208.992188 293.96875 201.277344 294.628906 196.128906 290.292969 L 183.578125 279.699219 C 183.558594 279.6875 183.554688 279.667969 183.535156 279.648438 L 183.53125 279.644531 L 172.480469 270.3125 C 167.339844 265.957031 166.679688 258.226562 171.007812 253.082031 C 173.105469 250.597656 176.058594 249.082031 179.320312 248.804688 C 182.589844 248.539062 185.746094 249.53125 188.222656 251.628906 L 188.230469 251.636719 C 188.242188 251.648438 188.265625 251.648438 188.277344 251.660156 L 211.859375 271.601562 C 217.007812 275.945312 217.660156 283.679688 213.332031 288.820312 Z M 236.421875 261.457031 C 232.070312 266.605469 224.355469 267.261719 219.203125 262.914062 L 195.484375 242.867188 C 195.480469 242.863281 195.46875 242.863281 195.464844 242.855469 L 186.410156 235.214844 C 183.933594 233.125 182.421875 230.175781 182.144531 226.90625 C 181.867188 223.640625 182.871094 220.46875 184.957031 217.992188 C 187.046875 215.515625 189.996094 214 193.257812 213.730469 C 196.464844 213.425781 199.652344 214.4375 202.121094 216.503906 L 202.171875 216.550781 L 234.953125 244.230469 C 237.65625 246.519531 239.355469 250 239.507812 253.535156 C 239.628906 256.503906 238.652344 259.199219 236.421875 261.457031 Z M 262.945312 237.027344 C 260.859375 239.507812 257.917969 241.019531 254.65625 241.296875 C 251.378906 241.597656 248.234375 240.574219 245.769531 238.496094 C 245.492188 238.261719 245.242188 238.253906 245.007812 238.386719 C 244.15625 237.390625 243.285156 236.394531 242.28125 235.542969 L 209.496094 207.855469 C 209.472656 207.832031 209.453125 207.820312 209.429688 207.796875 L 205.183594 204.21875 C 200.042969 199.871094 199.382812 192.136719 203.714844 186.996094 C 208.058594 181.855469 215.785156 181.1875 220.929688 185.523438 L 228.695312 192.089844 C 228.703125 192.089844 228.703125 192.097656 228.707031 192.101562 L 241.046875 202.53125 L 244.867188 205.753906 L 244.871094 205.753906 L 261.507812 219.820312 C 264.214844 222.097656 265.90625 225.578125 266.058594 229.128906 C 266.179688 232.078125 265.191406 234.753906 262.945312 237.027344 Z M 262.945312 237.027344 " fill-opacity="1" fill-rule="nonzero"/></g><g clip-path="url(#970e06084c)"><path fill="#000000" d="M 285.433594 127.046875 C 288.578125 127.046875 291.117188 124.503906 291.117188 121.359375 L 291.117188 91.445312 C 291.117188 88.300781 288.578125 85.757812 285.433594 85.757812 C 282.292969 85.757812 279.753906 88.300781 279.753906 91.445312 L 279.753906 121.359375 C 279.753906 124.503906 282.292969 127.046875 285.433594 127.046875 Z M 285.433594 127.046875 " fill-opacity="1" fill-rule="nonzero"/></g><path fill="#000000" d="M 360.714844 143.394531 C 362.464844 143.394531 364.183594 142.585938 365.304688 141.074219 L 382.980469 116.960938 C 384.832031 114.433594 384.285156 110.871094 381.757812 109.011719 C 379.214844 107.148438 375.667969 107.710938 373.816406 110.234375 L 356.140625 134.347656 C 354.285156 136.878906 354.832031 140.4375 357.359375 142.296875 C 358.371094 143.035156 359.546875 143.394531 360.714844 143.394531 Z M 360.714844 143.394531 " fill-opacity="1" fill-rule="nonzero"/><path fill="#000000" d="M 205.570312 141.074219 C 206.679688 142.59375 208.40625 143.394531 210.15625 143.394531 C 211.320312 143.394531 212.496094 143.035156 213.515625 142.292969 C 216.042969 140.4375 216.589844 136.878906 214.730469 134.347656 L 197.042969 110.234375 C 195.191406 107.710938 191.640625 107.160156 189.105469 109.019531 C 186.578125 110.871094 186.03125 114.433594 187.890625 116.960938 Z M 205.570312 141.074219 " fill-opacity="1" fill-rule="nonzero"/></svg>