<svg xmlns="http://www.w3.org/2000/svg" xmlns:xlink="http://www.w3.org/1999/xlink" width="700" zoomAndPan="magnify" viewBox="0 0 525 525.000007" height="700" preserveAspectRatio="xMidYMid meet" version="1.0"><defs><clipPath id="bb27ed001e"><path d="M 89 104.9375 L 160 104.9375 L 160 176 L 89 176 Z M 89 104.9375 " clip-rule="nonzero"/></clipPath><clipPath id="cd5eb722c3"><path d="M 49.167969 174 L 241 174 L 241 419.335938 L 49.167969 419.335938 Z M 49.167969 174 " clip-rule="nonzero"/></clipPath><clipPath id="4d03f42903"><path d="M 176 120 L 475.855469 120 L 475.855469 344 L 176 344 Z M 176 120 " clip-rule="nonzero"/></clipPath></defs><path fill="#000000" d="M 265.71875 291.027344 C 265.71875 293.953125 268.097656 296.332031 271.019531 296.332031 C 286.046875 296.332031 300.171875 290.476562 310.796875 279.84375 C 321.417969 269.210938 327.269531 255.078125 327.269531 240.039062 L 327.269531 231.953125 C 327.269531 206.960938 345.175781 185.109375 369.375 179.953125 L 367.066406 182.261719 C 366.066406 183.265625 365.515625 184.597656 365.515625 186.015625 C 365.515625 187.429688 366.066406 188.765625 367.066406 189.765625 C 368.066406 190.765625 369.398438 191.320312 370.8125 191.320312 C 372.230469 191.320312 373.5625 190.765625 374.5625 189.765625 L 387.074219 177.242188 C 388.078125 176.242188 388.628906 174.910156 388.628906 173.492188 C 388.628906 172.074219 388.078125 170.742188 387.074219 169.742188 L 374.5625 157.21875 C 373.566406 156.21875 372.234375 155.667969 370.8125 155.667969 C 369.398438 155.667969 368.066406 156.21875 367.0625 157.21875 C 366.066406 158.222656 365.515625 159.554688 365.515625 160.972656 C 365.515625 162.390625 366.066406 163.722656 367.066406 164.722656 L 371.1875 168.847656 C 357.6875 170.8125 345.015625 177.167969 335.328125 186.863281 C 323.292969 198.910156 316.664062 214.917969 316.664062 231.953125 L 316.664062 240.039062 C 316.664062 265.226562 296.1875 285.71875 271.019531 285.71875 C 268.097656 285.71875 265.71875 288.101562 265.71875 291.027344 " fill-opacity="1" fill-rule="nonzero"/><path fill="#000000" d="M 242.007812 282.011719 C 246.976562 282.011719 251.015625 286.054688 251.015625 291.027344 C 251.015625 295.996094 246.976562 300.039062 242.007812 300.039062 C 237.042969 300.039062 233.003906 295.996094 233.003906 291.027344 C 233.003906 286.054688 237.042969 282.011719 242.007812 282.011719 Z M 242.007812 310.652344 C 252.824219 310.652344 261.617188 301.847656 261.617188 291.027344 C 261.617188 280.207031 252.824219 271.402344 242.007812 271.402344 C 231.199219 271.402344 222.402344 280.207031 222.402344 291.027344 C 222.402344 301.847656 231.199219 310.652344 242.007812 310.652344 " fill-opacity="1" fill-rule="nonzero"/><path fill="#000000" d="M 410.628906 164.480469 C 415.59375 164.480469 419.632812 168.523438 419.632812 173.492188 C 419.632812 178.460938 415.59375 182.503906 410.628906 182.503906 C 405.660156 182.503906 401.621094 178.460938 401.621094 173.492188 C 401.621094 168.523438 405.660156 164.480469 410.628906 164.480469 Z M 410.628906 193.117188 C 421.441406 193.117188 430.238281 184.3125 430.238281 173.492188 C 430.238281 162.671875 421.441406 153.871094 410.628906 153.871094 C 399.816406 153.871094 391.019531 162.671875 391.019531 173.492188 C 391.019531 184.3125 399.816406 193.117188 410.628906 193.117188 " fill-opacity="1" fill-rule="nonzero"/><path fill="#000000" d="M 370.089844 232.257812 L 380.648438 221.691406 C 382.714844 219.628906 382.714844 216.261719 380.648438 214.191406 C 378.582031 212.121094 375.21875 212.117188 373.148438 214.191406 L 362.59375 224.757812 L 352.035156 214.191406 C 349.964844 212.121094 346.605469 212.121094 344.535156 214.1875 C 343.535156 215.191406 342.984375 216.523438 342.984375 217.941406 C 342.984375 219.355469 343.535156 220.691406 344.535156 221.691406 L 355.097656 232.257812 L 344.535156 242.824219 C 343.535156 243.828125 342.984375 245.160156 342.984375 246.578125 C 342.984375 247.992188 343.535156 249.328125 344.535156 250.328125 C 345.535156 251.332031 346.867188 251.882812 348.285156 251.882812 C 349.703125 251.882812 351.03125 251.332031 352.035156 250.328125 L 362.59375 239.765625 L 373.148438 250.328125 C 374.152344 251.332031 375.484375 251.882812 376.898438 251.882812 C 378.3125 251.882812 379.648438 251.332031 380.648438 250.328125 C 381.648438 249.324219 382.199219 247.992188 382.199219 246.578125 C 382.199219 245.160156 381.648438 243.828125 380.648438 242.824219 L 370.089844 232.257812 " fill-opacity="1" fill-rule="nonzero"/><path fill="#000000" d="M 257.597656 246.578125 C 257.597656 247.992188 258.148438 249.328125 259.152344 250.328125 C 260.152344 251.332031 261.484375 251.882812 262.898438 251.882812 C 264.316406 251.882812 265.644531 251.332031 266.648438 250.328125 L 277.207031 239.765625 L 287.761719 250.328125 C 288.761719 251.332031 290.09375 251.882812 291.511719 251.882812 C 292.929688 251.882812 294.261719 251.332031 295.257812 250.328125 C 296.261719 249.328125 296.8125 247.992188 296.8125 246.578125 C 296.8125 245.160156 296.261719 243.828125 295.257812 242.824219 L 284.703125 232.257812 L 295.257812 221.691406 C 296.261719 220.695312 296.8125 219.359375 296.8125 217.941406 C 296.8125 216.578125 296.300781 215.292969 295.371094 214.304688 L 295.367188 214.296875 L 295.257812 214.1875 C 293.195312 212.121094 289.828125 212.121094 287.761719 214.1875 L 277.207031 224.757812 L 266.648438 214.191406 C 264.582031 212.121094 261.21875 212.117188 259.152344 214.191406 C 258.148438 215.191406 257.597656 216.523438 257.597656 217.941406 C 257.597656 219.359375 258.148438 220.695312 259.152344 221.691406 L 269.707031 232.257812 L 259.152344 242.824219 C 258.148438 243.828125 257.597656 245.160156 257.597656 246.578125 " fill-opacity="1" fill-rule="nonzero"/><g clip-path="url(#bb27ed001e)"><path fill="#000000" d="M 124.625 115.570312 C 110.996094 115.570312 99.90625 126.664062 99.90625 140.304688 C 99.90625 153.945312 110.996094 165.046875 124.625 165.046875 C 138.253906 165.046875 149.339844 153.945312 149.339844 140.304688 C 149.339844 126.664062 138.253906 115.570312 124.625 115.570312 Z M 124.625 175.679688 C 105.136719 175.679688 89.28125 159.808594 89.28125 140.304688 C 89.28125 120.800781 105.136719 104.933594 124.625 104.933594 C 144.113281 104.933594 159.96875 120.800781 159.96875 140.304688 C 159.96875 159.808594 144.113281 175.679688 124.625 175.679688 " fill-opacity="1" fill-rule="nonzero"/></g><g clip-path="url(#cd5eb722c3)"><path fill="#000000" d="M 121.203125 293.964844 C 126.367188 293.964844 130.550781 298.011719 130.734375 303.175781 L 134.25 403.792969 C 134.34375 406.546875 136.578125 408.703125 139.328125 408.703125 L 139.988281 408.703125 C 142.714844 408.703125 144.941406 406.570312 145.066406 403.851562 L 153.648438 216.394531 C 153.75 214.117188 155.292969 212.160156 157.484375 211.53125 C 159.671875 210.898438 162.019531 211.734375 163.320312 213.605469 L 177.644531 234.265625 C 179.976562 237.628906 184.394531 238.890625 188.152344 237.265625 L 226.789062 220.542969 C 228.550781 219.78125 229.207031 218.339844 229.441406 217.546875 C 229.675781 216.753906 229.90625 215.1875 228.84375 213.589844 C 227.601562 211.726562 225.195312 210.988281 223.121094 211.84375 L 185.824219 227.171875 C 183.378906 228.179688 180.558594 227.226562 179.222656 224.941406 L 158.042969 188.695312 C 156.726562 186.445312 154.289062 185.046875 151.683594 185.046875 L 146.359375 185.046875 C 140.15625 189.90625 132.511719 192.5625 124.625 192.5625 C 116.738281 192.5625 109.097656 189.90625 102.886719 185.046875 L 88.890625 185.046875 C 85.433594 185.046875 82.480469 187.398438 81.710938 190.773438 L 60.566406 283.34375 C 60.285156 284.585938 60.503906 285.859375 61.1875 286.933594 C 61.867188 288.003906 62.925781 288.742188 64.167969 289.011719 L 67.039062 289.636719 C 69.519531 290.171875 71.964844 288.667969 72.605469 286.207031 L 88.871094 223.328125 C 89.546875 220.710938 92.078125 219.015625 94.757812 219.394531 C 97.433594 219.773438 99.402344 222.101562 99.324219 224.804688 L 94.398438 403.476562 C 94.359375 404.859375 94.871094 406.171875 95.835938 407.164062 C 96.800781 408.15625 98.097656 408.703125 99.480469 408.703125 C 102.136719 408.703125 104.367188 406.628906 104.550781 403.972656 L 111.6875 302.835938 C 112.039062 297.863281 116.21875 293.964844 121.203125 293.964844 Z M 139.988281 419.339844 L 139.328125 419.339844 C 130.824219 419.339844 123.925781 412.675781 123.628906 404.167969 L 120.835938 324.15625 L 115.148438 404.722656 C 114.574219 412.917969 107.6875 419.339844 99.480469 419.339844 C 95.203125 419.339844 91.207031 417.648438 88.222656 414.582031 C 85.238281 411.511719 83.660156 407.464844 83.777344 403.179688 L 87.414062 271.394531 L 82.890625 288.871094 C 80.816406 296.878906 72.867188 301.777344 64.785156 300.027344 L 61.917969 299.40625 C 57.878906 298.53125 54.433594 296.125 52.21875 292.640625 C 50.003906 289.148438 49.289062 285.007812 50.207031 280.976562 L 71.351562 188.40625 C 73.234375 180.164062 80.445312 174.414062 88.890625 174.414062 L 104.800781 174.414062 C 106.09375 174.414062 107.34375 174.882812 108.316406 175.738281 C 112.84375 179.730469 118.632812 181.929688 124.625 181.929688 C 130.613281 181.929688 136.40625 179.730469 140.9375 175.738281 C 141.90625 174.882812 143.152344 174.414062 144.445312 174.414062 L 151.683594 174.414062 C 158.050781 174.414062 164 177.824219 167.210938 183.328125 L 186.0625 215.578125 L 219.085938 202.003906 C 225.820312 199.234375 233.644531 201.625 237.683594 207.691406 C 240.210938 211.488281 240.921875 216.179688 239.628906 220.558594 C 238.339844 224.941406 235.195312 228.488281 231.003906 230.304688 L 192.371094 247.027344 C 183.988281 250.65625 174.125 247.835938 168.914062 240.328125 L 163.542969 232.578125 L 155.679688 404.335938 C 155.292969 412.75 148.402344 419.339844 139.988281 419.339844 " fill-opacity="1" fill-rule="nonzero"/></g><g clip-path="url(#4d03f42903)"><path fill="#000000" d="M 469.898438 120.902344 L 182.738281 120.902344 C 179.523438 120.902344 176.917969 123.507812 176.917969 126.726562 L 176.917969 178.019531 C 176.917969 180.335938 178.292969 182.433594 180.417969 183.359375 C 184.261719 185.03125 188.558594 182.210938 188.558594 178.019531 L 188.558594 132.550781 L 464.082031 132.550781 L 464.082031 331.96875 L 188.558594 331.96875 L 188.558594 270.773438 C 188.558594 267.8125 186.339844 265.324219 183.398438 264.988281 C 179.941406 264.59375 176.917969 267.296875 176.917969 270.773438 L 176.917969 337.792969 C 176.917969 341.007812 179.523438 343.617188 182.738281 343.617188 L 469.898438 343.617188 C 473.113281 343.617188 475.71875 341.007812 475.71875 337.792969 L 475.71875 126.726562 C 475.71875 123.507812 473.113281 120.902344 469.898438 120.902344 " fill-opacity="1" fill-rule="nonzero"/></g></svg>