<svg xmlns="http://www.w3.org/2000/svg" xmlns:xlink="http://www.w3.org/1999/xlink" width="700" zoomAndPan="magnify" viewBox="0 0 525 525.000007" height="700" preserveAspectRatio="xMidYMid meet" version="1.0"><defs><clipPath id="80c5e5b8b6"><path d="M 274 249 L 420 249 L 420 450.875 L 274 450.875 Z M 274 249 " clip-rule="nonzero"/></clipPath><clipPath id="2eea76cc5a"><path d="M 77 108.777344 L 448 108.777344 L 448 376 L 77 376 Z M 77 108.777344 " clip-rule="nonzero"/></clipPath></defs><g clip-path="url(#80c5e5b8b6)"><path fill="#ffffff" d="M 275.523438 431.054688 C 276.972656 432.503906 279.289062 433.375 281.316406 432.792969 L 307.667969 426.132812 L 323.882812 448.140625 C 325.039062 449.589844 326.777344 450.457031 328.515625 450.457031 C 328.804688 450.457031 329.09375 450.457031 329.382812 450.457031 C 331.410156 450.167969 333.148438 448.71875 334.015625 446.691406 L 340.386719 428.160156 L 334.304688 410.496094 L 326.777344 432.503906 L 314.90625 416 C 313.746094 414.550781 312.011719 413.683594 310.273438 413.683594 C 309.691406 413.683594 309.402344 413.683594 308.824219 413.972656 L 289.425781 418.894531 L 306.796875 369.089844 C 307.375 369.378906 308.246094 369.671875 308.535156 370.25 C 309.984375 371.40625 311.429688 373.144531 313.167969 375.171875 C 316.0625 378.9375 319.539062 383.277344 325.039062 385.015625 C 329.382812 386.464844 333.726562 385.597656 337.78125 384.726562 L 359.496094 446.980469 C 360.078125 449.007812 362.105469 450.457031 364.128906 450.746094 C 364.421875 450.746094 364.710938 450.746094 365 450.746094 C 366.738281 450.746094 368.472656 449.878906 369.632812 448.429688 L 385.847656 426.421875 L 412.199219 433.082031 C 414.222656 433.664062 416.539062 433.082031 417.988281 431.347656 C 419.4375 429.609375 420.015625 427.582031 419.148438 425.554688 L 401.773438 375.460938 L 401.484375 374.882812 L 398.007812 364.457031 C 400.324219 363.300781 402.640625 361.5625 404.667969 358.957031 C 407.855469 354.613281 408.144531 349.109375 408.433594 344.476562 C 408.433594 341.871094 408.722656 339.265625 409.300781 337.527344 C 409.882812 335.792969 411.039062 333.765625 412.488281 331.738281 C 415.09375 327.683594 418.277344 323.050781 418.277344 317.550781 C 418.277344 312.046875 415.382812 307.125 412.488281 303.359375 C 411.039062 301.332031 409.882812 299.308594 409.300781 297.570312 C 408.722656 295.832031 408.722656 293.226562 408.433594 290.621094 C 408.144531 285.988281 407.855469 280.484375 404.667969 276.140625 C 401.484375 271.507812 396.273438 269.773438 391.929688 268.035156 C 389.613281 267.164062 387.296875 266.296875 385.558594 265.140625 C 384.109375 263.980469 382.664062 262.242188 380.925781 260.214844 C 378.03125 256.453125 374.554688 252.109375 369.054688 250.371094 C 363.839844 248.632812 358.628906 250.082031 354.285156 251.238281 C 351.679688 251.820312 349.363281 252.6875 347.335938 252.6875 C 345.308594 252.6875 342.992188 252.109375 340.386719 251.238281 C 335.753906 250.082031 330.542969 248.632812 325.617188 250.371094 C 320.117188 252.109375 316.933594 256.453125 313.746094 260.214844 C 312.011719 262.242188 310.5625 264.269531 309.113281 265.140625 C 307.667969 266.296875 305.351562 267.164062 302.742188 268.035156 C 298.402344 269.773438 293.1875 271.507812 290.003906 276.140625 C 286.816406 280.484375 286.527344 285.988281 286.238281 290.621094 C 286.238281 293.226562 285.949219 295.832031 285.371094 297.570312 C 284.792969 299.308594 283.632812 301.332031 282.183594 303.359375 C 279.578125 307.414062 276.394531 312.046875 276.394531 317.550781 C 276.394531 323.050781 279.289062 327.972656 282.183594 331.738281 C 283.632812 333.765625 284.792969 335.792969 285.371094 337.527344 C 285.949219 339.265625 285.949219 341.871094 286.238281 344.476562 C 286.527344 349.109375 286.816406 354.613281 290.003906 358.957031 C 291.742188 361.273438 294.058594 363.011719 296.664062 364.457031 L 293.1875 374.59375 L 291.742188 375.171875 L 274.367188 425.265625 C 273.789062 427.292969 274.078125 429.320312 275.523438 431.054688 Z M 404.089844 418.894531 L 384.6875 413.972656 C 382.371094 413.394531 380.054688 414.261719 378.609375 416.289062 L 366.738281 432.792969 L 349.363281 383.277344 C 350.8125 383.570312 352.257812 383.859375 353.707031 384.4375 C 356.890625 385.304688 360.078125 386.175781 363.550781 386.175781 C 365.289062 386.175781 367.027344 385.886719 368.761719 385.304688 C 374.265625 383.570312 377.449219 379.226562 380.636719 375.460938 C 382.371094 373.433594 383.820312 371.40625 385.269531 370.539062 C 385.847656 370.25 386.425781 369.671875 387.003906 369.378906 Z M 295.503906 333.765625 C 294.347656 330.578125 292.609375 327.683594 290.871094 325.078125 C 288.84375 322.183594 287.109375 319.285156 287.109375 317.257812 C 287.109375 315.234375 288.84375 312.335938 290.871094 309.441406 C 292.609375 306.835938 294.347656 303.941406 295.503906 300.753906 C 296.664062 297.570312 296.664062 294.09375 296.953125 290.910156 C 297.242188 287.433594 297.242188 284.25 298.402344 282.511719 C 299.558594 280.773438 302.742188 279.617188 305.929688 278.457031 C 309.113281 277.300781 312.011719 276.140625 314.90625 274.117188 C 317.800781 272.089844 319.828125 269.480469 321.855469 266.875 C 323.882812 264.269531 326.199219 261.664062 328.226562 260.796875 C 330.253906 260.214844 333.4375 261.085938 336.621094 261.953125 C 339.808594 262.824219 343.28125 263.691406 346.757812 263.691406 C 350.230469 263.691406 353.707031 262.824219 356.890625 261.953125 C 360.078125 261.085938 363.261719 260.214844 365.289062 260.796875 C 367.316406 261.375 369.34375 263.980469 371.660156 266.875 C 373.6875 269.480469 375.710938 272.089844 378.609375 274.117188 C 381.503906 276.140625 384.6875 277.300781 387.585938 278.457031 C 390.769531 279.617188 393.957031 280.773438 395.113281 282.511719 C 396.273438 284.25 396.5625 287.433594 396.5625 290.910156 C 396.851562 294.09375 396.851562 297.570312 398.007812 301.042969 C 399.167969 304.230469 400.90625 307.125 402.640625 309.730469 C 404.667969 312.625 406.40625 315.523438 406.40625 317.550781 C 406.40625 319.578125 404.667969 322.472656 402.640625 325.367188 C 400.90625 327.972656 399.167969 330.867188 398.007812 334.054688 C 396.851562 337.238281 396.851562 340.714844 396.5625 343.898438 C 396.273438 347.375 396.273438 350.558594 395.113281 352.296875 C 393.957031 354.035156 390.769531 355.191406 387.585938 356.351562 C 384.398438 357.507812 381.503906 358.667969 378.609375 360.695312 C 375.710938 362.71875 373.6875 365.328125 371.660156 367.933594 C 369.632812 370.539062 367.316406 373.144531 365.289062 374.011719 C 363.261719 374.59375 360.078125 373.722656 356.890625 372.855469 C 353.707031 371.988281 350.230469 371.117188 346.757812 371.117188 C 343.28125 371.117188 339.808594 371.988281 336.621094 372.855469 C 333.4375 373.722656 330.253906 374.59375 328.226562 374.011719 C 326.199219 373.433594 324.171875 370.828125 321.855469 367.933594 C 319.828125 365.328125 317.800781 362.71875 314.90625 360.695312 C 312.011719 358.667969 308.824219 357.507812 305.929688 356.351562 C 302.742188 355.191406 299.558594 354.035156 298.402344 352.296875 C 297.242188 350.558594 296.953125 347.375 296.953125 343.898438 C 296.664062 340.425781 296.664062 337.238281 295.503906 333.765625 Z M 295.503906 333.765625 " fill-opacity="1" fill-rule="nonzero"/></g><path fill="#ffffff" d="M 346.46875 357.796875 C 368.761719 357.796875 387.003906 339.554688 387.003906 317.257812 C 387.003906 294.964844 368.761719 276.722656 346.46875 276.722656 C 324.171875 276.722656 305.929688 294.964844 305.929688 317.257812 C 305.929688 339.554688 324.171875 357.796875 346.46875 357.796875 Z M 346.46875 288.304688 C 362.394531 288.304688 375.421875 301.332031 375.421875 317.257812 C 375.421875 333.183594 362.394531 346.214844 346.46875 346.214844 C 330.542969 346.214844 317.511719 333.183594 317.511719 317.257812 C 317.511719 301.332031 330.542969 288.304688 346.46875 288.304688 Z M 346.46875 288.304688 " fill-opacity="1" fill-rule="nonzero"/><path fill="#ffffff" d="M 187.210938 178.269531 C 184.023438 178.269531 181.417969 180.878906 181.417969 184.0625 C 181.417969 187.246094 184.023438 189.855469 187.210938 189.855469 L 337.78125 189.855469 C 340.964844 189.855469 343.570312 187.246094 343.570312 184.0625 C 343.570312 180.878906 340.964844 178.269531 337.78125 178.269531 Z M 187.210938 178.269531 " fill-opacity="1" fill-rule="nonzero"/><path fill="#ffffff" d="M 336.332031 213.019531 C 336.332031 209.832031 333.726562 207.226562 330.542969 207.226562 L 194.449219 207.226562 C 191.261719 207.226562 188.65625 209.832031 188.65625 213.019531 C 188.65625 216.203125 191.261719 218.808594 194.449219 218.808594 L 330.542969 218.808594 C 333.726562 218.808594 336.332031 216.203125 336.332031 213.019531 Z M 336.332031 213.019531 " fill-opacity="1" fill-rule="nonzero"/><path fill="#ffffff" d="M 117.714844 169.585938 C 129.007812 169.585938 137.984375 160.609375 137.984375 149.316406 C 137.984375 138.023438 129.007812 129.046875 117.714844 129.046875 C 106.421875 129.046875 97.445312 138.023438 97.445312 149.316406 C 97.445312 160.609375 106.421875 169.585938 117.714844 169.585938 Z M 117.714844 140.628906 C 122.636719 140.628906 126.402344 144.394531 126.402344 149.316406 C 126.402344 154.238281 122.636719 158.003906 117.714844 158.003906 C 112.792969 158.003906 109.027344 154.238281 109.027344 149.316406 C 109.027344 144.394531 112.792969 140.628906 117.714844 140.628906 Z M 117.714844 140.628906 " fill-opacity="1" fill-rule="nonzero"/><path fill="#ffffff" d="M 117.714844 352.007812 C 129.007812 352.007812 137.984375 343.03125 137.984375 331.738281 C 137.984375 320.445312 129.007812 311.46875 117.714844 311.46875 C 106.421875 311.46875 97.445312 320.445312 97.445312 331.738281 C 97.445312 343.03125 106.421875 352.007812 117.714844 352.007812 Z M 117.714844 323.050781 C 122.636719 323.050781 126.402344 326.816406 126.402344 331.738281 C 126.402344 336.660156 122.636719 340.425781 117.714844 340.425781 C 112.792969 340.425781 109.027344 336.660156 109.027344 331.738281 C 109.027344 326.816406 112.792969 323.050781 117.714844 323.050781 Z M 117.714844 323.050781 " fill-opacity="1" fill-rule="nonzero"/><path fill="#ffffff" d="M 427.542969 149.316406 C 427.542969 138.023438 418.566406 129.046875 407.273438 129.046875 C 395.980469 129.046875 387.003906 138.023438 387.003906 149.316406 C 387.003906 160.609375 395.980469 169.585938 407.273438 169.585938 C 418.566406 169.585938 427.542969 160.609375 427.542969 149.316406 Z M 398.589844 149.316406 C 398.589844 144.394531 402.351562 140.628906 407.273438 140.628906 C 412.199219 140.628906 415.960938 144.394531 415.960938 149.316406 C 415.960938 154.238281 412.199219 158.003906 407.273438 158.003906 C 402.351562 158.003906 398.589844 154.238281 398.589844 149.316406 Z M 398.589844 149.316406 " fill-opacity="1" fill-rule="nonzero"/><g clip-path="url(#2eea76cc5a)"><path fill="#ffffff" d="M 430.441406 108.777344 L 94.550781 108.777344 C 84.996094 108.777344 77.175781 116.59375 77.175781 126.152344 L 77.175781 357.796875 C 77.175781 367.355469 84.996094 375.171875 94.550781 375.171875 L 279.578125 375.171875 L 281.894531 368.222656 C 281.027344 367.351562 280.160156 366.484375 279.578125 365.617188 C 279 365.035156 278.710938 364.167969 278.421875 363.589844 L 94.550781 363.589844 C 91.367188 363.589844 88.757812 360.984375 88.757812 357.796875 L 88.757812 126.152344 C 88.757812 122.964844 91.367188 120.359375 94.550781 120.359375 L 430.441406 120.359375 C 433.625 120.359375 436.230469 122.964844 436.230469 126.152344 L 436.230469 357.796875 C 436.230469 360.984375 433.625 363.589844 430.441406 363.589844 L 414.515625 363.589844 C 414.222656 364.457031 413.644531 365.035156 413.066406 365.90625 C 412.488281 366.773438 411.617188 367.644531 410.75 368.511719 L 413.066406 375.460938 L 430.148438 375.460938 C 439.707031 375.460938 447.523438 367.644531 447.523438 358.085938 L 447.523438 126.152344 C 447.8125 116.59375 439.996094 108.777344 430.441406 108.777344 Z M 430.441406 108.777344 " fill-opacity="1" fill-rule="nonzero"/></g><path fill="#ffffff" d="M 149.566406 330 C 149.566406 330 149.566406 330.289062 149.566406 330.289062 C 149.566406 330.289062 149.566406 330.578125 149.566406 330.578125 C 149.566406 330.867188 149.566406 330.867188 149.566406 331.160156 C 149.566406 331.449219 149.566406 331.449219 149.566406 331.738281 C 149.566406 332.027344 149.566406 332.027344 149.855469 332.316406 C 149.855469 332.605469 149.855469 332.605469 150.144531 332.894531 C 150.144531 333.183594 150.4375 333.183594 150.4375 333.476562 C 150.4375 333.765625 150.726562 333.765625 150.726562 334.054688 C 150.726562 334.34375 151.015625 334.34375 151.015625 334.632812 C 151.015625 334.632812 151.304688 334.921875 151.304688 334.921875 C 151.304688 334.921875 151.59375 335.210938 151.882812 335.210938 C 151.882812 335.210938 152.171875 335.5 152.460938 335.5 C 152.753906 335.5 152.753906 335.792969 153.042969 335.792969 C 153.332031 335.792969 153.332031 336.082031 153.621094 336.082031 C 153.910156 336.082031 153.910156 336.082031 154.199219 336.371094 C 154.488281 336.371094 154.488281 336.371094 154.777344 336.371094 C 154.777344 336.371094 155.070312 336.371094 155.070312 336.371094 C 155.359375 336.371094 155.648438 336.371094 155.648438 336.371094 L 271.472656 336.371094 C 270.890625 335.5 270.601562 334.632812 270.023438 333.765625 C 268.285156 330.867188 266.550781 327.972656 265.390625 324.789062 L 160.859375 324.789062 C 158.832031 306.257812 144.644531 291.777344 126.402344 289.171875 L 126.402344 192.171875 C 144.644531 189.5625 158.832031 174.796875 160.859375 156.554688 L 364.128906 156.554688 C 366.15625 175.085938 380.347656 189.5625 398.589844 192.171875 L 398.589844 258.769531 C 398.878906 258.769531 398.878906 259.058594 399.167969 259.058594 C 402.929688 260.796875 406.984375 262.53125 410.171875 265.429688 L 410.171875 186.957031 C 410.171875 183.773438 407.5625 181.167969 404.378906 181.167969 C 388.453125 181.167969 375.421875 168.136719 375.421875 152.210938 C 375.421875 151.921875 375.421875 151.632812 375.421875 151.34375 C 375.421875 151.34375 375.421875 151.050781 375.421875 151.050781 C 375.421875 151.050781 375.421875 150.761719 375.421875 150.761719 C 375.421875 150.761719 375.421875 150.472656 375.421875 150.472656 C 375.421875 150.183594 375.421875 150.183594 375.421875 149.894531 C 375.421875 149.605469 375.421875 149.605469 375.421875 149.316406 C 375.421875 149.027344 375.421875 149.027344 375.132812 148.734375 C 375.132812 148.445312 375.132812 148.445312 374.84375 148.15625 C 374.84375 147.867188 374.554688 147.867188 374.554688 147.578125 C 374.554688 147.289062 374.265625 147.289062 374.265625 147 C 374.265625 146.710938 373.976562 146.710938 373.976562 146.417969 C 373.976562 146.417969 373.6875 146.128906 373.6875 146.128906 C 373.6875 146.128906 373.394531 145.839844 373.105469 145.839844 C 373.105469 145.839844 372.816406 145.550781 372.527344 145.550781 C 372.238281 145.550781 372.238281 145.261719 371.949219 145.261719 C 371.660156 145.261719 371.660156 144.972656 371.371094 144.972656 C 371.078125 144.972656 371.078125 144.972656 370.789062 144.683594 C 370.5 144.683594 370.5 144.683594 370.210938 144.683594 C 370.210938 144.683594 369.921875 144.683594 369.921875 144.683594 C 369.921875 144.683594 369.632812 144.683594 369.632812 144.683594 C 369.632812 144.683594 369.34375 144.683594 369.34375 144.683594 L 155.359375 144.683594 C 155.359375 144.683594 155.070312 144.683594 155.070312 144.683594 C 155.070312 144.683594 154.777344 144.683594 154.777344 144.683594 C 154.777344 144.683594 154.488281 144.683594 154.488281 144.683594 C 154.199219 144.683594 154.199219 144.683594 153.910156 144.683594 C 153.621094 144.683594 153.621094 144.683594 153.332031 144.972656 C 153.042969 144.972656 153.042969 145.261719 152.753906 145.261719 C 152.460938 145.261719 152.460938 145.550781 152.171875 145.550781 C 151.882812 145.550781 151.882812 145.839844 151.59375 145.839844 C 151.304688 145.839844 151.304688 146.128906 151.015625 146.128906 C 151.015625 146.128906 150.726562 146.417969 150.726562 146.417969 C 150.726562 146.417969 150.4375 146.710938 150.4375 147 C 150.4375 147.289062 150.144531 147.289062 150.144531 147.578125 C 150.144531 147.867188 149.855469 147.867188 149.855469 148.15625 C 149.855469 148.445312 149.855469 148.445312 149.566406 148.734375 C 149.566406 149.027344 149.566406 149.027344 149.277344 149.316406 C 149.277344 149.605469 149.277344 149.605469 149.277344 149.894531 C 149.277344 150.183594 149.277344 150.183594 149.277344 150.472656 C 149.277344 150.472656 149.277344 150.761719 149.277344 150.761719 C 149.277344 150.761719 149.277344 151.050781 149.277344 151.050781 C 149.277344 151.050781 149.277344 151.34375 149.277344 151.34375 C 149.277344 151.632812 149.277344 151.921875 149.277344 152.210938 C 149.277344 168.136719 136.246094 181.167969 120.320312 181.167969 C 117.136719 181.167969 114.53125 183.773438 114.53125 186.957031 L 114.53125 294.09375 C 114.53125 297.28125 117.136719 299.886719 120.320312 299.886719 C 136.246094 299.886719 149.277344 312.917969 149.277344 328.84375 C 149.277344 329.132812 149.277344 329.421875 149.277344 329.710938 C 149.566406 329.710938 149.566406 329.710938 149.566406 330 Z M 149.566406 330 " fill-opacity="1" fill-rule="nonzero"/></svg>