<svg xmlns="http://www.w3.org/2000/svg" xmlns:xlink="http://www.w3.org/1999/xlink" width="700" zoomAndPan="magnify" viewBox="0 0 525 525.000007" height="700" preserveAspectRatio="xMidYMid meet" version="1.0"><defs><clipPath id="47ede916ae"><path d="M 258 72.574219 L 267 72.574219 L 267 114 L 258 114 Z M 258 72.574219 " clip-rule="nonzero"/></clipPath><clipPath id="a8d0715e41"><path d="M 66.457031 123 L 458.710938 123 L 458.710938 451.351562 L 66.457031 451.351562 Z M 66.457031 123 " clip-rule="nonzero"/></clipPath></defs><g clip-path="url(#47ede916ae)"><path fill="#ffffff" d="M 262.5 113.703125 C 264.902344 113.703125 266.847656 111.757812 266.847656 109.355469 L 266.847656 76.933594 C 266.847656 74.53125 264.902344 72.585938 262.5 72.585938 C 260.089844 72.585938 258.148438 74.53125 258.148438 76.933594 L 258.148438 109.355469 C 258.148438 111.757812 260.089844 113.703125 262.5 113.703125 " fill-opacity="1" fill-rule="nonzero"/></g><path fill="#ffffff" d="M 212.441406 122.066406 C 213.292969 123.253906 214.628906 123.890625 215.988281 123.890625 C 216.863281 123.890625 217.746094 123.625 218.511719 123.078125 C 220.464844 121.6875 220.921875 118.96875 219.527344 117.011719 L 200.707031 90.617188 C 199.308594 88.660156 196.601562 88.203125 194.636719 89.601562 C 192.683594 90.996094 192.226562 93.714844 193.621094 95.667969 L 212.441406 122.066406 " fill-opacity="1" fill-rule="nonzero"/><path fill="#ffffff" d="M 157.832031 145.597656 L 186.796875 160.164062 C 187.425781 160.476562 188.09375 160.625 188.746094 160.625 C 190.339844 160.625 191.875 159.746094 192.636719 158.230469 C 193.71875 156.085938 192.851562 153.46875 190.703125 152.390625 L 161.746094 137.820312 C 159.585938 136.742188 156.980469 137.609375 155.902344 139.753906 C 154.824219 141.898438 155.6875 144.515625 157.832031 145.597656 " fill-opacity="1" fill-rule="nonzero"/><path fill="#ffffff" d="M 306.484375 123.078125 C 307.25 123.625 308.128906 123.890625 309.003906 123.890625 C 310.367188 123.890625 311.703125 123.253906 312.554688 122.066406 L 331.375 95.667969 C 332.769531 93.714844 332.3125 90.996094 330.359375 89.601562 C 328.402344 88.207031 325.6875 88.664062 324.289062 90.617188 L 305.464844 117.011719 C 304.074219 118.96875 304.527344 121.6875 306.484375 123.078125 " fill-opacity="1" fill-rule="nonzero"/><path fill="#ffffff" d="M 332.355469 158.230469 C 333.121094 159.746094 334.65625 160.625 336.246094 160.625 C 336.902344 160.625 337.574219 160.476562 338.199219 160.164062 L 367.160156 145.597656 C 369.304688 144.515625 370.171875 141.898438 369.09375 139.753906 C 368.011719 137.617188 365.398438 136.746094 363.253906 137.820312 L 334.289062 152.390625 C 332.144531 153.46875 331.277344 156.085938 332.355469 158.230469 " fill-opacity="1" fill-rule="nonzero"/><path fill="#ffffff" d="M 141.566406 285.40625 C 142.078125 285.230469 192.820312 268.660156 228.042969 295.222656 C 228.828125 295.8125 229.742188 296.101562 230.65625 296.101562 C 231.980469 296.101562 233.28125 295.503906 234.140625 294.367188 C 235.585938 292.453125 235.199219 289.722656 233.28125 288.273438 C 194.347656 258.914062 141.039062 276.410156 138.792969 277.164062 C 136.515625 277.929688 135.292969 280.394531 136.0625 282.671875 C 136.824219 284.945312 139.289062 286.179688 141.566406 285.40625 " fill-opacity="1" fill-rule="nonzero"/><path fill="#ffffff" d="M 228.042969 347.441406 C 228.828125 348.035156 229.75 348.324219 230.65625 348.324219 C 231.980469 348.324219 233.28125 347.722656 234.140625 346.589844 C 235.585938 344.671875 235.199219 341.941406 233.28125 340.496094 C 194.347656 311.140625 141.039062 328.628906 138.792969 329.382812 C 136.515625 330.15625 135.292969 332.617188 136.0625 334.894531 C 136.824219 337.167969 139.289062 338.410156 141.566406 337.632812 C 142.078125 337.457031 192.820312 320.878906 228.042969 347.441406 " fill-opacity="1" fill-rule="nonzero"/><path fill="#ffffff" d="M 290.855469 294.367188 C 291.714844 295.503906 293.011719 296.101562 294.335938 296.101562 C 295.246094 296.101562 296.167969 295.8125 296.953125 295.222656 C 332.171875 268.660156 382.914062 285.238281 383.421875 285.40625 C 385.710938 286.179688 388.164062 284.945312 388.929688 282.671875 C 389.695312 280.394531 388.476562 277.929688 386.199219 277.164062 C 383.949219 276.410156 330.648438 258.910156 291.710938 288.273438 C 289.792969 289.722656 289.414062 292.453125 290.855469 294.367188 " fill-opacity="1" fill-rule="nonzero"/><path fill="#ffffff" d="M 386.199219 329.382812 C 383.949219 328.628906 330.636719 311.136719 291.710938 340.496094 C 289.792969 341.941406 289.414062 344.671875 290.855469 346.589844 C 291.714844 347.722656 293.011719 348.324219 294.335938 348.324219 C 295.246094 348.324219 296.167969 348.035156 296.953125 347.441406 C 332.171875 320.882812 382.914062 337.457031 383.421875 337.632812 C 385.710938 338.410156 388.164062 337.171875 388.929688 334.894531 C 389.695312 332.617188 388.476562 330.15625 386.199219 329.382812 " fill-opacity="1" fill-rule="nonzero"/><g clip-path="url(#a8d0715e41)"><path fill="#ffffff" d="M 449.746094 426.230469 C 423.5625 416.050781 322.058594 381.882812 274.671875 442.710938 L 250.320312 442.710938 C 202.945312 381.886719 101.425781 416.054688 75.242188 426.230469 L 75.242188 220.5 C 78.777344 218.425781 86.976562 214.265625 96.4375 213.78125 L 96.4375 395.972656 C 96.4375 397.355469 97.101562 398.660156 98.21875 399.480469 C 99.332031 400.300781 100.777344 400.542969 102.097656 400.121094 C 103.160156 399.789062 209.273438 367.199219 259.257812 422.886719 C 259.273438 422.898438 259.285156 422.910156 259.300781 422.921875 C 259.324219 422.949219 259.351562 422.972656 259.375 423 C 259.496094 423.121094 259.613281 423.234375 259.742188 423.339844 C 259.777344 423.367188 259.8125 423.394531 259.847656 423.421875 C 260.167969 423.671875 260.519531 423.871094 260.886719 424.015625 C 260.90625 424.023438 260.921875 424.035156 260.945312 424.042969 C 260.960938 424.050781 260.980469 424.050781 261 424.058594 C 261.222656 424.140625 261.453125 424.207031 261.679688 424.25 C 261.714844 424.257812 261.746094 424.261719 261.78125 424.261719 C 262.015625 424.304688 262.257812 424.328125 262.5 424.328125 C 262.730469 424.328125 262.960938 424.304688 263.195312 424.265625 C 263.234375 424.261719 263.277344 424.257812 263.316406 424.246094 C 263.535156 424.207031 263.75 424.148438 263.957031 424.074219 C 264.007812 424.054688 264.050781 424.039062 264.097656 424.019531 C 264.308594 423.9375 264.515625 423.835938 264.710938 423.722656 C 264.738281 423.703125 264.769531 423.683594 264.796875 423.664062 C 265.136719 423.453125 265.457031 423.191406 265.734375 422.886719 C 315.726562 367.199219 421.835938 399.789062 422.890625 400.121094 C 424.222656 400.546875 425.664062 400.300781 426.773438 399.480469 C 427.890625 398.660156 428.550781 397.355469 428.550781 395.972656 L 428.550781 213.625 C 437.402344 213.320312 445.222656 213.445312 449.746094 213.582031 Z M 105.140625 194.691406 C 117.953125 191.164062 168.863281 178.777344 213.078125 190.960938 C 215.195312 197.8125 218.71875 204.199219 223.503906 209.675781 C 228.988281 215.960938 232.007812 224.398438 232.015625 233.433594 L 232.023438 247.433594 C 232.023438 249.835938 233.972656 251.78125 236.371094 251.78125 L 288.621094 251.78125 C 291.027344 251.78125 292.972656 249.835938 292.972656 247.429688 L 292.972656 232.707031 C 292.972656 224.351562 296.179688 215.960938 302.003906 209.089844 C 302.003906 209.089844 302.003906 209.089844 302.003906 209.085938 C 306.585938 203.679688 309.933594 197.527344 311.957031 190.949219 C 356.160156 178.785156 407.039062 191.164062 419.851562 194.691406 L 419.851562 390.195312 C 397.472656 384.183594 315.667969 366.222656 266.847656 409.53125 L 266.847656 271.828125 L 288.039062 271.828125 C 290.445312 271.828125 292.390625 269.882812 292.390625 267.476562 C 292.390625 265.078125 290.445312 263.128906 288.039062 263.128906 L 236.957031 263.128906 C 234.550781 263.128906 232.605469 265.078125 232.605469 267.476562 C 232.605469 269.882812 234.550781 271.828125 236.957031 271.828125 L 258.148438 271.828125 L 258.148438 409.542969 C 209.332031 366.230469 127.519531 384.179688 105.140625 390.195312 Z M 233.816406 143.570312 C 243.070312 135.296875 255.019531 131.511719 267.480469 132.898438 C 287.414062 135.132812 303.328125 151.253906 305.320312 171.234375 C 305.824219 176.308594 305.457031 181.308594 304.273438 186.078125 C 304.210938 186.261719 304.164062 186.457031 304.125 186.652344 C 302.519531 192.773438 299.566406 198.5 295.359375 203.464844 C 288.210938 211.90625 284.269531 222.292969 284.269531 232.707031 L 284.269531 243.082031 L 240.71875 243.082031 L 240.714844 233.425781 C 240.710938 222.289062 236.925781 211.824219 230.058594 203.957031 C 225.660156 198.921875 222.542969 192.964844 220.871094 186.585938 C 220.84375 186.464844 220.8125 186.34375 220.777344 186.226562 C 219.914062 182.796875 219.457031 179.253906 219.457031 175.667969 C 219.457031 163.429688 224.691406 151.734375 233.816406 143.570312 Z M 454.328125 205.050781 C 453.824219 205.019531 442.632812 204.449219 428.550781 204.917969 L 428.550781 191.421875 C 428.550781 189.523438 427.320312 187.84375 425.511719 187.273438 C 423.011719 186.488281 366.054688 168.859375 313.917969 181.464844 C 314.320312 177.828125 314.347656 174.117188 313.976562 170.371094 C 311.582031 146.332031 292.4375 126.9375 268.449219 124.253906 C 253.710938 122.582031 238.972656 127.277344 228.019531 137.085938 C 217.046875 146.898438 210.753906 160.957031 210.753906 175.667969 C 210.753906 177.613281 210.878906 179.550781 211.09375 181.46875 C 158.957031 168.863281 101.976562 186.484375 99.480469 187.273438 C 97.667969 187.84375 96.4375 189.523438 96.4375 191.421875 L 96.4375 205.050781 C 81.078125 205.632812 68.933594 214.152344 68.386719 214.539062 C 67.230469 215.355469 66.542969 216.679688 66.542969 218.09375 L 66.542969 432.703125 C 66.542969 434.167969 67.28125 435.535156 68.507812 436.339844 C 69.734375 437.148438 71.292969 437.273438 72.628906 436.6875 C 73.859375 436.148438 196.027344 383.902344 244.660156 449.648438 C 245.484375 450.757812 246.777344 451.414062 248.15625 451.414062 L 276.832031 451.414062 C 278.214844 451.414062 279.507812 450.757812 280.328125 449.648438 C 328.964844 383.90625 451.128906 436.152344 452.363281 436.6875 C 453.703125 437.273438 455.253906 437.144531 456.480469 436.339844 C 457.710938 435.535156 458.449219 434.167969 458.449219 432.703125 L 458.449219 209.390625 C 458.449219 207.078125 456.640625 205.167969 454.328125 205.050781 " fill-opacity="1" fill-rule="nonzero"/></g></svg>