<svg xmlns="http://www.w3.org/2000/svg" xmlns:xlink="http://www.w3.org/1999/xlink" width="700" zoomAndPan="magnify" viewBox="0 0 525 525.000007" height="700" preserveAspectRatio="xMidYMid meet" version="1.0"><path fill="#ffffff" d="M 165.417969 217.011719 C 181.398438 217.011719 194.421875 203.988281 194.421875 188.007812 C 194.421875 172.023438 181.398438 159 165.417969 159 C 149.433594 159 136.410156 172.023438 136.410156 188.007812 C 136.410156 203.988281 149.433594 217.011719 165.417969 217.011719 Z M 165.417969 170.839844 C 174.886719 170.839844 182.582031 178.535156 182.582031 188.007812 C 182.582031 197.476562 174.886719 205.171875 165.417969 205.171875 C 155.945312 205.171875 148.25 197.476562 148.25 188.007812 C 148.25 178.535156 155.945312 170.839844 165.417969 170.839844 Z M 165.417969 170.839844 " fill-opacity="1" fill-rule="nonzero"/><path fill="#ffffff" d="M 446 313.5 L 429.425781 313.5 C 402.789062 270.878906 403.972656 273.246094 402.789062 270.878906 L 390.359375 237.136719 C 394.5 230.035156 395.09375 221.746094 392.726562 214.050781 L 381.476562 179.128906 L 402.789062 191.558594 C 403.378906 192.148438 415.8125 209.910156 421.730469 218.789062 C 425.875 224.707031 432.976562 227.074219 439.488281 225.300781 C 450.144531 222.339844 454.878906 210.5 448.960938 201.03125 C 431.203125 172.617188 432.386719 172.617188 428.242188 170.25 C 392.132812 150.714844 379.703125 131.769531 358.390625 140.058594 C 325.835938 152.488281 290.910156 160.777344 283.804688 192.742188 L 277.886719 221.15625 L 252.433594 237.730469 C 251.25 238.324219 250.65625 239.507812 249.472656 240.097656 C 248.289062 240.097656 247.105469 240.097656 245.921875 240.691406 L 232.308594 245.425781 C 228.164062 247.203125 222.835938 246.019531 219.285156 243.058594 L 200.339844 227.667969 C 189.09375 218.195312 180.214844 222.339844 139.960938 218.789062 C 131.675781 218.195312 122.796875 221.746094 117.46875 228.257812 L 83.136719 268.511719 C 81.953125 269.695312 80.769531 271.472656 80.769531 273.839844 L 73.074219 304.621094 C 70.113281 315.277344 78.398438 325.339844 89.648438 324.746094 C 96.75 324.746094 102.671875 320.011719 104.445312 313.5 L 115.101562 281.535156 L 131.675781 263.777344 L 131.675781 300.476562 C 131.675781 304.621094 132.859375 308.765625 134.636719 312.316406 L 122.796875 418.867188 C 122.796875 421.828125 122.796875 424.195312 123.980469 426.5625 L 100.894531 426.5625 C 97.34375 426.5625 94.976562 428.929688 94.976562 432.480469 C 94.976562 436.035156 97.34375 438.402344 100.894531 438.402344 L 186.136719 438.402344 C 189.6875 438.402344 192.054688 436.035156 192.054688 432.480469 L 192.054688 380.980469 L 276.703125 380.980469 C 280.253906 380.980469 282.621094 378.613281 282.621094 375.0625 L 282.621094 325.929688 L 446 325.339844 C 449.550781 325.339844 451.921875 322.378906 451.921875 319.417969 C 451.921875 316.460938 449.550781 313.5 446 313.5 Z M 347.738281 309.355469 L 337.082031 276.207031 C 336.488281 274.429688 337.082031 272.0625 339.449219 270.878906 L 359.574219 259.039062 L 370.230469 283.902344 C 370.824219 285.085938 371.414062 286.269531 372.007812 287.453125 L 388.582031 313.5 L 347.144531 313.5 C 348.328125 312.316406 348.328125 311.132812 347.738281 309.355469 Z M 415.8125 313.5 L 402.789062 313.5 L 382.664062 281.535156 C 382.070312 280.941406 382.070312 280.351562 381.476562 279.167969 L 370.230469 252.527344 L 380.292969 247.203125 C 380.886719 247.203125 380.886719 246.609375 381.476562 246.019531 L 392.132812 274.429688 C 393.910156 279.757812 394.5 280.351562 415.8125 313.5 Z M 285.582031 230.035156 C 287.949219 228.257812 289.726562 225.890625 290.316406 222.929688 L 296.238281 194.519531 C 301.566406 169.0625 332.347656 163.144531 363.128906 150.714844 C 375.558594 145.976562 380.886719 156.632812 422.324219 180.3125 C 423.507812 181.496094 424.097656 183.269531 439.488281 207.539062 C 441.265625 210.5 439.488281 213.460938 437.121094 214.050781 C 435.34375 214.644531 433.570312 214.050781 432.386719 212.277344 C 412.257812 183.863281 413.445312 183.863281 409.890625 182.085938 L 374.964844 161.367188 C 372.597656 160.183594 370.230469 160.183594 368.457031 161.960938 C 366.679688 163.738281 365.496094 166.105469 366.679688 168.472656 L 382.070312 218.195312 C 384.4375 225.890625 380.886719 233.585938 374.375 237.730469 L 333.53125 260.222656 C 326.425781 263.777344 323.46875 272.0625 325.835938 279.757812 L 336.488281 312.90625 C 336.488281 313.5 337.082031 314.089844 337.082031 314.089844 L 324.058594 314.089844 L 311.035156 273.246094 C 308.078125 264.960938 311.035156 254.898438 319.324219 250.160156 L 343.59375 235.363281 C 345.960938 234.179688 347.144531 231.21875 345.960938 228.257812 L 330.570312 182.679688 C 329.980469 180.3125 327.609375 179.128906 325.242188 178.535156 C 322.875 178.535156 320.507812 179.71875 319.324219 181.496094 L 289.726562 238.914062 C 277.886719 244.242188 270.785156 247.792969 266.046875 250.160156 C 265.457031 247.792969 264.273438 245.425781 263.089844 243.648438 Z M 106.222656 273.246094 C 105.039062 274.429688 103.855469 276.207031 103.261719 277.984375 L 93.789062 308.765625 C 93.199219 310.539062 91.421875 311.722656 89.648438 311.722656 C 86.6875 311.722656 84.320312 309.355469 84.910156 306.394531 L 93.199219 275.613281 L 127.53125 235.363281 C 130.492188 231.8125 135.820312 229.441406 140.554688 230.035156 C 181.992188 232.996094 187.320312 230.625 193.832031 235.953125 L 212.773438 251.34375 C 219.285156 256.671875 228.753906 258.449219 237.042969 255.488281 L 250.65625 250.753906 C 252.433594 250.160156 254.800781 251.34375 254.800781 253.121094 C 254.800781 254.898438 254.210938 256.082031 252.433594 256.671875 L 232.898438 263.777344 C 225.796875 266.144531 218.101562 264.960938 212.179688 260.816406 L 190.871094 246.019531 C 189.09375 244.832031 186.726562 244.832031 184.949219 245.425781 C 183.175781 246.609375 181.992188 248.386719 181.992188 250.753906 L 180.214844 299.292969 C 180.214844 302.253906 181.992188 304.621094 184.949219 305.210938 L 212.773438 312.316406 C 221.652344 314.683594 227.570312 322.972656 227.570312 332.441406 L 227.570312 370.328125 L 215.140625 370.328125 L 215.140625 343.097656 C 215.140625 335.402344 209.8125 328.890625 202.117188 327.113281 L 156.539062 317.050781 C 148.84375 315.277344 143.515625 308.765625 143.515625 301.070312 L 143.515625 248.976562 C 143.515625 246.609375 141.738281 244.242188 139.964844 243.648438 C 137.59375 243.058594 135.226562 243.648438 133.453125 245.425781 Z M 153.578125 327.707031 L 161.273438 329.484375 L 147.066406 421.234375 C 146.472656 424.195312 143.515625 426.5625 140.554688 426.5625 C 137.003906 426.5625 134.636719 423.011719 134.636719 420.050781 L 144.699219 324.15625 C 147.660156 325.929688 150.617188 327.113281 153.578125 327.707031 Z M 186.136719 369.734375 C 182.582031 369.734375 180.214844 372.101562 180.214844 375.65625 L 180.214844 427.152344 L 157.128906 427.152344 C 157.722656 425.96875 157.722656 424.785156 158.3125 423.601562 L 172.519531 332.441406 L 199.15625 338.363281 C 201.527344 338.953125 202.710938 340.730469 202.710938 343.097656 L 202.710938 370.328125 L 186.136719 370.328125 Z M 276.703125 314.089844 C 273.152344 314.089844 270.785156 316.460938 270.785156 320.011719 L 270.785156 369.144531 L 238.820312 369.144531 L 238.820312 331.851562 C 239.410156 317.050781 229.9375 303.4375 215.140625 299.886719 L 192.054688 293.964844 L 192.644531 261.410156 L 204.484375 269.695312 C 213.363281 276.207031 225.203125 277.984375 235.859375 274.429688 L 255.984375 267.328125 C 258.351562 266.734375 260.71875 264.960938 262.496094 263.183594 C 269.007812 262.59375 273.152344 257.855469 294.460938 248.976562 C 296.828125 247.792969 298.605469 246.019531 299.789062 243.648438 L 323.46875 198.660156 L 332.9375 226.484375 L 312.8125 240.097656 C 300.382812 247.792969 295.054688 263.777344 299.789062 277.390625 L 311.628906 314.089844 Z M 276.703125 314.089844 " fill-opacity="1" fill-rule="nonzero"/><path fill="#ffffff" d="M 352.472656 131.179688 C 356.023438 124.074219 356.617188 116.378906 354.25 109.277344 C 349.511719 93.886719 333.53125 85.597656 318.140625 90.335938 C 302.75 95.070312 294.460938 111.644531 299.199219 126.445312 C 306.894531 151.304688 340.632812 154.265625 352.472656 131.179688 Z M 321.691406 101.582031 C 330.570312 98.621094 340.042969 103.949219 343 112.828125 C 344.183594 116.972656 344.183594 121.707031 341.816406 125.851562 C 334.714844 139.464844 315.179688 137.691406 310.445312 122.890625 C 308.078125 114.011719 312.8125 104.542969 321.691406 101.582031 Z M 321.691406 101.582031 " fill-opacity="1" fill-rule="nonzero"/></svg>