<svg xmlns="http://www.w3.org/2000/svg" xmlns:xlink="http://www.w3.org/1999/xlink" width="700" zoomAndPan="magnify" viewBox="0 0 525 525.000007" height="700" preserveAspectRatio="xMidYMid meet" version="1.0"><defs><clipPath id="657fcfde34"><path d="M 350 93 L 454.878906 93 L 454.878906 271 L 350 271 Z M 350 93 " clip-rule="nonzero"/></clipPath><clipPath id="a355c06044"><path d="M 70.113281 253 L 191 253 L 191 431 L 70.113281 431 Z M 70.113281 253 " clip-rule="nonzero"/></clipPath></defs><g clip-path="url(#657fcfde34)"><path fill="#ffffff" d="M 355.5 244.804688 L 414.160156 124.003906 L 400.222656 117.742188 L 441.359375 93.210938 L 454.878906 138.597656 L 441.167969 133.191406 L 373.761719 270.121094 L 350.285156 260.011719 Z M 355.5 244.804688 " fill-opacity="1" fill-rule="nonzero"/></g><path fill="#ffffff" d="M 305.511719 199.328125 L 341.136719 270.195312 L 373.738281 270.195312 L 325.925781 173.707031 Z M 305.511719 199.328125 " fill-opacity="1" fill-rule="nonzero"/><path fill="#ffffff" d="M 293.257812 173.707031 L 205.84375 350.339844 L 237.9375 350.519531 L 325.929688 173.707031 Z M 293.257812 173.707031 " fill-opacity="1" fill-rule="nonzero"/><path fill="#ffffff" d="M 169.761719 279.578125 L 205.386719 350.445312 L 237.992188 350.445312 L 190.175781 253.957031 Z M 169.761719 279.578125 " fill-opacity="1" fill-rule="nonzero"/><g clip-path="url(#a355c06044)"><path fill="#ffffff" d="M 157.527344 253.957031 L 70.113281 430.589844 L 102.199219 430.769531 L 190.195312 253.957031 Z M 157.527344 253.957031 " fill-opacity="1" fill-rule="nonzero"/></g></svg>