<svg xmlns="http://www.w3.org/2000/svg" xmlns:xlink="http://www.w3.org/1999/xlink" width="700" zoomAndPan="magnify" viewBox="0 0 525 525.000007" height="700" preserveAspectRatio="xMidYMid meet" version="1.0"><path fill="#ffffff" d="M 381.332031 430.757812 C 380.355469 430.753906 379.417969 430.554688 378.519531 430.167969 L 261.796875 378.570312 L 145.621094 430.152344 C 145.011719 430.417969 144.375 430.597656 143.714844 430.683594 C 143.054688 430.773438 142.394531 430.769531 141.738281 430.671875 C 141.078125 430.574219 140.445312 430.390625 139.839844 430.113281 C 139.234375 429.839844 138.675781 429.488281 138.167969 429.054688 C 137.664062 428.621094 137.230469 428.125 136.867188 427.566406 C 136.503906 427.007812 136.226562 426.410156 136.035156 425.773438 C 135.839844 425.136719 135.742188 424.484375 135.734375 423.816406 C 135.726562 423.152344 135.808594 422.496094 135.988281 421.855469 L 166.925781 309.84375 L 81.140625 226.222656 C 80.667969 225.761719 80.269531 225.246094 79.941406 224.671875 C 79.613281 224.097656 79.371094 223.488281 79.214844 222.847656 C 79.058594 222.203125 78.996094 221.554688 79.023438 220.894531 C 79.050781 220.234375 79.171875 219.589844 79.378906 218.960938 C 79.589844 218.335938 79.878906 217.75 80.253906 217.207031 C 80.628906 216.660156 81.070312 216.179688 81.582031 215.757812 C 82.09375 215.339844 82.652344 214.996094 83.257812 214.734375 C 83.863281 214.472656 84.496094 214.300781 85.148438 214.214844 L 203.503906 199 L 257.324219 97 C 257.613281 96.417969 257.976562 95.890625 258.414062 95.414062 C 258.855469 94.9375 259.351562 94.53125 259.910156 94.199219 C 260.464844 93.867188 261.054688 93.617188 261.683594 93.457031 C 262.3125 93.292969 262.949219 93.222656 263.597656 93.242188 C 264.246094 93.253906 264.878906 93.347656 265.503906 93.53125 C 266.125 93.71875 266.710938 93.980469 267.257812 94.328125 C 267.804688 94.675781 268.296875 95.089844 268.730469 95.570312 C 269.164062 96.054688 269.527344 96.585938 269.8125 97.167969 L 321.746094 202.402344 C 321.949219 202.816406 322.113281 203.25 322.230469 203.695312 C 322.347656 204.140625 322.421875 204.597656 322.449219 205.058594 C 322.480469 205.519531 322.464844 205.980469 322.402344 206.4375 C 322.339844 206.898438 322.234375 207.34375 322.085938 207.78125 C 321.9375 208.21875 321.746094 208.636719 321.511719 209.039062 C 321.28125 209.4375 321.011719 209.8125 320.707031 210.160156 C 320.398438 210.507812 320.0625 210.820312 319.695312 211.101562 C 319.328125 211.382812 318.9375 211.625 318.523438 211.828125 C 318.109375 212.03125 317.675781 212.195312 317.230469 212.3125 C 316.78125 212.433594 316.328125 212.507812 315.867188 212.535156 C 315.40625 212.566406 314.945312 212.550781 314.488281 212.488281 C 314.027344 212.429688 313.582031 212.324219 313.140625 212.175781 C 312.703125 212.023438 312.285156 211.835938 311.886719 211.601562 C 311.484375 211.371094 311.109375 211.101562 310.761719 210.796875 C 310.414062 210.492188 310.101562 210.15625 309.820312 209.789062 C 309.539062 209.421875 309.296875 209.03125 309.089844 208.617188 L 263.300781 115.746094 L 214.207031 208.785156 C 213.671875 209.800781 212.933594 210.632812 211.992188 211.285156 C 211.050781 211.941406 210.015625 212.339844 208.878906 212.484375 L 101.335938 226.308594 L 179.683594 302.671875 C 180.132812 303.109375 180.515625 303.601562 180.835938 304.144531 C 181.15625 304.6875 181.398438 305.261719 181.5625 305.867188 C 181.726562 306.476562 181.808594 307.09375 181.804688 307.722656 C 181.804688 308.351562 181.71875 308.96875 181.550781 309.578125 L 153.425781 411.265625 L 258.785156 364.449219 C 259.695312 364.050781 260.644531 363.847656 261.636719 363.847656 C 262.625 363.847656 263.574219 364.050781 264.484375 364.449219 L 370.449219 411.265625 L 341.800781 309.632812 C 341.628906 309.023438 341.542969 308.402344 341.539062 307.769531 C 341.535156 307.136719 341.617188 306.511719 341.78125 305.902344 C 341.945312 305.289062 342.1875 304.710938 342.507812 304.164062 C 342.832031 303.621094 343.21875 303.125 343.671875 302.683594 L 422.171875 226.167969 L 380.375 220.867188 C 379.914062 220.8125 379.464844 220.710938 379.023438 220.566406 C 378.582031 220.421875 378.160156 220.238281 377.757812 220.011719 C 377.351562 219.78125 376.972656 219.515625 376.621094 219.214844 C 376.269531 218.910156 375.953125 218.578125 375.667969 218.210938 C 375.378906 217.847656 375.132812 217.457031 374.925781 217.042969 C 374.71875 216.625 374.550781 216.195312 374.429688 215.75 C 374.304688 215.300781 374.226562 214.84375 374.195312 214.382812 C 374.160156 213.917969 374.175781 213.457031 374.234375 212.996094 C 374.292969 212.539062 374.394531 212.085938 374.542969 211.648438 C 374.6875 211.207031 374.878906 210.785156 375.109375 210.382812 C 375.339844 209.980469 375.609375 209.605469 375.914062 209.257812 C 376.21875 208.90625 376.554688 208.589844 376.925781 208.308594 C 377.292969 208.027344 377.683594 207.78125 378.101562 207.578125 C 378.515625 207.371094 378.949219 207.210938 379.398438 207.089844 C 379.84375 206.96875 380.300781 206.894531 380.765625 206.867188 C 381.226562 206.835938 381.6875 206.855469 382.148438 206.914062 L 438.402344 214.046875 C 439.058594 214.128906 439.6875 214.300781 440.296875 214.5625 C 440.902344 214.824219 441.460938 215.164062 441.972656 215.585938 C 442.484375 216.003906 442.929688 216.484375 443.304688 217.03125 C 443.679688 217.574219 443.972656 218.160156 444.183594 218.789062 C 444.390625 219.414062 444.511719 220.058594 444.539062 220.71875 C 444.566406 221.378906 444.503906 222.03125 444.347656 222.675781 C 444.191406 223.316406 443.953125 223.925781 443.625 224.5 C 443.296875 225.074219 442.898438 225.59375 442.421875 226.054688 L 356.554688 309.816406 L 388.097656 421.8125 C 388.246094 422.335938 388.332031 422.871094 388.355469 423.414062 C 388.378906 423.953125 388.339844 424.492188 388.242188 425.027344 C 388.140625 425.5625 387.980469 426.078125 387.761719 426.574219 C 387.539062 427.070312 387.265625 427.535156 386.9375 427.96875 C 386.613281 428.402344 386.238281 428.792969 385.820312 429.136719 C 385.402344 429.484375 384.949219 429.78125 384.464844 430.023438 C 383.976562 430.261719 383.46875 430.445312 382.941406 430.570312 C 382.414062 430.695312 381.875 430.757812 381.332031 430.757812 Z M 381.332031 430.757812 " fill-opacity="1" fill-rule="nonzero"/><path fill="#ffffff" d="M 261.796875 346.378906 C 260.417969 346.378906 259.035156 346.335938 257.660156 346.253906 C 256.28125 346.175781 254.90625 346.050781 253.535156 345.890625 C 252.164062 345.726562 250.800781 345.523438 249.441406 345.28125 C 248.082031 345.035156 246.730469 344.753906 245.386719 344.429688 C 244.046875 344.109375 242.714844 343.746094 241.394531 343.34375 C 240.074219 342.945312 238.765625 342.503906 237.46875 342.027344 C 236.175781 341.546875 234.894531 341.03125 233.628906 340.480469 C 232.367188 339.925781 231.117188 339.335938 229.886719 338.707031 C 228.660156 338.082031 227.449219 337.417969 226.257812 336.71875 C 225.066406 336.019531 223.898438 335.289062 222.75 334.519531 C 221.601562 333.753906 220.476562 332.953125 219.375 332.121094 C 218.277344 331.285156 217.199219 330.421875 216.152344 329.523438 C 215.101562 328.628906 214.078125 327.703125 213.085938 326.746094 C 212.089844 325.789062 211.125 324.800781 210.1875 323.789062 C 209.25 322.773438 208.34375 321.734375 207.46875 320.667969 C 206.589844 319.601562 205.75 318.507812 204.9375 317.390625 C 204.125 316.273438 203.347656 315.132812 202.601562 313.972656 C 201.859375 312.808594 201.148438 311.625 200.476562 310.421875 C 199.800781 309.214844 199.164062 307.992188 198.558594 306.75 C 197.957031 305.507812 197.390625 304.25 196.863281 302.972656 C 196.335938 301.699219 195.84375 300.410156 195.390625 299.105469 C 194.941406 297.800781 194.527344 296.484375 194.152344 295.15625 C 193.777344 293.828125 193.441406 292.488281 193.144531 291.140625 C 192.847656 289.789062 192.59375 288.433594 192.378906 287.070312 C 192.160156 285.707031 191.984375 284.339844 191.851562 282.964844 C 191.714844 281.589844 191.621094 280.214844 191.566406 278.835938 C 191.511719 277.457031 191.496094 276.074219 191.523438 274.695312 C 191.550781 273.316406 191.617188 271.9375 191.726562 270.5625 C 191.835938 269.183594 191.984375 267.8125 192.171875 266.445312 C 192.359375 265.078125 192.589844 263.71875 192.859375 262.363281 C 193.128906 261.007812 193.4375 259.664062 193.785156 258.328125 C 194.132812 256.992188 194.519531 255.667969 194.945312 254.355469 C 195.371094 253.042969 195.835938 251.742188 196.339844 250.457031 C 196.84375 249.171875 197.382812 247.902344 197.960938 246.648438 C 198.539062 245.394531 199.152344 244.15625 199.800781 242.9375 C 200.453125 241.722656 201.136719 240.523438 201.859375 239.347656 C 202.578125 238.167969 203.335938 237.015625 204.121094 235.882812 C 204.910156 234.75 205.734375 233.640625 206.585938 232.554688 C 207.441406 231.472656 208.328125 230.414062 209.242188 229.378906 C 210.160156 228.347656 211.105469 227.34375 212.082031 226.367188 C 213.058594 225.390625 214.0625 224.441406 215.09375 223.523438 C 216.125 222.609375 217.183594 221.722656 218.265625 220.867188 C 219.351562 220.011719 220.457031 219.1875 221.589844 218.398438 C 222.722656 217.609375 223.875 216.851562 225.054688 216.128906 C 226.230469 215.410156 227.425781 214.722656 228.644531 214.070312 C 229.859375 213.417969 231.097656 212.804688 232.351562 212.226562 C 233.601562 211.644531 234.871094 211.105469 236.15625 210.601562 C 237.441406 210.097656 238.742188 209.632812 240.054688 209.203125 C 241.367188 208.777344 242.691406 208.386719 244.027344 208.039062 C 245.363281 207.6875 246.707031 207.378906 248.0625 207.109375 C 249.414062 206.839844 250.773438 206.609375 252.144531 206.417969 C 253.511719 206.226562 254.882812 206.078125 256.257812 205.96875 C 257.632812 205.859375 259.011719 205.792969 260.394531 205.761719 C 261.773438 205.734375 263.152344 205.746094 264.53125 205.800781 C 265.910156 205.855469 267.289062 205.949219 268.664062 206.082031 C 270.035156 206.214844 271.40625 206.390625 272.769531 206.605469 C 274.132812 206.820312 275.488281 207.074219 276.835938 207.371094 C 278.1875 207.664062 279.523438 208 280.855469 208.371094 C 282.183594 208.746094 283.5 209.15625 284.804688 209.609375 C 286.109375 210.058594 287.398438 210.550781 288.675781 211.078125 C 289.953125 211.605469 291.210938 212.167969 292.453125 212.769531 C 293.695312 213.371094 294.921875 214.007812 296.125 214.679688 C 297.332031 215.355469 298.515625 216.0625 299.679688 216.804688 C 300.839844 217.550781 301.980469 218.324219 303.101562 219.136719 C 303.472656 219.40625 303.816406 219.714844 304.132812 220.050781 C 304.445312 220.390625 304.722656 220.757812 304.964844 221.152344 C 305.207031 221.546875 305.40625 221.960938 305.566406 222.394531 C 305.726562 222.828125 305.84375 223.273438 305.917969 223.726562 C 305.988281 224.183594 306.015625 224.644531 305.996094 225.105469 C 305.980469 225.566406 305.917969 226.023438 305.808594 226.472656 C 305.703125 226.921875 305.550781 227.355469 305.359375 227.777344 C 305.164062 228.195312 304.933594 228.59375 304.660156 228.964844 C 304.390625 229.339844 304.085938 229.683594 303.746094 230 C 303.40625 230.3125 303.039062 230.589844 302.644531 230.832031 C 302.25 231.074219 301.835938 231.273438 301.402344 231.433594 C 300.96875 231.59375 300.527344 231.710938 300.070312 231.78125 C 299.613281 231.855469 299.152344 231.882812 298.691406 231.863281 C 298.230469 231.847656 297.773438 231.785156 297.324219 231.675781 C 296.875 231.570312 296.441406 231.417969 296.019531 231.226562 C 295.601562 231.03125 295.203125 230.800781 294.832031 230.527344 C 293.988281 229.914062 293.125 229.328125 292.25 228.761719 C 291.371094 228.195312 290.480469 227.65625 289.570312 227.140625 C 288.664062 226.625 287.742188 226.136719 286.808594 225.671875 C 285.875 225.210938 284.929688 224.773438 283.96875 224.359375 C 283.011719 223.949219 282.042969 223.566406 281.0625 223.207031 C 280.082031 222.851562 279.089844 222.519531 278.09375 222.21875 C 277.09375 221.917969 276.089844 221.640625 275.074219 221.394531 C 274.058594 221.148438 273.039062 220.929688 272.015625 220.742188 C 270.988281 220.550781 269.957031 220.390625 268.921875 220.257812 C 267.886719 220.128906 266.851562 220.023438 265.808594 219.949219 C 264.769531 219.875 263.726562 219.828125 262.683594 219.8125 C 261.640625 219.796875 260.597656 219.808594 259.554688 219.851562 C 258.515625 219.890625 257.472656 219.964844 256.433594 220.0625 C 255.394531 220.160156 254.363281 220.289062 253.328125 220.445312 C 252.296875 220.605469 251.273438 220.789062 250.25 221.003906 C 249.230469 221.21875 248.214844 221.460938 247.207031 221.730469 C 246.199219 222 245.203125 222.300781 244.210938 222.625 C 243.21875 222.953125 242.238281 223.304688 241.265625 223.6875 C 240.296875 224.066406 239.335938 224.472656 238.386719 224.910156 C 237.4375 225.34375 236.503906 225.804688 235.578125 226.289062 C 234.65625 226.777344 233.746094 227.285156 232.851562 227.824219 C 231.957031 228.359375 231.078125 228.921875 230.214844 229.507812 C 229.351562 230.09375 228.507812 230.703125 227.675781 231.335938 C 226.847656 231.96875 226.035156 232.625 225.242188 233.300781 C 224.449219 233.980469 223.675781 234.679688 222.921875 235.398438 C 222.167969 236.121094 221.433594 236.863281 220.722656 237.625 C 220.007812 238.386719 219.320312 239.167969 218.648438 239.964844 C 217.980469 240.765625 217.332031 241.585938 216.710938 242.421875 C 216.085938 243.257812 215.484375 244.109375 214.910156 244.980469 C 214.332031 245.847656 213.78125 246.734375 213.253906 247.636719 C 212.726562 248.535156 212.226562 249.449219 211.75 250.378906 C 211.273438 251.304688 210.820312 252.246094 210.398438 253.199219 C 209.972656 254.152344 209.578125 255.117188 209.207031 256.09375 C 208.835938 257.066406 208.492188 258.054688 208.179688 259.046875 C 207.863281 260.042969 207.574219 261.042969 207.316406 262.054688 C 207.054688 263.066406 206.824219 264.082031 206.621094 265.105469 C 206.417969 266.128906 206.242188 267.15625 206.097656 268.191406 C 205.953125 269.222656 205.835938 270.257812 205.746094 271.296875 C 205.65625 272.339844 205.597656 273.378906 205.566406 274.421875 C 205.539062 275.464844 205.535156 276.507812 205.5625 277.550781 C 205.589844 278.59375 205.648438 279.636719 205.734375 280.675781 C 205.820312 281.714844 205.933594 282.75 206.078125 283.785156 C 206.21875 284.816406 206.390625 285.847656 206.59375 286.871094 C 206.792969 287.894531 207.023438 288.910156 207.28125 289.921875 C 207.535156 290.933594 207.820312 291.9375 208.132812 292.933594 C 208.449219 293.925781 208.789062 294.914062 209.15625 295.890625 C 209.523438 296.867188 209.917969 297.832031 210.339844 298.785156 C 210.761719 299.738281 211.207031 300.679688 211.683594 301.609375 C 212.15625 302.539062 212.65625 303.457031 213.179688 304.359375 C 213.707031 305.257812 214.253906 306.144531 214.828125 307.015625 C 215.402344 307.886719 216 308.742188 216.621094 309.578125 C 217.246094 310.417969 217.890625 311.238281 218.554688 312.039062 C 219.222656 312.839844 219.914062 313.625 220.625 314.386719 C 221.335938 315.152344 222.066406 315.894531 222.816406 316.617188 C 223.570312 317.339844 224.34375 318.042969 225.132812 318.722656 C 225.925781 319.402344 226.734375 320.058594 227.5625 320.695312 C 228.390625 321.328125 229.234375 321.941406 230.097656 322.527344 C 230.957031 323.117188 231.835938 323.679688 232.730469 324.21875 C 233.621094 324.757812 234.53125 325.273438 235.453125 325.761719 C 236.375 326.25 237.308594 326.710938 238.253906 327.148438 C 239.203125 327.585938 240.160156 327.996094 241.132812 328.378906 C 242.101562 328.761719 243.082031 329.117188 244.074219 329.445312 C 245.0625 329.773438 246.0625 330.074219 247.070312 330.347656 C 248.074219 330.621094 249.089844 330.867188 250.109375 331.082031 C 251.128906 331.300781 252.15625 331.488281 253.1875 331.648438 C 254.21875 331.808594 255.253906 331.9375 256.289062 332.039062 C 257.328125 332.144531 258.371094 332.214844 259.410156 332.261719 C 260.453125 332.304688 261.496094 332.320312 262.539062 332.304688 C 263.582031 332.292969 264.625 332.25 265.664062 332.179688 C 266.707031 332.105469 267.746094 332.003906 268.78125 331.875 C 269.816406 331.746094 270.847656 331.589844 271.871094 331.402344 C 272.898438 331.214844 273.917969 331 274.933594 330.753906 C 275.949219 330.511719 276.953125 330.242188 277.953125 329.941406 C 278.953125 329.640625 279.945312 329.3125 280.925781 328.957031 C 281.90625 328.605469 282.875 328.222656 283.835938 327.8125 C 284.796875 327.40625 285.742188 326.96875 286.679688 326.507812 C 287.613281 326.046875 288.539062 325.558594 289.445312 325.046875 C 290.355469 324.535156 291.246094 323.996094 292.125 323.433594 C 293.003906 322.871094 293.867188 322.285156 294.714844 321.675781 C 295.558594 321.0625 296.386719 320.429688 297.199219 319.773438 C 298.007812 319.117188 298.800781 318.4375 299.574219 317.738281 C 300.347656 317.039062 301.101562 316.316406 301.832031 315.574219 C 302.566406 314.832031 303.277344 314.070312 303.96875 313.285156 C 304.660156 312.503906 305.328125 311.703125 305.972656 310.882812 C 306.617188 310.066406 307.242188 309.226562 307.839844 308.375 C 308.441406 307.519531 309.015625 306.652344 309.566406 305.765625 C 310.117188 304.878906 310.644531 303.976562 311.144531 303.0625 C 311.644531 302.148438 312.121094 301.21875 312.570312 300.277344 C 313.015625 299.335938 313.441406 298.382812 313.835938 297.417969 C 314.234375 296.453125 314.601562 295.476562 314.941406 294.492188 C 315.285156 293.503906 315.597656 292.511719 315.886719 291.507812 C 316.171875 290.503906 316.429688 289.496094 316.660156 288.476562 C 316.890625 287.460938 317.09375 286.4375 317.265625 285.40625 C 317.441406 284.378906 317.585938 283.347656 317.699219 282.308594 C 317.816406 281.273438 317.902344 280.234375 317.960938 279.191406 C 318.019531 278.148438 318.050781 277.105469 318.050781 276.0625 C 318.050781 275.601562 318.09375 275.144531 318.183594 274.691406 C 318.273438 274.238281 318.40625 273.800781 318.585938 273.375 C 318.761719 272.945312 318.976562 272.542969 319.234375 272.15625 C 319.492188 271.773438 319.78125 271.417969 320.109375 271.09375 C 320.433594 270.765625 320.789062 270.472656 321.175781 270.21875 C 321.558594 269.960938 321.964844 269.746094 322.390625 269.566406 C 322.816406 269.390625 323.257812 269.257812 323.707031 269.167969 C 324.160156 269.078125 324.617188 269.03125 325.082031 269.03125 C 325.542969 269.03125 326 269.078125 326.453125 269.167969 C 326.90625 269.257812 327.34375 269.390625 327.769531 269.566406 C 328.199219 269.746094 328.601562 269.960938 328.988281 270.21875 C 329.371094 270.472656 329.726562 270.765625 330.050781 271.09375 C 330.378906 271.417969 330.671875 271.773438 330.925781 272.15625 C 331.183594 272.542969 331.398438 272.945312 331.578125 273.375 C 331.753906 273.800781 331.886719 274.238281 331.976562 274.691406 C 332.066406 275.144531 332.113281 275.601562 332.113281 276.0625 C 332.109375 277.214844 332.082031 278.363281 332.023438 279.511719 C 331.964844 280.660156 331.878906 281.808594 331.765625 282.953125 C 331.652344 284.097656 331.511719 285.238281 331.339844 286.378906 C 331.171875 287.515625 330.972656 288.648438 330.746094 289.777344 C 330.523438 290.902344 330.269531 292.027344 329.988281 293.140625 C 329.707031 294.257812 329.398438 295.367188 329.066406 296.464844 C 328.730469 297.566406 328.371094 298.660156 327.980469 299.742188 C 327.59375 300.824219 327.179688 301.898438 326.738281 302.960938 C 326.296875 304.023438 325.828125 305.074219 325.335938 306.113281 C 324.84375 307.152344 324.328125 308.179688 323.785156 309.195312 C 323.242188 310.207031 322.675781 311.207031 322.082031 312.195312 C 321.492188 313.179688 320.875 314.152344 320.234375 315.109375 C 319.597656 316.066406 318.933594 317.003906 318.25 317.929688 C 317.5625 318.851562 316.855469 319.761719 316.125 320.648438 C 315.394531 321.539062 314.644531 322.410156 313.871094 323.261719 C 313.097656 324.113281 312.304688 324.945312 311.492188 325.761719 C 310.679688 326.574219 309.847656 327.367188 308.992188 328.140625 C 308.140625 328.910156 307.269531 329.664062 306.382812 330.394531 C 305.492188 331.121094 304.585938 331.832031 303.660156 332.515625 C 302.738281 333.203125 301.796875 333.863281 300.84375 334.503906 C 299.886719 335.144531 298.914062 335.757812 297.925781 336.351562 C 296.941406 336.941406 295.941406 337.507812 294.925781 338.050781 C 293.910156 338.59375 292.886719 339.113281 291.84375 339.605469 C 290.804688 340.097656 289.753906 340.5625 288.691406 341.003906 C 287.628906 341.445312 286.558594 341.859375 285.472656 342.25 C 284.390625 342.636719 283.300781 342.996094 282.199219 343.332031 C 281.097656 343.667969 279.988281 343.976562 278.875 344.253906 C 277.757812 344.535156 276.636719 344.789062 275.507812 345.015625 C 274.378906 345.238281 273.246094 345.4375 272.109375 345.609375 C 270.972656 345.777344 269.832031 345.917969 268.6875 346.035156 C 267.542969 346.148438 266.394531 346.234375 265.246094 346.289062 C 264.097656 346.347656 262.945312 346.378906 261.796875 346.378906 Z M 261.796875 346.378906 " fill-opacity="1" fill-rule="nonzero"/><path fill="#ffffff" d="M 261.796875 318.253906 C 260.78125 318.253906 259.816406 318.042969 258.894531 317.621094 C 257.96875 317.203125 257.175781 316.613281 256.507812 315.847656 L 221.351562 275.671875 C 221.066406 275.320312 220.820312 274.945312 220.609375 274.546875 C 220.398438 274.152344 220.226562 273.738281 220.097656 273.308594 C 219.964844 272.875 219.875 272.4375 219.828125 271.988281 C 219.78125 271.542969 219.777344 271.09375 219.816406 270.644531 C 219.851562 270.195312 219.933594 269.757812 220.058594 269.324219 C 220.179688 268.890625 220.34375 268.472656 220.546875 268.070312 C 220.75 267.671875 220.992188 267.292969 221.265625 266.9375 C 221.542969 266.582031 221.851562 266.253906 222.191406 265.957031 C 222.527344 265.664062 222.890625 265.402344 223.28125 265.175781 C 223.671875 264.949219 224.078125 264.761719 224.503906 264.613281 C 224.925781 264.464844 225.363281 264.355469 225.808594 264.292969 C 226.253906 264.226562 226.699219 264.207031 227.148438 264.226562 C 227.601562 264.246094 228.042969 264.3125 228.480469 264.417969 C 228.917969 264.523438 229.339844 264.671875 229.75 264.859375 C 230.160156 265.046875 230.546875 265.269531 230.914062 265.535156 C 231.28125 265.796875 231.617188 266.089844 231.925781 266.417969 L 261.640625 300.363281 L 407.292969 123.929688 C 407.585938 123.574219 407.914062 123.25 408.269531 122.957031 C 408.628906 122.664062 409.011719 122.410156 409.417969 122.191406 C 409.824219 121.976562 410.25 121.800781 410.691406 121.667969 C 411.136719 121.535156 411.585938 121.445312 412.046875 121.402344 C 412.503906 121.355469 412.964844 121.355469 413.425781 121.402344 C 413.882812 121.449219 414.335938 121.539062 414.777344 121.675781 C 415.21875 121.808594 415.640625 121.988281 416.050781 122.203125 C 416.457031 122.421875 416.835938 122.679688 417.195312 122.972656 C 417.550781 123.265625 417.875 123.59375 418.167969 123.949219 C 418.460938 124.308594 418.714844 124.691406 418.929688 125.097656 C 419.148438 125.503906 419.324219 125.929688 419.457031 126.371094 C 419.589844 126.816406 419.679688 127.265625 419.722656 127.726562 C 419.765625 128.183594 419.765625 128.644531 419.71875 129.105469 C 419.671875 129.5625 419.582031 130.015625 419.449219 130.457031 C 419.3125 130.898438 419.136719 131.320312 418.917969 131.726562 C 418.699219 132.136719 418.445312 132.515625 418.148438 132.875 L 267.226562 315.695312 C 266.566406 316.492188 265.773438 317.113281 264.84375 317.5625 C 263.910156 318.007812 262.929688 318.238281 261.894531 318.253906 Z M 261.796875 318.253906 " fill-opacity="1" fill-rule="nonzero"/></svg>