<svg xmlns="http://www.w3.org/2000/svg" xmlns:xlink="http://www.w3.org/1999/xlink" width="700" zoomAndPan="magnify" viewBox="0 0 525 525.000007" height="700" preserveAspectRatio="xMidYMid meet" version="1.0"><defs><clipPath id="68fda2249a"><path d="M 22.824219 22.324219 L 501.910156 22.324219 L 501.910156 501.410156 L 22.824219 501.410156 Z M 22.824219 22.324219 " clip-rule="nonzero"/></clipPath></defs><g clip-path="url(#68fda2249a)"><path fill="#000000" d="M 262.367188 22.324219 C 130.289062 22.324219 22.824219 129.789062 22.824219 261.851562 C 22.824219 393.949219 130.289062 501.410156 262.367188 501.410156 C 394.445312 501.410156 501.910156 393.949219 501.910156 261.851562 C 501.910156 129.789062 394.445312 22.324219 262.367188 22.324219 Z M 262.367188 469.109375 C 148.089844 469.109375 55.125 376.125 55.125 261.851562 C 55.125 147.578125 148.089844 54.625 262.367188 54.625 C 376.644531 54.625 469.609375 147.578125 469.609375 261.851562 C 469.609375 376.125 376.644531 469.109375 262.367188 469.109375 Z M 262.367188 469.109375 " fill-opacity="1" fill-rule="nonzero"/></g><path fill="#000000" d="M 268.089844 249.011719 C 230.347656 241.601562 212.574219 236.019531 212.574219 217.121094 C 212.574219 203.460938 218.488281 193.972656 230.644531 188.074219 C 251.78125 177.851562 286.855469 181.828125 305.699219 196.652344 C 312.730469 202.207031 322.871094 200.976562 328.375 193.9375 C 333.894531 186.9375 332.679688 176.78125 325.660156 171.292969 C 312.757812 161.148438 295.972656 154.6875 278.507812 151.820312 L 278.507812 123.128906 C 278.507812 114.203125 271.285156 106.980469 262.355469 106.980469 C 253.429688 106.980469 246.207031 114.203125 246.207031 123.128906 L 246.207031 150.890625 C 235.632812 152.097656 225.476562 154.6875 216.539062 159.023438 C 193.148438 170.378906 180.269531 191.007812 180.269531 217.121094 C 180.269531 264.652344 227.421875 273.929688 261.835938 280.707031 C 298.976562 287.996094 312.160156 293.007812 312.160156 306.574219 C 312.160156 319.855469 306.558594 329.21875 295.050781 335.148438 C 274.769531 345.683594 240.84375 342.558594 220.910156 328.429688 C 213.621094 323.320312 203.546875 324.992188 198.402344 332.277344 C 193.246094 339.566406 194.949219 349.625 202.238281 354.800781 C 214.617188 363.578125 230.136719 369.222656 246.207031 371.828125 L 246.207031 410.445312 C 246.207031 419.371094 253.429688 426.59375 262.355469 426.59375 C 271.285156 426.59375 278.507812 419.371094 278.507812 410.445312 L 278.507812 372.261719 C 289.769531 370.992188 300.664062 368.625 309.894531 363.855469 C 332.175781 352.339844 344.460938 331.996094 344.460938 306.578125 C 344.472656 264.03125 302.125 255.703125 268.089844 249.011719 Z M 268.089844 249.011719 " fill-opacity="1" fill-rule="nonzero"/></svg>