<svg xmlns="http://www.w3.org/2000/svg" xmlns:xlink="http://www.w3.org/1999/xlink" width="400" zoomAndPan="magnify" viewBox="0 0 300 299.999988" height="400" preserveAspectRatio="xMidYMid meet" version="1.0"><defs><clipPath id="741974cf36"><path d="M 15.898438 17.953125 L 282.046875 17.953125 L 282.046875 284.101562 L 15.898438 284.101562 Z M 15.898438 17.953125 " clip-rule="nonzero"/></clipPath><clipPath id="aeb7c80200"><path d="M 148.972656 17.953125 C 75.480469 17.953125 15.898438 77.53125 15.898438 151.027344 C 15.898438 224.519531 75.480469 284.101562 148.972656 284.101562 C 222.46875 284.101562 282.046875 224.519531 282.046875 151.027344 C 282.046875 77.53125 222.46875 17.953125 148.972656 17.953125 Z M 148.972656 17.953125 " clip-rule="nonzero"/></clipPath><clipPath id="7e86044507"><path d="M 71.589844 91.371094 L 226.089844 91.371094 L 226.089844 210 L 71.589844 210 Z M 71.589844 91.371094 " clip-rule="nonzero"/></clipPath></defs><g clip-path="url(#741974cf36)"><g clip-path="url(#aeb7c80200)"><path fill="#b0e3f4" d="M 15.898438 17.953125 L 282.046875 17.953125 L 282.046875 284.101562 L 15.898438 284.101562 Z M 15.898438 17.953125 " fill-opacity="1" fill-rule="nonzero"/></g></g><g clip-path="url(#7e86044507)"><path fill="#1395c0" d="M 120.828125 185.054688 L 84.164062 148.386719 L 71.71875 160.828125 L 120.828125 209.9375 L 226.347656 104.421875 L 213.90625 91.980469 Z M 120.828125 185.054688 " fill-opacity="1" fill-rule="nonzero"/></g></svg>