<svg xmlns="http://www.w3.org/2000/svg" xmlns:xlink="http://www.w3.org/1999/xlink" width="700" zoomAndPan="magnify" viewBox="0 0 525 525.000007" height="700" preserveAspectRatio="xMidYMid meet" version="1.0"><defs><clipPath id="6e8a29400f"><path d="M 189 110.410156 L 339 110.410156 L 339 261 L 189 261 Z M 189 110.410156 " clip-rule="nonzero"/></clipPath><clipPath id="fd438f05aa"><path d="M 134 257 L 394 257 L 394 413.207031 L 134 413.207031 Z M 134 257 " clip-rule="nonzero"/></clipPath><clipPath id="707c080e4d"><path d="M 341.636719 233 L 519.089844 233 L 519.089844 359 L 341.636719 359 Z M 341.636719 233 " clip-rule="nonzero"/></clipPath></defs><g clip-path="url(#6e8a29400f)"><path fill="#000000" d="M 189.054688 185.695312 C 189.054688 144.304688 222.585938 110.757812 263.941406 110.757812 C 305.304688 110.757812 338.835938 144.304688 338.835938 185.695312 C 338.835938 227.085938 305.304688 260.640625 263.941406 260.640625 C 222.585938 260.640625 189.054688 227.085938 189.054688 185.695312 " fill-opacity="1" fill-rule="nonzero"/></g><g clip-path="url(#fd438f05aa)"><path fill="#000000" d="M 392.65625 372.230469 L 381.980469 331.039062 C 373.273438 297.472656 349.78125 270.851562 319.585938 257.410156 C 304.21875 269.367188 284.921875 276.507812 263.941406 276.507812 C 242.96875 276.507812 223.671875 269.367188 208.300781 257.410156 C 178.101562 270.851562 154.613281 297.472656 145.910156 331.039062 L 135.234375 372.230469 C 129.855469 392.96875 145.5 413.203125 166.914062 413.203125 L 360.976562 413.203125 C 382.390625 413.203125 398.035156 392.96875 392.65625 372.230469 " fill-opacity="1" fill-rule="nonzero"/></g><path fill="#000000" d="M 53.011719 176.097656 C 53.011719 142.96875 79.851562 116.113281 112.957031 116.113281 C 146.0625 116.113281 172.902344 142.96875 172.902344 176.097656 C 172.902344 209.226562 146.0625 236.082031 112.957031 236.082031 C 79.851562 236.082031 53.011719 209.226562 53.011719 176.097656 " fill-opacity="1" fill-rule="nonzero"/><path fill="#000000" d="M 132.171875 330.484375 C 140.5 298.378906 160.355469 271.6875 186.609375 254.378906 C 178.425781 245.542969 168.527344 238.410156 157.488281 233.5 C 145.191406 243.070312 129.742188 248.789062 112.957031 248.789062 C 96.164062 248.789062 80.71875 243.070312 68.417969 233.5 C 44.246094 244.253906 25.445312 265.566406 18.480469 292.429688 L 9.929688 325.402344 C 5.625 342 18.148438 358.199219 35.285156 358.199219 L 124.988281 358.199219 L 132.171875 330.484375 " fill-opacity="1" fill-rule="nonzero"/><path fill="#000000" d="M 475.246094 176.097656 C 475.246094 142.96875 448.40625 116.113281 415.300781 116.113281 C 382.195312 116.113281 355.355469 142.96875 355.355469 176.097656 C 355.355469 209.226562 382.195312 236.082031 415.300781 236.082031 C 448.40625 236.082031 475.246094 209.226562 475.246094 176.097656 " fill-opacity="1" fill-rule="nonzero"/><g clip-path="url(#707c080e4d)"><path fill="#000000" d="M 396.078125 330.484375 C 387.753906 298.378906 367.898438 271.6875 341.648438 254.378906 C 349.828125 245.542969 359.730469 238.410156 370.765625 233.5 C 383.066406 243.070312 398.507812 248.789062 415.300781 248.789062 C 432.089844 248.789062 447.53125 243.070312 459.839844 233.5 C 484.007812 244.253906 502.808594 265.566406 509.777344 292.429688 L 518.328125 325.402344 C 522.628906 342 510.105469 358.199219 492.964844 358.199219 L 403.269531 358.199219 L 396.078125 330.484375 " fill-opacity="1" fill-rule="nonzero"/></g></svg>