<svg xmlns="http://www.w3.org/2000/svg" xmlns:xlink="http://www.w3.org/1999/xlink" width="700" zoomAndPan="magnify" viewBox="0 0 525 525.000007" height="700" preserveAspectRatio="xMidYMid meet" version="1.0"><defs><clipPath id="4258f45bde"><path d="M 75 206 L 450 206 L 450 494.738281 L 75 494.738281 Z M 75 206 " clip-rule="nonzero"/></clipPath><clipPath id="bc883d29c0"><path d="M 167 29.125 L 361 29.125 L 361 223 L 167 223 Z M 167 29.125 " clip-rule="nonzero"/></clipPath></defs><g clip-path="url(#4258f45bde)"><path fill="#100f0d" d="M 270.664062 464.007812 L 270.664062 318.523438 C 281.21875 311.707031 320.253906 289.085938 376.539062 287.308594 L 376.539062 392.957031 C 362.40625 383.648438 343.03125 373.757812 331.167969 377.835938 C 325.699219 379.699219 322.140625 384.742188 320.269531 393.257812 C 316.929688 408.4375 319.917969 425.324219 328.425781 441.59375 C 301.988281 447.90625 282.136719 457.472656 270.664062 464.007812 Z M 256.609375 464.007812 C 244.824219 457.289062 224.183594 447.367188 196.636719 441.070312 C 204.941406 424.964844 207.816406 408.273438 204.511719 393.257812 C 202.644531 384.738281 199.066406 379.699219 193.617188 377.835938 C 182.472656 374.027344 164.523438 382.691406 150.734375 391.410156 L 150.734375 375.8125 C 150.855469 375.746094 150.964844 375.675781 151.082031 375.609375 L 150.734375 375.65625 L 150.734375 287.308594 C 206.820312 289.09375 246.015625 311.722656 256.609375 318.535156 Z M 412.882812 256.636719 C 391.207031 235.582031 361.988281 218.855469 337.824219 207.253906 C 318.257812 225.191406 292.210938 236.15625 263.636719 236.15625 C 234.65625 236.15625 208.28125 224.867188 188.625 206.46875 C 164.152344 218.085938 134.082031 235.101562 111.917969 256.636719 C 83.113281 284.617188 72.667969 376.675781 76.574219 417.472656 C 81.28125 466.503906 90.234375 493.226562 124.054688 494.058594 C 142.941406 494 166.625 481.195312 184.027344 460.105469 C 185.726562 458.042969 187.296875 455.949219 188.808594 453.839844 C 232.433594 462.929688 259.117188 482.175781 259.460938 482.429688 C 259.601562 482.535156 259.78125 482.578125 259.933594 482.671875 C 260.121094 482.792969 260.273438 482.949219 260.476562 483.046875 C 260.699219 483.167969 260.945312 483.222656 261.175781 483.304688 C 261.339844 483.367188 261.484375 483.429688 261.648438 483.476562 C 262.300781 483.675781 262.960938 483.800781 263.636719 483.800781 C 263.703125 483.800781 263.765625 483.769531 263.835938 483.769531 C 264.421875 483.753906 264.996094 483.65625 265.5625 483.5 C 265.765625 483.433594 265.953125 483.355469 266.148438 483.285156 C 266.375 483.199219 266.605469 483.148438 266.820312 483.039062 C 267.023438 482.933594 267.183594 482.769531 267.378906 482.652344 C 267.519531 482.5625 267.675781 482.519531 267.8125 482.421875 C 268.15625 482.167969 293.835938 463.515625 336.292969 454.265625 C 337.714844 456.234375 339.1875 458.183594 340.777344 460.113281 C 358.15625 481.195312 381.605469 493.851562 400.734375 494.058594 C 434.53125 493.226562 443.507812 466.503906 448.226562 417.472656 C 452.136719 376.675781 441.691406 284.617188 412.882812 256.636719 " fill-opacity="1" fill-rule="nonzero"/></g><g clip-path="url(#bc883d29c0)"><path fill="#100f0d" d="M 263.636719 222.898438 C 316.925781 222.898438 360.265625 179.558594 360.265625 126.285156 C 360.265625 73.015625 316.925781 29.667969 263.636719 29.667969 C 210.347656 29.667969 167.007812 73.015625 167.007812 126.285156 C 167.007812 179.558594 210.347656 222.898438 263.636719 222.898438 " fill-opacity="1" fill-rule="nonzero"/></g></svg>