<svg xmlns="http://www.w3.org/2000/svg" xmlns:xlink="http://www.w3.org/1999/xlink" width="600" zoomAndPan="magnify" viewBox="0 0 450 449.999984" height="600" preserveAspectRatio="xMidYMid meet" version="1.0"><defs><clipPath id="df1d37c44f"><path d="M 8 71 L 443.417969 71 L 443.417969 378.957031 L 8 378.957031 Z M 8 71 " clip-rule="nonzero"/></clipPath></defs><g clip-path="url(#df1d37c44f)"><path fill="#ffffff" d="M 175.167969 304.132812 C 176.1875 301.058594 177.222656 297.957031 178.253906 294.855469 C 171.78125 292.25 165.835938 288.4375 158.539062 286.9375 C 143.953125 283.878906 129.195312 283.070312 114.453125 281.132812 C 87.601562 277.589844 61.851562 269.714844 35.539062 263.542969 C 33.5 263.074219 32.566406 260.90625 32.949219 259.007812 C 37.109375 239.820312 47.589844 223.957031 56.203125 206.609375 C 64.910156 189.019531 71.457031 170.59375 80.605469 153.144531 C 85.234375 144.320312 90.007812 135.539062 94.328125 126.535156 C 98.351562 118.164062 101.125 108.84375 105.96875 100.914062 C 109.863281 94.554688 112.738281 91.566406 116.988281 89.921875 C 111.605469 87.953125 106.039062 86.722656 100.234375 86.15625 C 86.015625 119.523438 65.890625 150.328125 52.703125 184.105469 C 42.027344 211.523438 34.816406 240.441406 17.851562 264.789062 C 69.414062 281.160156 121.390625 297.09375 175.167969 304.132812 Z M 189.132812 287.378906 C 189.046875 287.335938 188.976562 287.277344 188.90625 287.207031 C 154.292969 253.601562 103.972656 263.441406 60.75 253.105469 C 59.871094 252.890625 59.234375 252.4375 58.808594 251.898438 C 56.203125 251.40625 54.207031 248.089844 56.667969 245.695312 C 67.007812 235.742188 71.597656 220.828125 77.925781 208.207031 C 85.84375 192.417969 94.382812 176.667969 100.320312 159.972656 C 105.769531 144.660156 109.777344 128.984375 114.949219 113.589844 C 115.003906 113.449219 115.074219 113.277344 115.117188 113.09375 C 114.835938 113.714844 114.539062 114.382812 114.253906 114.992188 C 111.4375 121.039062 109.042969 126.972656 106.59375 132.539062 C 101.792969 143.726562 97.457031 153.867188 93.578125 162.960938 C 89.511719 172.023438 85.902344 180.097656 82.671875 187.21875 C 79.429688 194.429688 75.902344 200.335938 73.082031 205.503906 C 67.292969 215.757812 63.851562 223.035156 61.980469 227.867188 C 60.28125 232.710938 59.542969 234.847656 59.277344 234.777344 C 59.0625 234.734375 59.304688 232.496094 60.636719 227.398438 C 62.109375 222.355469 65.253906 214.695312 70.789062 204.242188 C 73.464844 198.988281 76.824219 193.082031 79.894531 185.972656 C 82.996094 178.808594 86.480469 170.71875 90.445312 161.640625 C 94.257812 152.480469 98.449219 142.324219 103.265625 131.109375 C 105.699219 125.5 108.078125 119.566406 110.898438 113.488281 C 113.277344 108.347656 115.753906 102.96875 118.320312 97.429688 C 116.109375 98.703125 114.339844 100.828125 112.34375 104.636719 C 108.644531 111.691406 106.027344 119.167969 102.570312 126.363281 C 95.164062 141.757812 86.664062 156.613281 79.273438 172.023438 C 72.0625 187.050781 66.808594 202.796875 58.808594 217.457031 C 51.769531 230.375 44.730469 243.078125 41.019531 257.28125 C 66.910156 263.542969 92.386719 271.429688 118.984375 274.261719 C 126.433594 275.070312 133.96875 275.664062 141.445312 276.585938 C 138.980469 275.890625 136.644531 275.269531 134.4375 274.757812 C 126.589844 272.988281 120.328125 272.054688 115.558594 271.429688 C 106.039062 270.253906 102.386719 270.425781 102.328125 269.84375 C 102.257812 269.417969 105.996094 268.285156 115.8125 268.824219 C 120.710938 269.121094 127.085938 269.789062 135.144531 271.429688 C 139.179688 272.28125 143.640625 273.355469 148.484375 274.929688 C 152.125 276.1875 156.0625 277.5625 160 279.941406 C 166.414062 281.980469 172.519531 285.4375 178.835938 287.746094 C 171.625 281.203125 163.144531 277.039062 155.097656 274.234375 C 144.71875 270.664062 134.832031 268.824219 125.925781 267.492188 C 108.035156 264.945312 93.859375 264.050781 83.097656 262.75 C 72.320312 261.542969 64.910156 260.242188 60.253906 259.082031 C 55.664062 258.003906 53.738281 257.140625 53.738281 256.929688 C 53.894531 256.304688 61.808594 258.472656 83.335938 260.144531 C 94.085938 261.105469 108.261719 261.714844 126.390625 264.136719 C 135.441406 265.382812 145.523438 267.152344 156.289062 270.820312 C 161.640625 272.664062 167.179688 275.054688 172.546875 278.398438 C 177.292969 281.328125 181.894531 285.082031 185.902344 289.714844 C 186.609375 289.839844 187.332031 289.941406 188.039062 289.984375 C 188.339844 289.105469 188.707031 288.242188 189.132812 287.378906 Z M 212.96875 316.480469 C 213.335938 314.640625 213.800781 312.785156 214.367188 310.972656 C 213.234375 311.976562 211.664062 312.203125 210.332031 311.808594 C 209.90625 311.808594 209.46875 311.738281 208.972656 311.539062 C 202.601562 308.863281 194.585938 307.0625 189.78125 301.753906 C 188.535156 300.363281 187.773438 298.863281 187.402344 297.320312 C 186.710938 297.25 186 297.121094 185.308594 296.992188 C 184.332031 299.996094 183.3125 303 182.304688 306 C 190.109375 313.707031 202.316406 315.746094 212.96875 316.480469 Z M 254.351562 119.070312 C 254.292969 118.898438 254.265625 118.730469 254.25 118.53125 C 252.382812 95.929688 213.136719 88.917969 194.980469 87.925781 C 176.597656 86.949219 152.519531 91.085938 135.980469 80.605469 C 131.261719 95.304688 123.855469 109.058594 119.453125 123.96875 C 114.722656 139.917969 110.273438 155.933594 103.761719 171.257812 C 96.691406 187.886719 88.136719 203.761719 80.308594 220.035156 C 75.859375 229.269531 72.121094 238.742188 65.71875 246.660156 C 108.433594 255.992188 155.621094 248.316406 190.546875 278.722656 C 202.019531 250.570312 212.003906 221.832031 223.347656 193.648438 C 233.359375 168.722656 245.171875 144.351562 254.351562 119.070312 Z M 380.425781 138.785156 C 380.3125 137.722656 380.679688 136.714844 381.34375 135.910156 C 359.734375 126.234375 337.46875 118.234375 314.980469 110.828125 C 305.25 107.640625 294.175781 102.542969 283.695312 102.839844 C 276.980469 103.039062 271.289062 105.175781 265.835938 108.277344 C 265.808594 108.320312 265.808594 108.390625 265.808594 108.449219 C 256.234375 138.316406 242 166.484375 230.457031 195.617188 C 220.117188 221.664062 210.742188 248.089844 200.347656 274.121094 C 216.238281 267.777344 234.832031 272.960938 250.878906 279.234375 C 276.457031 289.273438 301.453125 300.09375 325.585938 313.238281 C 327.613281 299.867188 332.796875 287.519531 336.167969 274.390625 C 340.230469 258.667969 344.167969 242.851562 349.578125 227.527344 C 360.03125 197.871094 371.007812 168.792969 380.425781 138.785156 Z M 417.96875 270.695312 C 424.1875 235.289062 432.558594 200.191406 435.488281 164.289062 C 430.785156 163.609375 426.339844 162.109375 421.835938 160.621094 C 421.878906 160.820312 421.976562 161.019531 422.035156 161.21875 C 424.371094 174.800781 413.691406 187.886719 409.683594 200.164062 C 405.945312 211.621094 405.5625 224.269531 403.28125 236.109375 C 400.605469 250.058594 397.871094 263.980469 395.039062 277.875 C 389.730469 304.089844 384.164062 330.234375 378.355469 356.304688 C 377.71875 359.097656 374.914062 359.480469 373.003906 358.359375 C 372.675781 358.375 372.335938 358.359375 371.96875 358.273438 C 344.097656 351.902344 317.203125 337.867188 290.507812 327.855469 C 275.054688 322.0625 259.492188 316.28125 243.515625 312.046875 C 241.207031 311.4375 230.925781 308.238281 223.390625 307.601562 C 223.375 307.644531 223.375 307.671875 223.375 307.730469 C 221.988281 311 220.941406 314.34375 220.203125 317.785156 C 280.296875 331.492188 339.167969 349.917969 397.449219 369.84375 C 401.074219 336.167969 412.132812 304.003906 417.96875 270.695312 Z M 442.910156 160.878906 C 443.035156 161.273438 443.109375 161.714844 443.066406 162.207031 C 440.359375 198.027344 432.0625 232.910156 425.886719 268.1875 C 419.597656 303.976562 407.347656 338.675781 404.316406 375 C 404.019531 378.398438 400.109375 379.363281 398.097656 377.832031 C 338.363281 357.367188 278.015625 338.417969 216.367188 324.453125 C 215.871094 324.328125 215.472656 324.15625 215.132812 323.917969 C 214.863281 323.960938 214.582031 323.988281 214.269531 323.960938 C 201.621094 323.164062 186.835938 320.84375 177.433594 311.582031 C 177.050781 311.679688 176.625 311.738281 176.128906 311.652344 C 120.246094 304.457031 66.34375 287.945312 12.78125 270.949219 C 12.214844 270.75 11.71875 270.480469 11.347656 270.128906 C 8.914062 269.757812 6.875 267.378906 8.714844 264.886719 C 28.527344 238.714844 34.476562 207.003906 47.464844 177.5625 C 61.851562 144.988281 80.335938 114.425781 94.214844 81.609375 C 94.328125 81.339844 94.484375 81.101562 94.625 80.875 C 95.023438 79.484375 96.15625 78.4375 98.023438 78.566406 C 107.996094 79.273438 117.285156 81.609375 126.234375 85.816406 C 127.722656 82.105469 129.066406 78.351562 130.128906 74.5 C 130.457031 73.367188 131.136719 72.632812 131.972656 72.234375 C 133.304688 71.15625 135.269531 70.804688 136.914062 72.261719 C 148.117188 82.105469 167.25 80.207031 181.15625 80.25 C 192.347656 80.277344 202.898438 81.242188 213.84375 83.648438 C 228.6875 86.894531 248.074219 92.105469 256.957031 105.148438 C 274.050781 93.859375 288.636719 94.46875 308.125 100.828125 C 335.089844 109.625 361.886719 118.929688 387.734375 130.710938 C 389.96875 131.746094 390.027344 133.953125 388.964844 135.554688 C 388.964844 135.921875 388.9375 136.320312 388.824219 136.746094 C 388.738281 136.957031 388.667969 137.183594 388.625 137.382812 C 394.84375 142.28125 406.554688 145.9375 414.371094 151.304688 C 414.96875 151.132812 415.632812 151.078125 416.367188 151.261719 C 424.074219 153.203125 431.308594 157.039062 439.367188 157.28125 C 441.664062 157.351562 442.839844 159.105469 442.910156 160.878906 Z M 323.617188 326.722656 C 318.945312 324.527344 311.609375 321.085938 301.015625 316.085938 C 290.363281 311.210938 276.414062 304.742188 258.003906 297.859375 C 248.8125 294.515625 238.472656 290.890625 226.761719 288.554688 C 220.953125 287.476562 214.636719 286.585938 208.492188 287.574219 C 205.488281 288.113281 202.527344 289.273438 200.816406 291.554688 C 199.214844 293.550781 198.71875 296.355469 198.847656 299.316406 C 199.160156 299.457031 199.457031 299.628906 199.753906 299.785156 C 200.589844 298.253906 201.621094 296.851562 202.898438 295.691406 C 205.164062 293.820312 207.753906 292.746094 210.277344 292.050781 C 215.402344 290.789062 220.273438 291.015625 224.777344 291.441406 C 233.800781 292.417969 241.605469 294.683594 248.542969 296.824219 C 262.335938 301.355469 272.648438 306 280.421875 309.667969 C 288.171875 313.378906 293.367188 316.253906 296.609375 318.25 C 299.824219 320.21875 301.113281 321.3125 300.988281 321.496094 C 300.691406 321.992188 295.011719 318.859375 279.347656 312.046875 C 271.488281 308.707031 261.160156 304.359375 247.507812 300.066406 C 240.683594 298.054688 233.007812 295.945312 224.394531 295.023438 C 220.148438 294.65625 215.574219 294.515625 211.210938 295.621094 C 209.058594 296.214844 207.003906 297.121094 205.304688 298.496094 C 204.425781 299.289062 203.71875 300.25 203.125 301.300781 C 205.589844 302.304688 208.066406 303.226562 210.53125 304.257812 C 215.347656 299.457031 224.28125 300.589844 230.628906 301.640625 C 247.523438 304.457031 263.964844 310.304688 280 316.140625 C 298.820312 322.980469 317.429688 330.375 336.039062 337.683594 C 344.070312 340.8125 352.183594 344.3125 360.457031 347.1875 C 363.332031 329.738281 367.269531 315.488281 370.851562 303.933594 C 374.617188 291.882812 377.890625 282.574219 380.453125 275.523438 C 385.59375 261.402344 387.832031 256.164062 388.328125 256.304688 C 388.824219 256.460938 387.433594 262.039062 382.929688 276.359375 C 380.695312 283.511719 377.707031 292.859375 374.121094 304.925781 C 370.679688 316.609375 366.828125 330.898438 363.996094 348.390625 C 364.761719 348.628906 365.539062 348.855469 366.304688 349.082031 C 367.976562 341.421875 369.945312 335.203125 371.332031 329.9375 C 372.945312 323.917969 374.050781 319.214844 374.703125 315.601562 C 375.015625 313.804688 375.269531 312.246094 375.480469 310.972656 C 375.609375 309.699219 375.75 308.648438 375.878906 307.84375 C 376.121094 306.242188 376.386719 305.503906 376.644531 305.503906 C 376.882812 305.503906 377.140625 306.199219 377.308594 307.871094 C 377.40625 308.707031 377.480469 309.769531 377.550781 311.113281 C 377.550781 312.472656 377.421875 314.074219 377.28125 315.957031 C 376.953125 319.753906 376.089844 324.652344 374.617188 330.769531 C 373.371094 336.210938 371.472656 342.554688 369.875 350.117188 C 370.582031 350.316406 371.332031 350.5 372.070312 350.683594 C 382.28125 304.925781 392.363281 258.9375 399.601562 212.613281 C 402.121094 196.453125 412.53125 182.871094 414.839844 167.023438 C 415.234375 164.191406 413.734375 161.585938 411.15625 159.148438 C 410.988281 167.292969 408.765625 174.996094 406.144531 181.78125 C 404.683594 185.746094 403.140625 189.527344 401.921875 193.28125 C 400.621094 197.019531 399.574219 200.832031 398.4375 204.46875 C 393.964844 219.085938 389.898438 232.300781 386.257812 244.179688 C 378.824219 267.917969 372.578125 286.285156 368.300781 300.433594 C 364.039062 314.613281 361.023438 324.355469 358.996094 330.558594 C 357.015625 336.675781 355.996094 339.339844 355.726562 339.339844 C 355.484375 339.269531 356.023438 336.507812 357.621094 330.175781 C 359.222656 323.859375 361.859375 313.972656 365.792969 299.671875 C 369.773438 285.410156 375.75 266.953125 383.015625 243.148438 C 386.570312 231.238281 390.566406 217.996094 394.96875 203.363281 C 396.128906 199.726562 397.136719 195.988281 398.46875 192.121094 C 399.6875 188.238281 401.242188 184.414062 402.6875 180.507812 C 405.589844 172.902344 407.816406 164.828125 407.417969 156.203125 C 406.257812 155.410156 405.054688 154.644531 403.777344 153.910156 C 403.679688 162.179688 401.414062 170 398.75 176.867188 C 397.304688 180.832031 395.75 184.613281 394.542969 188.351562 C 393.242188 192.09375 392.195312 195.914062 391.0625 199.554688 C 386.570312 214.15625 382.519531 227.371094 378.882812 239.253906 C 371.445312 263.003906 365.199219 281.371094 360.921875 295.519531 C 356.660156 309.699219 353.644531 319.441406 351.617188 325.628906 C 349.621094 331.761719 348.617188 334.410156 348.347656 334.410156 C 348.105469 334.339844 348.644531 331.59375 350.246094 325.261719 C 351.84375 318.945312 354.480469 309.046875 358.402344 294.757812 C 362.394531 280.496094 368.371094 262.039062 375.625 238.21875 C 379.191406 226.324219 383.1875 213.082031 387.589844 198.4375 C 388.738281 194.796875 389.757812 191.058594 391.074219 187.191406 C 392.308594 183.3125 393.863281 179.5 395.308594 175.59375 C 398.171875 168.15625 400.308594 160.242188 400.039062 151.828125 C 399.644531 151.601562 399.246094 151.402344 398.851562 151.175781 C 398.808594 159.546875 396.511719 167.464844 393.835938 174.402344 C 392.390625 178.367188 390.835938 182.148438 389.628906 185.890625 C 388.328125 189.640625 387.265625 193.453125 386.132812 197.089844 C 381.65625 211.707031 377.59375 224.921875 373.953125 236.804688 C 366.53125 260.539062 360.285156 278.90625 355.996094 293.054688 C 351.746094 307.234375 348.714844 316.976562 346.703125 323.164062 C 344.707031 329.296875 343.703125 331.960938 343.433594 331.960938 C 343.175781 331.890625 343.714844 329.128906 345.316406 322.796875 C 346.917969 316.480469 349.550781 306.597656 353.488281 292.292969 C 357.480469 278.03125 363.457031 259.578125 370.710938 235.753906 C 374.277344 223.859375 378.257812 210.617188 382.664062 195.988281 C 383.824219 192.347656 384.828125 188.59375 386.160156 184.742188 C 387.390625 180.847656 388.9375 177.035156 390.394531 173.128906 C 393.242188 165.664062 395.410156 157.71875 395.109375 149.265625 C 393.835938 148.597656 392.574219 147.960938 391.371094 147.324219 C 391.132812 155.511719 389.132812 163.117188 386.925781 170.125 C 384.417969 178 381.558594 185.28125 379.179688 192.289062 C 377.988281 195.789062 376.882812 199.203125 376.007812 202.601562 C 375.523438 204.273438 375.140625 205.941406 374.816406 207.601562 C 374.417969 209.3125 374.039062 211.011719 373.667969 212.683594 C 371.96875 219.398438 369.347656 225.386719 366.96875 230.941406 C 364.535156 236.503906 362.324219 241.6875 360.652344 246.789062 C 358.984375 251.929688 357.425781 256.742188 355.953125 261.304688 C 352.992188 270.394531 350.414062 278.300781 348.175781 285.167969 C 343.628906 298.890625 340.402344 308.308594 338.261719 314.285156 C 336.152344 320.191406 335.089844 322.726562 334.820312 322.726562 C 334.566406 322.65625 335.191406 319.949219 336.902344 313.847656 C 338.632812 307.730469 341.464844 298.183594 345.699219 284.402344 C 347.808594 277.492188 350.246094 269.519531 353.046875 260.371094 C 354.449219 255.792969 355.953125 250.921875 357.550781 245.753906 C 359.222656 240.527344 361.433594 235.144531 363.824219 229.578125 C 366.175781 224.027344 368.667969 218.195312 370.242188 211.820312 C 370.582031 210.207031 370.949219 208.546875 371.332031 206.90625 C 371.671875 205.164062 372.070312 203.40625 372.535156 201.664062 C 373.414062 198.167969 374.546875 194.683594 375.75 191.113281 C 378.144531 184.019531 380.960938 176.738281 383.398438 169.019531 C 385.75 161.570312 387.761719 153.613281 387.703125 145.328125 C 387.265625 145.085938 386.824219 144.832031 386.429688 144.589844 C 382.492188 157.535156 378.652344 170.492188 374.25 183.28125 C 368.910156 198.890625 361.957031 213.875 356.6875 229.496094 C 351.492188 244.945312 347.808594 260.710938 343.304688 276.359375 C 339.269531 290.308594 333.53125 303.835938 332.355469 318.421875 C 332.160156 320.816406 330.160156 321.992188 328.292969 321.960938 C 327.484375 322.21875 326.550781 322.144531 325.574219 321.621094 C 302.714844 308.875 279.09375 298.464844 254.859375 288.707031 C 243.472656 284.105469 231.605469 279.175781 219.253906 278.074219 C 209 277.167969 188.707031 281.597656 195.152344 296.230469 C 195.503906 293.777344 196.355469 291.257812 197.882812 289.304688 C 199.160156 287.675781 200.816406 286.414062 202.558594 285.578125 C 204.300781 284.769531 206.097656 284.277344 207.839844 283.9375 C 214.90625 282.84375 221.421875 283.863281 227.457031 285.011719 C 239.535156 287.476562 249.945312 291.1875 259.207031 294.65625 C 277.71875 301.792969 291.597656 308.535156 302.148438 313.71875 C 312.671875 318.988281 319.78125 322.882812 324.285156 325.433594 C 328.757812 328.023438 330.628906 329.269531 330.515625 329.496094 C 330.386719 329.710938 328.292969 328.902344 323.617188 326.722656 " fill-opacity="1" fill-rule="nonzero"/></g></svg>