<svg xmlns="http://www.w3.org/2000/svg" xmlns:xlink="http://www.w3.org/1999/xlink" width="700" zoomAndPan="magnify" viewBox="0 0 525 525.000007" height="700" preserveAspectRatio="xMidYMid meet" version="1.0"><defs><clipPath id="36c91f6809"><path d="M 16.34375 106.167969 L 509.53125 106.167969 L 509.53125 395.007812 L 16.34375 395.007812 Z M 16.34375 106.167969 " clip-rule="nonzero"/></clipPath></defs><g clip-path="url(#36c91f6809)"><path fill="#ffffff" d="M 238.785156 342.539062 C 246.929688 342.890625 253.28125 349.765625 252.929688 357.910156 C 252.753906 362.027344 250.871094 365.925781 247.675781 368.597656 L 231.339844 382.085938 C 224.988281 387.210938 215.703125 386.203125 210.578125 379.851562 C 205.542969 373.632812 206.417969 364.480469 212.550781 359.3125 L 228.886719 345.824219 C 231.292969 343.894531 234.230469 342.757812 237.296875 342.582031 C 237.820312 342.539062 238.300781 342.539062 238.785156 342.539062 Z M 208.171875 317.050781 C 216.316406 316.609375 223.28125 322.832031 223.71875 330.976562 C 223.980469 335.617188 222.011719 340.128906 218.417969 343.109375 L 193.761719 363.472656 C 187.5 368.683594 178.171875 367.765625 172.957031 361.503906 C 167.789062 355.195312 168.667969 345.867188 174.972656 340.699219 L 199.628906 320.332031 C 202.039062 318.363281 205.015625 317.179688 208.171875 317.050781 Z M 183.382812 287.878906 C 191.527344 287.488281 198.449219 293.75 198.886719 301.894531 C 199.105469 306.582031 197.089844 311.050781 193.5 314.027344 L 162.007812 340.042969 C 155.660156 345.210938 146.375 344.246094 141.207031 337.894531 C 136.125 331.632812 137 322.480469 143.175781 317.269531 L 174.710938 291.253906 C 177.164062 289.238281 180.183594 288.054688 183.382812 287.878906 Z M 143.132812 271.371094 C 143.613281 271.371094 144.140625 271.371094 144.621094 271.371094 C 152.769531 271.71875 159.117188 278.597656 158.769531 286.742188 C 158.59375 290.902344 156.664062 294.800781 153.46875 297.472656 L 136.039062 311.835938 C 129.554688 316.828125 120.269531 315.648438 115.320312 309.164062 C 110.546875 303.035156 111.378906 294.230469 117.25 289.0625 L 134.679688 274.652344 C 137.089844 272.683594 140.066406 271.542969 143.175781 271.371094 Z M 242.070312 169.804688 C 246.492188 169.804688 250.914062 170.113281 255.339844 170.726562 C 244.390625 177.515625 232.785156 183.164062 220.652344 187.5 C 212.988281 190.257812 209.003906 198.753906 211.804688 206.417969 C 213.425781 210.886719 217.0625 214.304688 221.660156 215.617188 C 244.214844 222.011719 268.347656 219.863281 289.457031 209.660156 L 385.152344 287.355469 C 391.0625 292.304688 391.851562 301.152344 386.902344 307.0625 C 382.261719 312.625 374.113281 313.71875 368.160156 309.605469 L 296.59375 258.144531 C 294.582031 256.785156 291.867188 257.265625 290.464844 259.238281 C 289.105469 261.164062 289.542969 263.835938 291.472656 265.28125 L 360.582031 314.902344 C 367.0625 319.851562 368.332031 329.09375 363.382812 335.617188 C 358.609375 341.835938 349.808594 343.28125 343.324219 338.902344 L 278.070312 292.042969 C 276.140625 290.640625 273.382812 291.078125 271.980469 293.046875 C 270.582031 295.019531 271.0625 297.734375 272.988281 299.136719 L 330.582031 340.523438 C 337.324219 345.078125 339.078125 354.277344 334.480469 361.019531 C 329.925781 367.765625 320.726562 369.515625 313.980469 364.960938 C 313.761719 364.785156 313.542969 364.65625 313.324219 364.480469 L 259.191406 325.589844 C 257.132812 324.277344 254.417969 324.886719 253.148438 326.945312 C 251.921875 328.832031 252.316406 331.28125 254.070312 332.683594 L 295.5 362.464844 C 301.238281 366.890625 302.289062 375.121094 297.867188 380.859375 C 293.660156 386.292969 285.953125 387.5625 280.214844 383.75 L 258.972656 368.507812 C 265.191406 357.078125 260.988281 342.800781 249.601562 336.582031 C 244.347656 333.691406 238.214844 332.945312 232.433594 334.4375 C 233.921875 321.558594 224.683594 309.867188 211.761719 308.378906 C 210.183594 308.160156 208.566406 308.160156 206.988281 308.289062 C 210.097656 295.675781 202.433594 282.933594 189.820312 279.777344 C 182.59375 277.984375 174.929688 279.734375 169.148438 284.507812 L 167.570312 285.820312 C 167.441406 272.816406 156.796875 262.390625 143.789062 262.566406 C 138.445312 262.609375 133.234375 264.492188 129.117188 267.910156 L 114.050781 280.347656 L 100.300781 270.273438 L 157.585938 175.980469 C 176.460938 176.417969 195.292969 175.804688 214.082031 174.097656 C 223.148438 171.292969 232.609375 169.804688 242.070312 169.804688 Z M 285.515625 168.011719 C 288.449219 168.140625 291.382812 168.710938 294.1875 169.71875 L 337.019531 185.003906 L 369.691406 173.046875 L 424.304688 260.507812 L 395.882812 286.566406 C 394.523438 284.246094 392.773438 282.230469 390.667969 280.523438 L 290.507812 199.191406 C 270.316406 210.667969 246.359375 213.515625 224.023438 207.164062 C 220.828125 206.289062 218.988281 202.960938 219.863281 199.761719 C 220.390625 197.878906 221.792969 196.390625 223.628906 195.734375 C 239.132812 190.171875 253.851562 182.59375 267.46875 173.222656 C 272.726562 169.585938 279.078125 167.746094 285.515625 168.011719 Z M 419.664062 120.226562 L 497.488281 244.828125 L 445.238281 277.5 L 367.371094 152.855469 Z M 110.375 118.167969 L 163.015625 150.140625 L 80.898438 285.339844 L 28.253906 253.324219 Z M 107.4375 106.167969 L 16.34375 256.257812 L 83.964844 297.339844 L 95.832031 277.765625 L 107.789062 286.523438 C 100.082031 296.992188 102.359375 311.707031 112.824219 319.414062 C 117.6875 322.960938 123.6875 324.539062 129.6875 323.792969 C 126.972656 336.496094 135.117188 348.976562 147.820312 351.648438 C 152.199219 352.613281 156.796875 352.261719 161 350.683594 C 160.214844 363.648438 170.113281 374.773438 183.074219 375.515625 C 188.636719 375.867188 194.066406 374.246094 198.535156 370.917969 C 198.667969 383.925781 209.308594 394.347656 222.273438 394.21875 C 227.660156 394.175781 232.871094 392.246094 237.03125 388.832031 L 253.410156 375.34375 C 253.410156 375.296875 253.410156 375.296875 253.410156 375.253906 L 275.089844 390.890625 C 284.902344 397.941406 298.566406 395.707031 305.617188 385.898438 C 308.375 382.042969 309.820312 377.355469 309.691406 372.582031 C 320.816406 379.328125 335.265625 375.78125 342.011719 364.699219 C 344.816406 360.144531 345.953125 354.757812 345.253906 349.457031 C 357.691406 353.179688 370.785156 346.042969 374.507812 333.605469 C 375.734375 329.488281 375.777344 325.0625 374.683594 320.902344 C 387.210938 321.824219 398.113281 312.363281 399.035156 299.835938 C 399.121094 298.4375 399.121094 297.035156 398.949219 295.632812 L 428.992188 268.039062 L 442.4375 289.542969 L 509.53125 247.632812 L 422.421875 108.183594 L 355.324219 150.097656 L 364.960938 165.46875 L 336.933594 175.71875 L 297.121094 161.484375 C 286.917969 157.804688 275.617188 158.679688 266.113281 163.804688 C 248.375 159.644531 229.851562 160.214844 212.375 165.46875 C 195.90625 166.914062 179.394531 167.527344 162.839844 167.308594 L 175.058594 147.25 L 107.4375 106.167969 " fill-opacity="1" fill-rule="nonzero"/></g><path fill="#ffffff" d="M 32.679688 229.195312 L 107.4375 106.167969 " fill-opacity="1" fill-rule="nonzero"/></svg>