<svg xmlns="http://www.w3.org/2000/svg" xmlns:xlink="http://www.w3.org/1999/xlink" width="1000" zoomAndPan="magnify" viewBox="0 0 750 225" height="300" preserveAspectRatio="xMidYMid meet" version="1.0"><defs><clipPath id="bdfd279a3a"><path d="M 0 0 L 750 0 L 750 114.75 L 0 114.75 Z M 0 0 " clip-rule="nonzero"/></clipPath></defs><g clip-path="url(#bdfd279a3a)"><path fill="#0b3e27" d="M 251.417969 14.007812 C 250.6875 12.910156 250.457031 12.558594 250.078125 11.980469 C 259.769531 10.699219 269.238281 9.386719 278.734375 8.246094 C 281.402344 7.925781 284.132812 8.152344 286.828125 8.046875 C 288.0625 8 289.296875 7.695312 290.535156 7.589844 C 292.257812 7.453125 293.980469 7.453125 295.699219 7.269531 C 297.925781 7.039062 300.152344 6.765625 302.363281 6.414062 C 307.148438 5.652344 311.921875 4.753906 316.722656 4.054688 C 319.421875 3.65625 322.164062 3.535156 324.894531 3.304688 C 330.6875 2.816406 336.480469 2.027344 342.269531 1.980469 C 346.035156 1.949219 349.648438 0.5 353.660156 1.734375 C 356.171875 2.511719 359.328125 0.882812 362.210938 0.820312 C 367.667969 0.714844 373.125 1.035156 378.582031 1.035156 C 381.585938 1.035156 384.605469 0.683594 387.605469 0.578125 C 392.179688 0.394531 396.753906 0.226562 401.324219 0.152344 C 404.800781 0.0898438 408.292969 0.121094 411.769531 0.210938 C 416.265625 0.316406 420.761719 0.652344 425.257812 0.652344 C 429.054688 0.652344 432.835938 0.304688 436.632812 0.152344 C 438.09375 0.0898438 439.574219 0.0898438 441.035156 0.152344 C 444.617188 0.316406 448.214844 0.472656 451.796875 0.789062 C 453.277344 0.914062 454.695312 1.539062 456.160156 1.765625 C 457.332031 1.949219 458.550781 1.859375 459.742188 1.949219 C 465.136719 2.375 470.535156 2.925781 475.929688 3.230469 C 479.542969 3.429688 483.171875 3.199219 486.769531 3.335938 C 487.851562 3.382812 488.886719 4.265625 489.984375 4.375 C 491.128906 4.480469 492.347656 3.824219 493.460938 3.976562 C 497.074219 4.480469 500.640625 5.242188 504.238281 5.820312 C 506.265625 6.140625 508.324219 6.324219 510.382812 6.476562 C 513.519531 6.722656 516.660156 6.886719 519.800781 7.085938 C 523.949219 7.347656 528.230469 7.054688 532.210938 8.015625 C 537.027344 9.191406 541.890625 9.402344 546.675781 10.152344 C 550.714844 10.789062 554.710938 11.691406 558.839844 12.101562 C 565.839844 12.789062 572.820312 13.855469 579.742188 15.179688 C 588.855469 16.933594 597.894531 19.054688 606.949219 21.125 C 609.816406 21.78125 612.605469 22.832031 615.441406 23.609375 C 616.433594 23.886719 617.53125 23.71875 618.535156 23.960938 C 623.199219 25.089844 627.820312 26.355469 632.5 27.4375 C 635.855469 28.214844 639.285156 28.6875 642.652344 29.480469 C 648.367188 30.835938 654.101562 32.191406 659.742188 33.824219 C 663.460938 34.890625 666.949219 36.859375 670.699219 37.621094 C 673.382812 38.167969 676.035156 38.230469 677.957031 40.5 C 681.203125 38.183594 683.445312 43.078125 686.601562 41.722656 C 686.890625 41.597656 687.5625 41.828125 687.742188 42.101562 C 690.257812 45.957031 694.910156 44.554688 698.292969 46.402344 C 702.574219 48.734375 707.285156 50.257812 711.753906 52.269531 C 716.949219 54.617188 722.332031 56.734375 727.132812 59.738281 C 728.980469 60.882812 730.839844 61.597656 732.714844 62.484375 C 735.046875 63.566406 737.316406 64.753906 739.617188 65.898438 C 739.800781 65.988281 744.359375 69.9375 744.617188 70.136719 C 744.785156 70.257812 745.121094 70.136719 745.304688 70.257812 C 746.859375 71.125 748.398438 72.039062 749.953125 72.925781 C 749.757812 73.246094 749.558594 73.582031 749.375 73.902344 C 748.660156 73.472656 747.941406 73.046875 746.996094 72.484375 L 746.996094 75.011719 C 744.40625 73.320312 742.332031 71.628906 739.984375 70.59375 C 738.765625 70.058594 737.042969 70.667969 735.304688 71.339844 C 739.589844 72.332031 741.828125 75.410156 744.117188 78.855469 C 741.632812 83.640625 748.703125 83.550781 748.6875 88.136719 C 746.554688 88.550781 743.992188 89.054688 741.21875 89.601562 C 741.265625 89.90625 741.371094 90.636719 741.570312 92.148438 C 739.648438 90.898438 738.199219 89.984375 736.570312 88.929688 C 736.386719 89.785156 736.234375 90.472656 736.128906 90.972656 C 719.34375 85.363281 702.53125 79.738281 685.59375 74.066406 C 685.546875 74.511719 685.488281 75.042969 685.394531 76.003906 C 682.46875 74.128906 679.769531 72.390625 676.355469 70.179688 C 676.980469 71.308594 677.226562 71.75 677.46875 72.179688 C 677.332031 72.453125 677.195312 72.710938 677.058594 72.984375 C 674.527344 71.460938 672.042969 69.875 669.464844 68.429688 C 668.644531 67.972656 667.546875 67.5 666.707031 67.664062 C 664.769531 68.046875 660 66.933594 657.957031 66.492188 C 656.019531 66.082031 654.574219 64.433594 652.058594 65.027344 C 650.015625 65.515625 646.160156 64.785156 645.503906 63.441406 C 643.980469 60.316406 642.378906 61.324219 640.230469 61.8125 C 639.617188 61.949219 638.765625 60.789062 637.957031 60.363281 C 636.675781 59.691406 635.273438 59.007812 635.304688 61.339844 C 627.636719 59.753906 619.894531 58.261719 612.210938 56.492188 C 609.007812 55.761719 605.945312 54.386719 602.804688 53.367188 C 602.46875 53.261719 601.9375 53.824219 601.570312 53.734375 C 599.832031 53.320312 597.757812 53.261719 596.492188 52.222656 C 593.445312 49.691406 590.425781 48.976562 586.8125 51.082031 C 586.339844 49.90625 586.953125 46.996094 584.40625 49.800781 C 583.644531 50.652344 580.714844 49.816406 578.886719 49.359375 C 576.175781 48.671875 573.582031 47.511719 570.882812 46.78125 C 569.453125 46.402344 567.894531 46.492188 566.402344 46.386719 C 566.203125 45.882812 566.007812 45.378906 565.808594 44.875 C 565.519531 45.777344 565.242188 46.691406 564.953125 47.589844 L 564.007812 47.054688 C 563.6875 46.277344 563.382812 45.515625 563.09375 44.816406 C 559.832031 47.390625 558.171875 43.199219 555.257812 43.703125 C 555.167969 45.761719 553.339844 45.152344 551.539062 44.800781 C 549.132812 44.328125 546.675781 44.144531 544.296875 43.550781 C 540.078125 42.5 535.703125 42.894531 531.492188 41.996094 C 530.65625 41.8125 529.757812 41.355469 529.175781 40.746094 C 528.078125 39.585938 528.230469 39.570312 526.828125 40.804688 C 526.480469 41.109375 525.5625 40.941406 525 40.761719 C 522.894531 40.058594 520.855469 39.222656 518.734375 38.582031 C 518.507812 38.503906 517.988281 39.3125 517.53125 39.816406 C 512.226562 36.492188 505.898438 37.207031 499.785156 36.660156 C 498.644531 36.554688 497.5625 35.882812 496.417969 35.761719 C 493.597656 35.457031 490.777344 35.242188 487.941406 35.121094 C 484.757812 34.96875 481.554688 35.027344 478.382812 34.847656 C 474.816406 34.632812 471.265625 34.234375 467.714844 33.902344 C 465.230469 33.671875 462.742188 33.382812 460.257812 33.230469 C 459.527344 33.183594 458.765625 33.503906 457.089844 33.855469 C 458.550781 34.386719 459.070312 34.585938 460.03125 34.921875 C 457.636719 35.011719 455.441406 35.746094 455.046875 32.332031 C 452.363281 33.945312 449.9375 34.328125 447.058594 32.726562 C 445.535156 31.886719 443.09375 32.757812 441.066406 32.757812 C 439.785156 32.757812 438.519531 32.574219 436.480469 32.421875 C 436.417969 32.5 435.855469 33.214844 435.242188 33.992188 C 434.96875 33.792969 434.664062 33.671875 434.480469 33.457031 C 434.085938 32.972656 433.460938 31.964844 433.429688 31.980469 C 431.28125 33.289062 428.886719 31.386719 427.089844 32.207031 C 425.609375 32.878906 423.203125 30.882812 422.578125 33.734375 C 422.578125 33.777344 421.554688 33.824219 421.417969 33.597656 C 419.296875 30.316406 416.554688 32.925781 414.101562 32.773438 C 412.714844 32.679688 411.328125 32.5 410.0625 32.191406 C 408.675781 32.300781 407.257812 32.589844 405.898438 32.453125 C 403.003906 32.179688 400.121094 31.675781 397.226562 31.324219 C 396.921875 31.292969 396.507812 31.628906 396.21875 31.875 C 393.828125 33.886719 391.066406 33.367188 388.339844 33.046875 C 387.589844 32.957031 386.84375 32.742188 386.175781 32.589844 C 384.679688 32.726562 383.550781 33 382.46875 32.878906 C 381.539062 32.789062 380.320312 34.984375 379.421875 32.511719 C 379.300781 32.191406 376.144531 33 374.070312 33.335938 C 374.070312 33.335938 373.855469 32.636719 373.597656 31.75 C 372.332031 32.636719 371.644531 35.273438 369.769531 32.710938 C 369.617188 32.511719 368.0625 33.09375 367.363281 33.597656 C 366.066406 34.511719 366.175781 34.570312 365.382812 32.941406 C 365.214844 32.574219 364.574219 32.191406 364.191406 32.222656 C 361.082031 32.484375 357.972656 32.894531 354.863281 33.136719 C 351.769531 33.382812 348.644531 33.441406 345.550781 33.671875 C 339.742188 34.113281 333.933594 34.648438 328.125 35.089844 C 326.722656 35.195312 325.304688 35.105469 323.796875 35.105469 C 324.023438 35.53125 324.34375 36.140625 324.453125 36.371094 C 321.480469 36.171875 318.519531 35.804688 315.578125 35.851562 C 314.496094 35.867188 315.078125 38.839844 312.515625 37.878906 C 311.113281 37.347656 309.191406 38.109375 307.53125 38.398438 C 306.355469 38.609375 304.785156 39.953125 305.03125 37.222656 C 304.464844 37.207031 303.644531 36.933594 303.398438 37.207031 C 302.042969 38.71875 300.914062 39.984375 298.535156 38.566406 C 297.804688 38.125 296.160156 39.480469 294.878906 39.617188 C 293.78125 39.738281 292.636719 39.3125 291.203125 39.082031 C 290.519531 41.050781 288.109375 40.746094 286.050781 40.820312 C 284.132812 40.898438 281.753906 42.910156 280.351562 39.832031 C 278.980469 42.453125 272.941406 43.046875 269.574219 40.882812 C 268.71875 43.152344 259.160156 44.601562 257.421875 43.261719 C 256.1875 43.808594 255.367188 44.417969 254.480469 44.511719 C 249.527344 45.058594 244.527344 45.304688 239.605469 45.988281 C 236.019531 46.492188 232.546875 47.710938 228.964844 48.261719 C 225.320312 48.808594 221.554688 48.625 217.941406 49.328125 C 214.34375 50.011719 210.929688 51.582031 207.347656 52.4375 C 201.875 53.734375 196.328125 54.753906 190.808594 55.898438 C 187.242188 56.628906 183.6875 57.453125 180.105469 58.09375 C 178.796875 58.320312 177.394531 58.125 175.746094 58.125 C 175.746094 58.09375 175.746094 59.023438 175.578125 59.054688 C 173.460938 59.433594 171.328125 59.785156 169.175781 59.9375 C 168.398438 60 167.578125 59.496094 166.480469 59.144531 C 165.730469 62.5 162.484375 61.582031 159.742188 61.980469 C 156.554688 62.4375 153.445312 63.320312 150.257812 63.792969 C 148.628906 64.023438 147.164062 64.175781 145.867188 65.425781 C 145.472656 65.804688 144.144531 65.226562 143.382812 65.105469 C 140.761719 65.957031 138.050781 66.917969 135.289062 67.710938 C 132.867188 68.398438 130.304688 69.511719 127.925781 69.296875 C 124.589844 68.976562 122.164062 71.445312 118.765625 71.339844 C 117.058594 71.292969 114.191406 70.410156 112.621094 72.039062 C 110.410156 74.328125 106.875 71.707031 104.9375 74.539062 C 104.664062 74.9375 103.476562 74.707031 102.636719 74.785156 C 102.515625 75.472656 102.394531 76.171875 102.269531 76.859375 C 98.886719 75.804688 95.945312 76.859375 93.078125 78.320312 C 92.027344 78.855469 91.097656 79.832031 90 80.089844 C 87.226562 80.730469 84.328125 80.804688 81.601562 81.566406 C 74.453125 83.550781 67.332031 85.699219 60.242188 87.910156 C 56.644531 89.039062 52.804688 89.90625 49.726562 91.902344 C 47.988281 93.03125 45.136719 92.285156 44.375 94.9375 C 44.054688 94.816406 43.703125 94.738281 43.414062 94.585938 C 42.851562 94.296875 42.316406 93.960938 41.417969 93.429688 C 42.636719 97.636719 38.949219 97.070312 37.347656 99.023438 C 37.105469 97.773438 36.964844 96.996094 36.691406 95.59375 C 35.078125 97.117188 33.828125 98.382812 32.46875 99.539062 C 31.785156 100.136719 30.992188 100.730469 30.136719 100.957031 C 28.429688 101.402344 26.492188 101.261719 24.9375 101.996094 C 23.78125 102.527344 23.09375 104.054688 21.921875 105.457031 C 21.417969 105.226562 20.351562 104.722656 18.75 103.976562 C 19.132812 105.179688 19.328125 105.804688 19.496094 106.324219 C 16.144531 105.578125 14.511719 106.964844 13.839844 110.363281 C 13.078125 109.722656 12.46875 109.207031 12.089844 108.902344 C 8.398438 110.730469 4.632812 112.605469 0.882812 114.464844 C 0.578125 114.113281 0.273438 113.777344 -0.03125 113.429688 C 0.441406 112.574219 0.898438 111.722656 1.386719 110.882812 C 2.410156 109.144531 4.085938 107.847656 2.988281 105.164062 C 2.546875 104.082031 4.421875 102.054688 5.457031 100.027344 C 5.394531 99.921875 4.9375 99.144531 4.679688 98.703125 C 5.578125 97.621094 6.234375 96.796875 6.921875 96.019531 C 10.65625 91.75 14.695312 87.925781 19.769531 85.164062 C 25.945312 81.828125 31.800781 77.925781 37.972656 74.632812 C 44.191406 71.324219 50.535156 68.230469 57.027344 65.5 C 63.003906 63 69.34375 61.402344 75.183594 58.441406 C 78.109375 56.964844 81.492188 56.386719 84.632812 55.316406 C 87.5 54.359375 90.351562 53.335938 93.15625 52.238281 C 98.582031 50.121094 103.917969 47.773438 109.390625 45.789062 C 115.335938 43.625 121.339844 41.566406 127.4375 39.832031 C 131.371094 38.703125 135.519531 38.351562 139.511719 37.40625 C 141.417969 36.964844 143.140625 35.730469 145.03125 35.242188 C 150.992188 33.671875 157.011719 32.316406 162.988281 30.835938 C 167.089844 29.832031 171.144531 28.703125 175.242188 27.726562 C 183.460938 25.777344 191.707031 23.902344 199.9375 21.964844 C 203.8125 21.050781 207.636719 19.984375 211.523438 19.175781 C 215.960938 18.261719 220.457031 17.664062 224.910156 16.78125 C 228.902344 15.988281 232.835938 14.890625 236.828125 14.113281 C 239.3125 13.625 241.84375 12.253906 244.421875 13.886719 C 244.464844 13.914062 244.632812 13.886719 244.679688 13.824219 C 246.554688 11.613281 248.628906 11.980469 251.328125 14.066406 Z M 302.757812 12.164062 C 304.269531 13.09375 305.777344 14.023438 308.046875 15.410156 C 307.410156 14.023438 307.179688 13.503906 307.117188 13.382812 C 309.160156 12.910156 311.035156 12.484375 313.765625 11.859375 C 311.828125 10.820312 310.65625 10.195312 309.480469 9.585938 C 308.382812 10.667969 306.707031 11.582031 306.234375 11.15625 C 304.207031 9.296875 303.582031 10.730469 302.820312 12.222656 C 301.449219 11.902344 300.089844 11.597656 298.671875 11.261719 C 297.515625 14.328125 295.335938 11.429688 293.492188 11.886719 C 293.078125 12.46875 292.5625 13.214844 291.644531 14.480469 C 294.238281 14.617188 296.417969 14.738281 298.277344 14.847656 C 298.902344 14.359375 299.421875 13.855469 300.015625 13.519531 C 300.898438 13 301.84375 12.605469 302.773438 12.148438 Z M 72.148438 65.089844 C 73.6875 65.882812 75.257812 67.253906 76.402344 64.496094 C 76.585938 64.054688 78.203125 63.6875 78.292969 63.824219 C 79.558594 65.882812 81.066406 64.3125 82.148438 63.929688 C 88.003906 61.828125 93.78125 59.496094 99.605469 57.238281 C 99.253906 56.109375 98.886719 54.890625 98.507812 53.640625 C 95.257812 54.875 92.089844 56.109375 88.902344 57.285156 C 85.945312 58.382812 82.910156 59.296875 80.015625 60.5625 C 77.226562 61.78125 74.589844 63.367188 71.890625 64.785156 C 68.460938 63.214844 64.847656 65.316406 64.054688 69.96875 C 65.761719 68.550781 67.058594 67.46875 68.839844 65.988281 C 69.464844 65.882812 71.601562 68.808594 72.148438 65.105469 Z M 561.859375 16.691406 C 561.160156 16.886719 560.457031 17.300781 559.832031 17.222656 C 554.039062 16.492188 548.230469 15.761719 542.453125 14.832031 C 536.355469 13.855469 530.304688 12.511719 524.191406 11.613281 C 518.492188 10.777344 512.714844 10.347656 506.980469 9.648438 C 504.921875 9.402344 502.925781 8.703125 500.867188 8.535156 C 496.675781 8.167969 492.453125 8.03125 488.246094 7.757812 C 479.863281 7.207031 471.480469 6.476562 463.078125 6.140625 C 459.144531 5.988281 455.273438 5.363281 451.160156 6.492188 C 448.230469 7.300781 444.664062 5.636719 441.371094 5.304688 C 440.121094 5.179688 438.796875 5.730469 437.285156 6.019531 C 437.242188 5.988281 436.644531 5.289062 436.019531 5.257812 C 428.886719 4.984375 421.738281 4.738281 414.605469 4.617188 C 409.054688 4.511719 403.492188 4.570312 397.941406 4.570312 C 394.375 4.570312 390.824219 4.527344 387.257812 4.632812 C 383.917969 4.738281 380.535156 4.722656 377.257812 5.289062 C 372.195312 6.171875 366.753906 3.488281 361.980469 6.980469 C 361.769531 7.132812 361.371094 7.027344 361.066406 7.027344 C 359.785156 6.996094 358.519531 6.933594 357.242188 6.917969 C 356.722656 6.917969 356.21875 7.011719 355.703125 6.996094 C 355.046875 6.996094 354.375 6.933594 353.71875 6.886719 C 353.71875 6.507812 352.925781 5.867188 352.652344 6.050781 C 350.914062 7.191406 347.742188 7.332031 349.007812 10.777344 C 352.011719 10.179688 354.984375 9.585938 358.203125 8.945312 C 360.136719 9.3125 362.53125 10.105469 364.9375 10.152344 C 367.089844 10.179688 369.253906 9.402344 371.8125 8.902344 C 372.363281 9.113281 374.101562 10.152344 374.390625 9.832031 C 377.058594 6.964844 379.679688 8.214844 382.421875 9.480469 C 382.894531 9.707031 383.519531 9.679688 384.085938 9.664062 C 390.761719 9.570312 397.453125 9.570312 404.132812 9.34375 C 408.460938 9.191406 412.773438 8.671875 417.105469 8.367188 C 417.742188 8.320312 418.382812 8.566406 419.039062 8.625 C 420.257812 8.734375 421.480469 8.808594 422.714844 8.902344 L 422.636719 8.582031 C 424.253906 9.039062 425.867188 9.496094 427.058594 9.832031 C 427.730469 8.671875 428.140625 7.972656 428.550781 7.269531 L 429.117188 7.527344 C 428.980469 8.152344 428.855469 8.761719 428.828125 8.902344 L 440 8.902344 C 439.953125 8.992188 439.910156 9.066406 439.847656 9.160156 C 441.570312 9.375 443.292969 9.585938 445.199219 9.832031 L 445.199219 6.8125 C 444.726562 7.300781 444.253906 7.789062 443.78125 8.277344 C 445.136719 9.128906 446.507812 9.984375 447.867188 10.851562 C 448.15625 10.609375 448.429688 10.347656 448.71875 10.105469 C 449.34375 9.570312 449.96875 9.039062 450.792969 8.335938 C 450.882812 9.222656 450.945312 9.890625 451.019531 10.699219 C 452.714844 10.378906 454.269531 10.074219 456.144531 9.722656 C 456.90625 10.851562 460.519531 11.734375 461.949219 10.332031 C 463.8125 8.519531 464.800781 8.824219 465.351562 11.15625 C 466.324219 11.066406 467.148438 10.882812 467.941406 10.929688 C 470.410156 11.109375 472.882812 11.355469 475.351562 11.644531 C 477.667969 11.917969 479.984375 12.300781 482.300781 12.605469 C 484.390625 12.878906 486.464844 13.214844 488.566406 13.382812 C 492.257812 13.671875 496.007812 14.28125 499.648438 13.929688 C 502.882812 13.625 506.371094 17.039062 509.375 13.320312 C 509.480469 13.183594 510.472656 13.457031 510.472656 13.566406 C 510.59375 16.292969 512.667969 15.136719 513.992188 15.316406 C 518.214844 15.914062 522.5 16.25 526.675781 17.070312 C 531.128906 17.957031 535.777344 17.285156 540.089844 19.066406 C 540.519531 19.234375 541.617188 18.839844 541.738281 18.472656 C 542.46875 16.234375 543.398438 18.640625 544.238281 18.351562 C 544.542969 18.246094 545.105469 19.34375 545.640625 19.433594 C 549.054688 20.042969 552.5 20.578125 555.945312 21.019531 C 558.460938 21.339844 561.007812 21.492188 563.1875 21.691406 C 563.78125 21.1875 564.375 20.867188 564.710938 20.378906 C 565.167969 19.691406 565.441406 18.886719 565.792969 18.125 C 565.0625 18.015625 564.328125 17.789062 563.613281 17.847656 C 563.046875 17.894531 562.5 18.304688 561.601562 18.703125 C 561.722656 17.863281 561.796875 17.316406 561.890625 16.628906 Z M 692.941406 54.191406 C 693.078125 54.066406 693.660156 53.519531 694.238281 52.957031 C 694.511719 53.640625 694.800781 54.34375 695.0625 55.027344 C 695.394531 55.914062 695.730469 56.796875 696.128906 57.863281 C 697.484375 55.472656 698.019531 54.539062 698.367188 53.929688 C 699.085938 54.539062 699.679688 55.058594 700.289062 55.5625 C 700.320312 54.28125 700.136719 52.878906 699.421875 52.511719 C 695.488281 50.484375 691.554688 48.351562 687.347656 47.101562 C 686.144531 46.75 684.984375 46.492188 683.839844 45.851562 C 683.261719 45.515625 682.285156 45.882812 680.777344 45.988281 C 679.757812 45.652344 677.882812 45.027344 675.976562 44.402344 C 676.84375 47.910156 681.265625 51.066406 685.273438 51.660156 C 687.742188 52.027344 690.089844 53.214844 692.941406 54.175781 Z M 326.980469 9.570312 C 326.980469 9.847656 326.921875 10.941406 326.859375 12.101562 C 330.320312 11.828125 333.398438 11.566406 336.464844 11.324219 C 336.464844 10.988281 336.464844 10.652344 336.464844 10.332031 C 337.042969 10.699219 337.621094 11.066406 338.398438 11.554688 C 338.597656 10.652344 338.734375 9.984375 339.117188 8.230469 C 340.046875 9.96875 340.609375 11.003906 341.371094 12.421875 C 342.640625 9.3125 341.996094 7.863281 339.4375 8.078125 C 339.175781 8.09375 338.902344 7.863281 338.628906 7.847656 C 337.515625 7.773438 336.402344 7.726562 335.289062 7.710938 C 334.175781 7.710938 333.046875 7.710938 331.9375 7.789062 C 331.339844 7.816406 330.730469 7.941406 330.183594 8.152344 C 329.328125 8.472656 328.519531 8.886719 326.996094 9.585938 Z M 273.230469 18.183594 C 275.792969 17.40625 278.292969 16.675781 280.761719 15.914062 C 282.46875 15.378906 282.578125 14.753906 281.1875 12.863281 C 277.804688 15.957031 272.285156 13.65625 269.085938 17.46875 C 270.367188 19.175781 272.867188 13.960938 273.230469 18.183594 Z M 142.148438 41.035156 C 141.769531 42.164062 141.386719 43.246094 140.914062 44.617188 C 142.179688 44.511719 143.519531 44.402344 145.519531 44.234375 C 144.296875 43.351562 143.828125 43 143.355469 42.664062 C 146.097656 42.664062 148.476562 42.542969 150.078125 39.585938 C 147.089844 40.136719 144.558594 40.59375 142.148438 41.035156 Z M 291.160156 14.527344 C 290.976562 14.328125 290.777344 14.128906 290.59375 13.945312 C 289.054688 13.609375 287.53125 13.167969 285.960938 12.984375 C 285.230469 12.894531 283.980469 13.078125 283.765625 13.519531 C 283.292969 14.496094 283.324219 15.730469 283.140625 16.859375 L 284.742188 17.085938 C 285.078125 14.3125 287.257812 15.746094 288.644531 15.363281 C 289.480469 15.136719 290.304688 14.832031 291.144531 14.554688 Z M 629.421875 31.140625 C 629.144531 31.324219 628.886719 31.507812 628.613281 31.675781 C 629.285156 33.078125 629.953125 34.496094 630.625 35.898438 C 631.507812 35.425781 633.140625 34.984375 633.171875 34.449219 C 633.367188 31.722656 630.167969 32.972656 629.421875 31.140625 Z M 312.910156 12.589844 C 315.824219 12.117188 317.835938 11.78125 319.847656 11.445312 C 319.878906 11.140625 319.910156 10.820312 319.9375 10.515625 C 318.398438 10.011719 316.84375 9.496094 315.242188 8.976562 C 314.632812 9.921875 314.070312 10.777344 312.894531 12.589844 Z M 98.964844 54.921875 C 100.519531 55.625 101.675781 56.140625 102.851562 56.675781 C 103.246094 55.179688 103.597656 53.855469 104.175781 51.613281 C 101.964844 53.015625 100.640625 53.855469 98.964844 54.921875 Z M 30.808594 83.960938 C 30.609375 83.640625 30.425781 83.304688 30.230469 82.984375 C 28.078125 83.945312 25.929688 84.90625 23.597656 85.941406 C 24.390625 86.796875 24.953125 87.542969 25.0625 87.5 C 27.011719 86.371094 28.902344 85.164062 30.808594 83.960938 Z M 32.285156 82.894531 C 32.285156 82.894531 32.074219 83.03125 32.074219 83.109375 C 32.074219 83.183594 32.195312 83.261719 32.257812 83.335938 C 32.332031 83.261719 32.46875 83.199219 32.46875 83.125 C 32.46875 83.046875 32.347656 82.972656 32.285156 82.894531 Z M 32.285156 82.894531 " fill-opacity="1" fill-rule="nonzero"/></g></svg>