<svg xmlns="http://www.w3.org/2000/svg" xmlns:xlink="http://www.w3.org/1999/xlink" width="1000" zoomAndPan="magnify" viewBox="0 0 750 225" height="300" preserveAspectRatio="xMidYMid meet" version="1.0"><path fill="#0b3e27" d="M 311.054688 53.007812 C 309.25 53.242188 307.902344 53.59375 308.0625 53.789062 C 308.222656 53.988281 309.898438 53.949219 311.785156 53.707031 C 313.671875 53.464844 315.015625 53.113281 314.773438 52.925781 C 314.535156 52.738281 312.859375 52.777344 311.054688 53.007812 Z M 311.054688 53.007812 " fill-opacity="1" fill-rule="nonzero"/><path fill="#0b3e27" d="M 290.582031 60.824219 C 290.1875 61.042969 290.328125 61.148438 290.933594 61.097656 C 291.484375 61.046875 291.777344 60.886719 291.582031 60.734375 C 291.386719 60.585938 290.9375 60.625 290.582031 60.824219 Z M 290.582031 60.824219 " fill-opacity="1" fill-rule="nonzero"/><path fill="#0b3e27" d="M 315.9375 52.808594 C 315.542969 53.027344 315.683594 53.136719 316.292969 53.082031 C 316.839844 53.035156 317.132812 52.875 316.9375 52.722656 C 316.742188 52.574219 316.292969 52.613281 315.9375 52.808594 Z M 315.9375 52.808594 " fill-opacity="1" fill-rule="nonzero"/><path fill="#0b3e27" d="M 346.839844 50.242188 C 340.671875 50.882812 333.664062 51.5 332.230469 51.535156 C 330.277344 51.585938 323.203125 52.730469 323.488281 52.949219 C 323.621094 53.054688 326.40625 52.921875 329.671875 52.660156 C 332.941406 52.394531 335.765625 52.296875 335.953125 52.441406 C 336.4375 52.816406 348.003906 51.074219 349.496094 50.402344 C 350.363281 50.011719 349.546875 49.960938 346.839844 50.242188 Z M 346.839844 50.242188 " fill-opacity="1" fill-rule="nonzero"/><path fill="#0b3e27" d="M 398.6875 48.429688 L 392.890625 49.273438 L 397.605469 48.996094 L 403.789062 48.628906 C 404.65625 48.578125 405.101562 48.34375 404.875 48.0625 C 404.644531 47.78125 402.105469 47.929688 398.6875 48.429688 Z M 398.6875 48.429688 " fill-opacity="1" fill-rule="nonzero"/><path fill="#0b3e27" d="M 369.996094 49.738281 C 359.398438 50.84375 358.792969 51.632812 369.046875 50.980469 C 375.519531 50.566406 380.476562 49.886719 380.886719 49.355469 C 381.398438 48.691406 379.394531 48.761719 369.996094 49.738281 Z M 369.996094 49.738281 " fill-opacity="1" fill-rule="nonzero"/><path fill="#0b3e27" d="M 419.089844 47.816406 C 418.089844 47.945312 417.296875 48.234375 417.328125 48.464844 C 417.355469 48.691406 418.183594 48.675781 419.167969 48.433594 C 420.152344 48.1875 420.949219 47.894531 420.933594 47.785156 C 420.917969 47.671875 420.089844 47.6875 419.089844 47.816406 Z M 419.089844 47.816406 " fill-opacity="1" fill-rule="nonzero"/><path fill="#0b3e27" d="M 414.316406 48.589844 C 413.832031 48.785156 414.132812 48.867188 414.988281 48.765625 C 415.84375 48.664062 416.25 48.503906 415.878906 48.40625 C 415.507812 48.3125 414.804688 48.390625 414.316406 48.589844 Z M 414.316406 48.589844 " fill-opacity="1" fill-rule="nonzero"/><path fill="#0b3e27" d="M 383.386719 60.320312 C 374.539062 61.398438 374.765625 61.351562 375.632812 61.757812 C 376.019531 61.9375 378.261719 61.894531 380.617188 61.664062 C 382.972656 61.433594 385.035156 61.347656 385.195312 61.472656 C 385.359375 61.597656 385.949219 61.507812 386.507812 61.28125 C 387.066406 61.050781 388.6875 60.695312 390.113281 60.488281 C 392.15625 60.191406 392.449219 60.046875 391.5 59.800781 C 390.835938 59.628906 387.183594 59.859375 383.386719 60.320312 Z M 383.386719 60.320312 " fill-opacity="1" fill-rule="nonzero"/><path fill="#0b3e27" d="M 285.964844 54.917969 C 284.363281 54.460938 280.980469 54.894531 282.070312 55.417969 C 282.535156 55.640625 283.84375 55.6875 284.984375 55.523438 C 286.613281 55.292969 286.824219 55.160156 285.964844 54.917969 Z M 285.964844 54.917969 " fill-opacity="1" fill-rule="nonzero"/><path fill="#0b3e27" d="M 343.15625 21.609375 C 343.871094 21.519531 344.148438 21.363281 343.773438 21.265625 C 343.398438 21.167969 342.8125 21.242188 342.472656 21.433594 C 342.136719 21.621094 342.441406 21.703125 343.15625 21.609375 Z M 343.15625 21.609375 " fill-opacity="1" fill-rule="nonzero"/><path fill="#0b3e27" d="M 689.839844 15.574219 C 690.390625 15.527344 690.679688 15.363281 690.484375 15.214844 C 690.292969 15.0625 689.839844 15.101562 689.484375 15.300781 C 689.09375 15.519531 689.230469 15.628906 689.839844 15.574219 Z M 689.839844 15.574219 " fill-opacity="1" fill-rule="nonzero"/><path fill="#0b3e27" d="M 686.695312 15.386719 C 687.546875 15.289062 687.953125 15.125 687.582031 15.03125 C 687.210938 14.933594 686.507812 15.015625 686.019531 15.210938 C 685.535156 15.410156 685.835938 15.488281 686.695312 15.386719 Z M 686.695312 15.386719 " fill-opacity="1" fill-rule="nonzero"/><path fill="#0b3e27" d="M 461.589844 45.710938 C 458.140625 46.070312 452.375 46.578125 448.78125 46.84375 C 445.1875 47.113281 442.40625 47.464844 442.605469 47.632812 C 442.804688 47.796875 444.824219 47.8125 447.09375 47.660156 C 450.808594 47.414062 459.363281 47.28125 460.734375 47.453125 C 461.214844 47.511719 467.363281 46.570312 469.273438 46.148438 C 469.851562 46.019531 469.769531 45.863281 468.953125 45.519531 C 468.355469 45.269531 465.042969 45.355469 461.589844 45.710938 Z M 461.589844 45.710938 " fill-opacity="1" fill-rule="nonzero"/><path fill="#0b3e27" d="M 373.476562 19.714844 C 373.34375 19.625 371.351562 19.671875 369.046875 19.816406 C 366.671875 19.964844 365.558594 20.164062 366.46875 20.277344 C 368.09375 20.472656 373.921875 20.007812 373.476562 19.714844 Z M 373.476562 19.714844 " fill-opacity="1" fill-rule="nonzero"/><path fill="#0b3e27" d="M 384.300781 19.433594 C 385.445312 19.289062 385.960938 19.121094 385.449219 19.054688 C 384.933594 18.988281 384 19.105469 383.371094 19.3125 C 382.738281 19.519531 383.160156 19.574219 384.304688 19.433594 Z M 384.300781 19.433594 " fill-opacity="1" fill-rule="nonzero"/><path fill="#0b3e27" d="M 705.4375 14.902344 C 706.339844 14.332031 706.519531 14.117188 705.832031 14.421875 C 705.144531 14.730469 703.179688 15.140625 701.464844 15.34375 C 699.402344 15.585938 698.714844 15.804688 699.4375 15.992188 C 701.207031 16.457031 703.675781 16.007812 705.4375 14.902344 Z M 705.4375 14.902344 " fill-opacity="1" fill-rule="nonzero"/><path fill="#0b3e27" d="M 237.996094 58.359375 C 237.660156 58.796875 237.871094 58.835938 238.707031 58.5 C 239.386719 58.226562 239.589844 57.960938 239.1875 57.878906 C 238.796875 57.804688 238.261719 58.019531 237.996094 58.359375 Z M 237.996094 58.359375 " fill-opacity="1" fill-rule="nonzero"/><path fill="#0b3e27" d="M 323.488281 22.539062 C 324.339844 22.4375 324.746094 22.277344 324.375 22.179688 C 324.003906 22.085938 323.300781 22.164062 322.8125 22.363281 C 322.328125 22.558594 322.628906 22.640625 323.488281 22.539062 Z M 323.488281 22.539062 " fill-opacity="1" fill-rule="nonzero"/><path fill="#0b3e27" d="M 712.023438 15.394531 C 712.800781 14.933594 712.65625 14.886719 711.335938 15.171875 C 710.414062 15.371094 709.527344 15.707031 709.363281 15.921875 C 708.9375 16.46875 710.855469 16.09375 712.023438 15.394531 Z M 712.023438 15.394531 " fill-opacity="1" fill-rule="nonzero"/><path fill="#0b3e27" d="M 693.023438 15.691406 C 693.570312 15.644531 693.863281 15.484375 693.667969 15.332031 C 693.472656 15.183594 693.023438 15.222656 692.667969 15.417969 C 692.273438 15.636719 692.414062 15.746094 693.023438 15.691406 Z M 693.023438 15.691406 " fill-opacity="1" fill-rule="nonzero"/><path fill="#0b3e27" d="M 265.027344 54.445312 C 264.757812 54.476562 264.566406 54.742188 264.605469 55.027344 C 264.640625 55.3125 265.035156 55.5 265.480469 55.441406 C 265.929688 55.382812 266.117188 55.121094 265.902344 54.859375 C 265.6875 54.597656 265.296875 54.410156 265.027344 54.445312 Z M 265.027344 54.445312 " fill-opacity="1" fill-rule="nonzero"/><path fill="#0b3e27" d="M 450.621094 58.460938 C 449.328125 59 449.699219 59.039062 452.675781 58.664062 C 455.933594 58.25 456.097656 58.183594 454.257812 58 C 453.085938 57.886719 451.523438 58.082031 450.621094 58.460938 Z M 450.621094 58.460938 " fill-opacity="1" fill-rule="nonzero"/><path fill="#0b3e27" d="M 564.851562 33.289062 C 564.074219 33.394531 564.066406 33.472656 564.785156 33.816406 C 565.847656 34.324219 565.90625 34.316406 565.824219 33.683594 C 565.789062 33.398438 565.347656 33.222656 564.851562 33.289062 Z M 564.851562 33.289062 " fill-opacity="1" fill-rule="nonzero"/><path fill="#0b3e27" d="M 567.199219 31.046875 C 566.824219 30.949219 566.242188 31.023438 565.902344 31.214844 C 565.5625 31.402344 565.871094 31.484375 566.585938 31.390625 C 567.300781 31.300781 567.578125 31.144531 567.199219 31.046875 Z M 567.199219 31.046875 " fill-opacity="1" fill-rule="nonzero"/><path fill="#0b3e27" d="M 464.859375 33.121094 C 464.464844 33.339844 464.605469 33.445312 465.214844 33.394531 C 465.761719 33.347656 466.054688 33.183594 465.859375 33.035156 C 465.664062 32.882812 465.214844 32.921875 464.859375 33.121094 Z M 464.859375 33.121094 " fill-opacity="1" fill-rule="nonzero"/><path fill="#0b3e27" d="M 745.058594 51.523438 C 744.984375 52.113281 744.703125 52.777344 744.4375 52.996094 C 744.171875 53.214844 744.148438 53.632812 744.386719 53.925781 C 745.203125 54.929688 745.582031 54.355469 745.390625 52.402344 C 745.285156 51.328125 745.136719 50.933594 745.058594 51.523438 Z M 745.058594 51.523438 " fill-opacity="1" fill-rule="nonzero"/><path fill="#0b3e27" d="M 648.675781 55.746094 C 648.246094 55.800781 647.78125 56.101562 647.640625 56.40625 C 647.503906 56.714844 647.738281 56.921875 648.167969 56.867188 C 648.59375 56.8125 649.058594 56.515625 649.199219 56.207031 C 649.339844 55.898438 649.101562 55.691406 648.675781 55.746094 Z M 648.675781 55.746094 " fill-opacity="1" fill-rule="nonzero"/><path fill="#0b3e27" d="M 582.847656 31.671875 C 582.511719 31.863281 582.816406 31.941406 583.53125 31.851562 C 584.246094 31.757812 584.523438 31.601562 584.144531 31.503906 C 583.769531 31.40625 583.1875 31.480469 582.847656 31.671875 Z M 582.847656 31.671875 " fill-opacity="1" fill-rule="nonzero"/><path fill="#0b3e27" d="M 748.808594 31.867188 C 749 30.359375 748.90625 29.441406 748.550781 29.261719 C 747.496094 28.738281 747.160156 27.371094 747.714844 25.863281 C 748.019531 25.027344 748.132812 23.296875 747.96875 22.015625 C 747.710938 20.023438 747.804688 19.714844 748.605469 19.910156 C 749.121094 20.035156 749.355469 19.996094 749.125 19.816406 C 748.894531 19.640625 748.9375 19.140625 749.210938 18.703125 C 750.003906 17.453125 746.433594 18.503906 744.46875 20.101562 C 743.398438 20.96875 742.574219 21.292969 742.050781 21.054688 C 741.609375 20.851562 741.105469 20.8125 740.925781 20.957031 C 740.746094 21.105469 740.265625 20.910156 739.859375 20.53125 C 739.269531 19.984375 739.25 19.824219 739.765625 19.757812 C 740.6875 19.640625 739.425781 15.503906 738.269531 14.84375 C 737.101562 14.175781 736.125 14.742188 735.921875 16.203125 C 735.722656 17.652344 733.628906 19.683594 732.746094 19.285156 C 732.324219 19.089844 732.492188 18.78125 733.226562 18.394531 C 734.167969 17.902344 734.277344 17.546875 733.859375 16.304688 C 733.097656 14.050781 729.761719 11.875 729.144531 13.230469 C 729.011719 13.527344 729.265625 13.722656 729.710938 13.664062 C 730.953125 13.503906 732.84375 15.214844 733.03125 16.667969 C 733.257812 18.410156 732.464844 18.402344 731.097656 16.652344 C 730.480469 15.859375 729.691406 15.25 729.339844 15.292969 C 728.988281 15.339844 727.964844 14.847656 727.066406 14.199219 C 723.699219 11.761719 719.480469 11.765625 719.789062 14.207031 C 719.898438 15.0625 719.550781 15.21875 717.042969 15.4375 C 715.179688 15.597656 714.453125 15.816406 714.972656 16.058594 C 715.414062 16.261719 715.886719 16.820312 716.019531 17.304688 C 716.242188 18.082031 715.902344 18.1875 713.011719 18.242188 C 706.347656 18.375 704.929688 18.359375 701.347656 18.089844 C 699.328125 17.9375 697.523438 17.9375 697.332031 18.09375 C 697.144531 18.246094 696.191406 18.25 695.21875 18.101562 C 694.242188 17.953125 691.523438 17.820312 689.167969 17.804688 C 681.621094 17.761719 681.214844 17.757812 679.863281 17.675781 C 679.132812 17.636719 677.117188 17.671875 675.386719 17.761719 C 673.65625 17.851562 669.507812 17.902344 666.167969 17.875 C 662.824219 17.847656 659.261719 17.820312 658.242188 17.816406 C 657.226562 17.808594 655.78125 17.667969 655.035156 17.496094 C 654.289062 17.324219 652.257812 17.234375 650.523438 17.300781 C 648.792969 17.363281 646.0625 17.367188 644.457031 17.308594 C 642.851562 17.25 639.40625 17.21875 636.796875 17.238281 C 634.1875 17.257812 630.621094 17.222656 628.871094 17.164062 C 627.121094 17.105469 623.90625 17.160156 621.722656 17.285156 C 619.539062 17.40625 614.925781 17.535156 611.46875 17.566406 C 608.011719 17.597656 603.175781 17.722656 600.726562 17.84375 C 598.273438 17.960938 593.769531 17.929688 590.71875 17.773438 C 587.667969 17.613281 583.828125 17.65625 582.1875 17.871094 C 580.546875 18.082031 579.042969 18.054688 578.851562 17.816406 C 578.445312 17.316406 576.222656 17.230469 570.597656 17.484375 C 568.433594 17.585938 565 17.648438 562.964844 17.628906 C 560.933594 17.609375 556.789062 17.703125 553.757812 17.839844 C 540.410156 18.433594 531.765625 18.65625 531.246094 18.417969 C 530.933594 18.277344 528.597656 18.324219 526.058594 18.523438 C 523.515625 18.71875 484.789062 19.613281 482.453125 19.621094 C 480.117188 19.628906 477.167969 19.769531 475.898438 19.929688 C 474.625 20.09375 472.628906 20.085938 471.460938 19.917969 C 470.292969 19.75 466.613281 19.765625 463.285156 19.945312 C 459.957031 20.128906 455.449219 20.246094 453.269531 20.207031 C 449.121094 20.132812 439.953125 20.085938 433.203125 20.109375 C 431.027344 20.117188 425.84375 20.4375 421.683594 20.820312 C 417.523438 21.203125 412.457031 21.5 410.421875 21.480469 C 404.007812 21.414062 402.15625 21.464844 394.90625 21.898438 C 391.019531 22.128906 386.449219 22.25 384.753906 22.164062 C 383.054688 22.078125 381.46875 22.167969 381.230469 22.363281 C 380.988281 22.558594 379.871094 22.59375 378.75 22.441406 C 377.628906 22.289062 374.25 22.351562 371.234375 22.574219 C 368.222656 22.796875 349.882812 23.589844 345.28125 23.796875 C 343.261719 23.886719 339.867188 23.964844 337.734375 23.960938 C 335.605469 23.957031 333.679688 24.105469 333.460938 24.28125 C 333.242188 24.460938 330.855469 24.648438 328.15625 24.699219 C 325.457031 24.75 321.597656 24.90625 319.585938 25.046875 C 303.140625 26.175781 292.257812 26.550781 293.355469 25.953125 C 294.222656 25.476562 294.207031 25.441406 293.132812 25.542969 C 292.488281 25.609375 291.992188 25.90625 292.03125 26.210938 C 292.078125 26.574219 290.792969 26.84375 288.304688 27 C 283.824219 27.28125 281.0625 27.097656 280.984375 26.507812 C 280.902344 25.863281 285.195312 24.796875 287.203125 24.960938 C 288.203125 25.042969 288.773438 24.933594 288.496094 24.710938 C 288.082031 24.375 274.191406 24.839844 261.609375 25.609375 C 259.59375 25.730469 257.339844 25.761719 256.605469 25.675781 C 255.082031 25.5 250.097656 25.851562 241.539062 26.742188 C 236.136719 27.308594 235.566406 27.273438 234.621094 26.308594 C 233.667969 25.332031 233.359375 25.316406 230.265625 26.097656 C 228.4375 26.5625 225.980469 26.867188 224.8125 26.773438 C 223.644531 26.683594 222.191406 26.800781 221.585938 27.039062 C 220.980469 27.273438 220.3125 27.25 220.097656 26.988281 C 219.882812 26.722656 218.261719 26.691406 216.492188 26.914062 C 214.726562 27.136719 211.714844 27.15625 209.800781 26.957031 C 207.890625 26.757812 203.15625 26.882812 199.285156 27.234375 C 195.410156 27.585938 190.5625 27.757812 188.515625 27.617188 C 186.464844 27.480469 182.199219 27.539062 179.03125 27.75 C 169.210938 28.402344 83.429688 32.324219 80.695312 32.511719 C 70.207031 33.21875 63.578125 33.4375 61.253906 33.144531 C 59.925781 32.976562 57.480469 32.902344 55.824219 32.976562 C 52.589844 33.121094 51.84375 32.417969 53.558594 30.851562 C 54.378906 30.105469 53.121094 30.105469 43.46875 30.84375 C 37.042969 31.335938 32.179688 31.484375 31.808594 31.199219 C 31.460938 30.929688 30.425781 30.808594 29.511719 30.925781 L 27.886719 31.132812 L 26.277344 18.625 C 25.4375 11.738281 24.589844 6.011719 24.347656 5.898438 C 24.101562 5.789062 23.640625 5.976562 23.320312 6.320312 C 22.882812 6.789062 22.226562 6.238281 20.652344 4.078125 C 17.894531 0.308594 17.109375 0.0234375 15.4375 2.191406 C 13.707031 4.433594 12.3125 5.441406 12.171875 4.546875 C 12.113281 4.160156 11.894531 4.304688 11.648438 4.882812 C 11.378906 5.523438 10.867188 5.816406 10.21875 5.699219 C 9.523438 5.574219 8.789062 6.085938 7.875 7.328125 C 6.394531 9.335938 3.445312 17.644531 2.574219 22.253906 C 2.265625 23.886719 1.550781 26.949219 0.980469 29.054688 C 0.0078125 32.667969 0.00390625 33.328125 0.90625 40.9375 C 1.5625 46.449219 2.113281 49.332031 2.648438 50.070312 C 3.082031 50.660156 3.921875 53.296875 4.515625 55.925781 C 5.246094 59.152344 6.03125 61.289062 6.933594 62.5 C 7.667969 63.488281 8.316406 64.683594 8.378906 65.152344 C 8.613281 66.980469 10.351562 69.574219 12.460938 71.242188 C 13.671875 72.199219 14.691406 73.195312 14.722656 73.457031 C 14.832031 74.308594 18.347656 77.96875 20.675781 79.652344 C 26.785156 84.078125 37.0625 85.496094 50.074219 83.65625 C 51.214844 83.492188 93.980469 78.039062 94.714844 77.894531 C 95 77.839844 97.707031 77.664062 100.734375 77.507812 C 107.78125 77.144531 110.265625 76.757812 111.394531 75.851562 C 112.136719 75.253906 111.792969 75.226562 109.515625 75.707031 C 106.714844 76.296875 105.324219 76.253906 105.238281 75.574219 C 105.195312 75.242188 116.441406 73.328125 122.277344 72.671875 C 125.6875 72.285156 147.789062 69.46875 151.367188 69.082031 C 154.945312 68.695312 159.601562 67.972656 161.714844 67.472656 C 166.707031 66.300781 188.683594 63.585938 194.441406 63.429688 C 201.476562 63.242188 218.742188 61.34375 228.785156 59.660156 C 230.632812 59.347656 233.285156 59.121094 234.679688 59.152344 C 236.6875 59.195312 237.164062 59.0625 236.972656 58.515625 C 236.839844 58.132812 236.011719 57.789062 235.136719 57.746094 L 233.542969 57.667969 L 235.039062 56.597656 C 235.863281 56.011719 236.992188 55.5625 237.550781 55.601562 C 238.109375 55.644531 239.226562 55.726562 240.03125 55.792969 C 241.660156 55.921875 242.175781 57.191406 240.804688 57.699219 C 240.320312 57.875 241.292969 57.878906 242.964844 57.703125 C 244.640625 57.527344 246.472656 57.464844 247.039062 57.566406 C 247.613281 57.671875 248.035156 57.507812 247.996094 57.199219 C 247.953125 56.878906 249.054688 56.5 250.621094 56.300781 C 253.039062 55.988281 253.222656 56.039062 252.425781 56.796875 C 251.632812 57.550781 251.808594 57.589844 254.089844 57.167969 C 255.492188 56.910156 256.746094 56.628906 256.882812 56.546875 C 257.015625 56.464844 258.765625 56.210938 260.769531 55.980469 C 263.335938 55.683594 264.085938 55.460938 263.308594 55.222656 C 262.703125 55.035156 261.625 54.941406 260.90625 55.007812 C 260.191406 55.074219 259.3125 54.992188 258.953125 54.824219 C 257.820312 54.292969 273.664062 52.777344 281.453125 52.675781 C 282.898438 52.65625 286.546875 52.386719 289.554688 52.078125 C 292.5625 51.765625 296.5625 51.496094 298.449219 51.46875 C 300.332031 51.445312 302.222656 51.371094 302.648438 51.308594 C 303.074219 51.242188 306.125 51.179688 309.421875 51.164062 C 312.722656 51.152344 316.851562 50.945312 318.597656 50.703125 C 322.585938 50.15625 329.472656 49.699219 334.636719 49.636719 C 336.8125 49.609375 339.886719 49.238281 341.460938 48.816406 C 344.121094 48.097656 359.707031 46.285156 362.699219 46.34375 C 363.425781 46.359375 365.179688 46.242188 366.597656 46.082031 C 369.105469 45.804688 369.476562 46.414062 367.300781 47.242188 C 366.046875 47.722656 371.707031 47.226562 381.96875 45.964844 C 387.78125 45.246094 390.058594 45.152344 390.757812 45.59375 C 391.367188 45.980469 391.910156 45.992188 392.289062 45.628906 C 392.613281 45.316406 394.265625 44.980469 395.964844 44.878906 C 399.257812 44.683594 399.246094 45.597656 395.949219 46.039062 C 394.972656 46.167969 394.375 46.425781 394.617188 46.613281 C 395.136719 47.011719 396.824219 46.941406 404.894531 46.175781 C 408.191406 45.863281 412.558594 45.65625 414.597656 45.71875 C 416.636719 45.777344 420.238281 45.632812 422.601562 45.398438 C 424.96875 45.160156 426.921875 45.132812 426.949219 45.335938 C 426.976562 45.535156 430.320312 45.238281 434.382812 44.664062 C 442.121094 43.574219 451.15625 42.996094 452.570312 43.492188 C 453.425781 43.792969 454.542969 43.828125 464.488281 43.835938 C 467.683594 43.835938 471.339844 43.921875 472.617188 44.023438 C 473.894531 44.125 475.535156 43.960938 476.261719 43.65625 C 476.992188 43.355469 478.550781 43.199219 479.726562 43.308594 C 480.898438 43.417969 483.839844 43.210938 486.261719 42.847656 C 490.613281 42.195312 494.96875 42.113281 503.519531 42.53125 C 505.9375 42.648438 509.621094 42.667969 511.703125 42.578125 C 513.789062 42.484375 516.0625 42.542969 516.753906 42.707031 C 517.449219 42.871094 519.035156 42.875 520.28125 42.714844 C 521.53125 42.554688 523.242188 42.605469 524.089844 42.824219 C 524.933594 43.046875 527.554688 42.96875 529.910156 42.65625 C 532.265625 42.34375 534.332031 42.261719 534.503906 42.472656 C 534.960938 43.039062 540.265625 43.035156 548.78125 42.464844 C 551.390625 42.292969 554.359375 42.277344 555.375 42.433594 C 556.390625 42.589844 560.890625 42.605469 565.371094 42.46875 C 569.851562 42.335938 574.226562 42.363281 575.089844 42.535156 C 575.953125 42.707031 577.546875 42.734375 578.632812 42.59375 C 579.71875 42.453125 581.757812 42.421875 583.164062 42.523438 C 585.535156 42.691406 589.695312 42.582031 596.304688 42.175781 C 597.796875 42.085938 599.539062 42.207031 600.171875 42.449219 C 600.808594 42.691406 603.234375 42.648438 605.566406 42.351562 C 607.898438 42.058594 610.210938 41.96875 610.707031 42.15625 C 611.910156 42.617188 619.675781 42.832031 639.050781 42.953125 C 649.785156 43.019531 653.96875 43.160156 657.335938 43.566406 C 658.367188 43.6875 660.808594 43.746094 662.761719 43.695312 C 667.054688 43.578125 667.511719 44.148438 663.5 44.621094 C 661.90625 44.8125 660.351562 45.175781 660.042969 45.429688 C 659.734375 45.6875 659.714844 45.871094 660.003906 45.84375 C 660.289062 45.816406 663.519531 46.011719 667.183594 46.28125 C 670.847656 46.550781 674.441406 46.8125 675.175781 46.863281 C 676.714844 46.960938 678.261719 46.945312 683.34375 46.777344 C 686.714844 46.664062 697.339844 47.628906 697.957031 48.105469 C 698.101562 48.214844 698.464844 48.042969 698.761719 47.722656 C 699.125 47.332031 700.328125 47.355469 702.371094 47.792969 C 704.054688 48.152344 705.921875 48.382812 706.515625 48.304688 C 707.113281 48.226562 708.082031 48.347656 708.667969 48.570312 C 709.253906 48.792969 710.625 48.957031 711.714844 48.933594 C 712.804688 48.90625 715.132812 48.980469 716.886719 49.089844 C 718.644531 49.199219 720.4375 49.308594 720.875 49.332031 C 721.316406 49.359375 722.285156 49.539062 723.039062 49.730469 C 723.789062 49.925781 724.679688 49.9375 725.019531 49.753906 C 725.902344 49.285156 725.910156 50.328125 725.035156 51.460938 C 724.585938 52.042969 723.554688 52.480469 722.410156 52.574219 C 718.734375 52.882812 717.679688 53.191406 717.773438 53.9375 C 717.921875 55.074219 714.835938 56 714.117188 55.035156 C 713.800781 54.609375 713.144531 54.308594 712.660156 54.363281 C 711.976562 54.445312 711.917969 54.351562 712.410156 53.941406 C 712.886719 53.546875 712.738281 53.375 711.820312 53.253906 C 711.144531 53.167969 710.496094 53.21875 710.382812 53.367188 C 710.265625 53.515625 710.445312 53.601562 710.777344 53.558594 C 711.113281 53.515625 711.410156 53.691406 711.445312 53.949219 C 711.476562 54.207031 711.085938 54.390625 710.574219 54.355469 C 710.0625 54.320312 707.054688 54.496094 703.894531 54.742188 C 700.734375 54.992188 695.78125 55.265625 692.890625 55.355469 L 682.113281 55.683594 C 676.582031 55.855469 670.882812 56.5 671.402344 56.902344 C 671.910156 57.292969 679.921875 57.496094 684.6875 57.234375 C 687.285156 57.09375 689.664062 57.121094 689.972656 57.300781 C 690.957031 57.855469 693.746094 57.917969 698.488281 57.484375 C 701.855469 57.175781 703.242188 57.257812 703.75 57.789062 C 704.152344 58.214844 705.953125 58.542969 708.109375 58.585938 C 710.132812 58.628906 713.46875 58.8125 715.523438 59 C 717.582031 59.1875 719.976562 59.34375 720.847656 59.355469 C 723.335938 59.378906 730.230469 60.003906 730.789062 60.257812 C 731.0625 60.382812 731.734375 61.125 732.273438 61.90625 C 733.472656 63.640625 734.328125 63.652344 734.109375 61.933594 C 734.019531 61.238281 734.195312 60.460938 734.503906 60.214844 C 734.871094 59.914062 734.992188 60.046875 734.859375 60.601562 C 734.632812 61.535156 735.605469 62.5 736.644531 62.367188 C 737.015625 62.320312 737.273438 61.917969 737.214844 61.472656 C 737.15625 61.023438 737.363281 60.777344 737.671875 60.914062 C 737.980469 61.054688 738.382812 62.351562 738.570312 63.792969 L 738.90625 66.425781 L 740.082031 65.421875 C 740.722656 64.871094 741.582031 64.378906 741.992188 64.324219 C 743.292969 64.15625 742.945312 54.707031 741.625 54.445312 C 741.308594 54.382812 741.015625 54.101562 740.980469 53.820312 C 740.945312 53.539062 740.519531 53 740.035156 52.628906 C 739.554688 52.253906 739.039062 51.03125 738.894531 49.910156 C 738.75 48.789062 738.421875 47.898438 738.164062 47.933594 C 737.902344 47.964844 737.886719 48.480469 738.128906 49.074219 C 738.402344 49.75 738.347656 50.058594 737.984375 49.890625 C 736.855469 49.382812 736.558594 47.210938 737.476562 46.195312 C 738.660156 44.882812 740.296875 45.25 740.71875 46.925781 C 741.089844 48.410156 742.472656 49.046875 742.292969 47.652344 C 742.21875 47.066406 742.46875 46.84375 743.042969 46.984375 C 743.519531 47.097656 744.148438 47.160156 744.445312 47.121094 C 744.785156 47.078125 744.792969 47.355469 744.46875 47.871094 C 744.03125 48.5625 744.296875 48.617188 746.164062 48.238281 C 748.332031 47.792969 748.378906 47.738281 748.289062 45.761719 C 748.242188 44.648438 748.515625 43.285156 748.894531 42.738281 C 749.402344 42.007812 749.441406 40.710938 749.054688 37.964844 C 748.761719 35.894531 748.648438 33.148438 748.808594 31.867188 Z M 216.644531 59.609375 C 215.363281 59.375 215.378906 59.347656 216.972656 59.09375 C 217.898438 58.945312 218.683594 59.058594 218.722656 59.34375 C 218.796875 59.929688 218.550781 59.960938 216.644531 59.609375 Z M 242.8125 56.203125 C 242.203125 56.253906 242.0625 56.148438 242.457031 55.929688 C 242.8125 55.730469 243.265625 55.691406 243.457031 55.839844 C 243.652344 55.992188 243.363281 56.15625 242.8125 56.203125 Z M 266.503906 28.328125 C 264.042969 28.1875 263.375 27.945312 263.828125 27.359375 C 264.296875 26.75 272.421875 25.535156 272.488281 26.066406 C 272.523438 26.335938 271.910156 26.660156 271.128906 26.792969 C 269.949219 26.992188 270.066406 27.066406 271.816406 27.246094 C 272.976562 27.363281 274.015625 27.53125 274.125 27.617188 C 274.523438 27.925781 268.796875 28.457031 266.503906 28.328125 Z M 274.125 51.09375 C 273.695312 51.125 272.734375 51.039062 271.988281 50.902344 L 270.636719 50.652344 L 271.929688 50.445312 C 272.640625 50.332031 273.601562 50.414062 274.066406 50.636719 C 274.816406 50.996094 274.824219 51.046875 274.125 51.09375 Z M 275.902344 50.886719 C 275.292969 50.941406 275.15625 50.835938 275.546875 50.613281 C 275.902344 50.417969 276.351562 50.378906 276.546875 50.527344 C 276.742188 50.679688 276.453125 50.839844 275.902344 50.886719 Z M 287.488281 50.371094 C 283.28125 50.820312 280.945312 50.78125 280.875 50.246094 C 280.796875 49.640625 286.855469 49.257812 288.757812 49.75 C 289.878906 50.039062 289.675781 50.140625 287.488281 50.371094 Z M 300.199219 42.527344 C 299.308594 42.269531 299.265625 42.1875 299.976562 42.066406 C 300.457031 41.980469 301.023438 42.128906 301.238281 42.390625 C 301.683594 42.941406 301.664062 42.945312 300.199219 42.527344 Z M 510.828125 30.730469 C 512.144531 30.5625 513.132812 30.625 513.023438 30.867188 C 512.714844 31.542969 509.277344 32.085938 508.828125 31.53125 C 508.578125 31.222656 509.320312 30.925781 510.828125 30.730469 Z M 497.367188 30.726562 C 497.921875 30.503906 498.398438 30.535156 498.433594 30.792969 C 498.464844 31.050781 498.027344 31.324219 497.453125 31.394531 C 496.882812 31.46875 496.40625 31.441406 496.390625 31.332031 C 496.375 31.222656 496.816406 30.949219 497.367188 30.726562 Z M 308.007812 49.90625 C 306.585938 50.113281 305.039062 50.101562 304.578125 49.878906 C 303.527344 49.378906 307.210938 48.902344 309.25 49.277344 C 310.328125 49.476562 310.078125 49.605469 308.007812 49.90625 Z M 318.636719 42.265625 C 317.921875 42.355469 317.308594 42.199219 317.273438 41.914062 C 317.234375 41.628906 317.789062 41.316406 318.503906 41.226562 C 319.21875 41.132812 319.832031 41.292969 319.867188 41.578125 C 319.90625 41.863281 319.351562 42.171875 318.636719 42.265625 Z M 406.566406 45.160156 C 405.960938 45.214844 405.820312 45.109375 406.210938 44.886719 C 406.570312 44.691406 407.019531 44.652344 407.214844 44.800781 C 407.40625 44.953125 407.117188 45.113281 406.566406 45.160156 Z M 408.941406 44.8125 C 408.226562 44.902344 407.917969 44.824219 408.257812 44.632812 C 408.597656 44.445312 409.179688 44.367188 409.554688 44.464844 C 409.933594 44.5625 409.65625 44.71875 408.941406 44.8125 Z M 433.972656 44.316406 C 433.527344 44.371094 433.132812 44.1875 433.097656 43.902344 C 433.0625 43.613281 433.25 43.351562 433.519531 43.316406 C 433.789062 43.285156 434.183594 43.46875 434.394531 43.734375 C 434.609375 43.996094 434.417969 44.257812 433.972656 44.316406 Z M 473.59375 42.828125 C 472.878906 42.921875 472.574219 42.839844 472.914062 42.648438 C 473.25 42.460938 473.835938 42.386719 474.210938 42.484375 C 474.585938 42.582031 474.308594 42.738281 473.59375 42.828125 Z M 585.953125 32.207031 C 586.242188 32.203125 585.566406 32.503906 584.453125 32.875 C 583.191406 33.292969 582.011719 33.378906 581.316406 33.109375 C 580.707031 32.871094 578.566406 32.847656 576.5625 33.054688 C 574.558594 33.265625 571.84375 33.410156 570.535156 33.375 C 569.03125 33.339844 568.460938 33.453125 568.992188 33.691406 C 569.453125 33.894531 571.972656 34.089844 574.589844 34.121094 C 577.203125 34.152344 579.71875 34.328125 580.179688 34.515625 C 581.316406 34.980469 577.78125 35.398438 576.207031 34.984375 C 575.558594 34.816406 573.554688 34.933594 571.753906 35.246094 C 569.8125 35.582031 568.292969 35.601562 568.035156 35.300781 C 567.792969 35.015625 565.988281 34.832031 564.023438 34.890625 C 562.058594 34.953125 558.785156 34.960938 556.746094 34.914062 C 554.710938 34.867188 550.535156 35.144531 547.464844 35.53125 C 543.34375 36.046875 541.203125 36.066406 539.253906 35.601562 C 537.113281 35.085938 535.453125 35.148438 530.320312 35.9375 C 526.855469 36.46875 523.996094 36.710938 523.964844 36.46875 C 523.894531 35.910156 520.253906 35.496094 516.199219 35.589844 C 509.382812 35.742188 505.082031 35.476562 504.492188 34.867188 C 504.152344 34.515625 502.816406 34.289062 501.523438 34.367188 C 500.230469 34.441406 498.109375 34.347656 496.808594 34.15625 C 495.507812 33.96875 494 33.988281 493.460938 34.207031 C 492.917969 34.425781 491.824219 34.414062 491.027344 34.183594 C 490.230469 33.953125 486.652344 34.089844 483.078125 34.492188 C 479.5 34.894531 475.621094 35.203125 474.457031 35.183594 C 473.292969 35.160156 467.539062 35.660156 461.671875 36.292969 C 448.859375 37.679688 444.769531 37.84375 442.390625 37.066406 C 441.339844 36.726562 440.070312 36.6875 439.328125 36.980469 C 438.628906 37.253906 436.679688 37.324219 434.988281 37.136719 C 433.300781 36.949219 431.453125 36.855469 430.882812 36.933594 C 430.3125 37.007812 426.199219 37.355469 421.746094 37.707031 C 417.292969 38.058594 412.996094 38.464844 412.195312 38.613281 C 411.394531 38.757812 407.738281 38.894531 404.070312 38.914062 C 400.402344 38.933594 393.996094 39.292969 389.832031 39.714844 C 384.292969 40.277344 381.796875 40.316406 380.527344 39.867188 C 379.25 39.417969 376.496094 39.472656 370 40.078125 C 355.9375 41.386719 354.308594 41.484375 353.230469 41.078125 C 352.667969 40.867188 349.175781 40.773438 345.464844 40.867188 C 339.738281 41.011719 338.847656 40.917969 339.550781 40.25 C 340.457031 39.394531 341.027344 39.367188 328.207031 40.777344 C 320.980469 41.574219 320.921875 41.574219 320.839844 40.933594 C 320.800781 40.632812 322.464844 40.265625 324.945312 40.03125 C 327.238281 39.816406 329.097656 39.480469 329.070312 39.285156 C 328.988281 38.648438 330.613281 38.050781 331.28125 38.476562 C 331.664062 38.71875 333.292969 38.539062 335.246094 38.046875 C 337.074219 37.585938 339.097656 37.335938 339.75 37.484375 C 340.398438 37.636719 342.230469 37.511719 343.816406 37.210938 C 346.191406 36.761719 346.84375 36.824219 347.519531 37.566406 C 348.246094 38.363281 349.265625 38.382812 356.371094 37.738281 C 360.785156 37.339844 365.648438 36.832031 367.175781 36.613281 C 368.699219 36.394531 370.40625 36.390625 370.96875 36.601562 C 371.550781 36.824219 372.082031 36.777344 372.210938 36.492188 C 372.335938 36.214844 373.367188 36.1875 374.535156 36.429688 C 375.789062 36.6875 378.726562 36.570312 381.820312 36.148438 C 384.675781 35.753906 387.246094 35.539062 387.53125 35.667969 C 388.171875 35.960938 395.230469 35.570312 403.953125 34.765625 C 411.566406 34.0625 415.59375 33.777344 421.734375 33.507812 C 424.1875 33.402344 427.730469 33.164062 429.601562 32.972656 C 431.476562 32.785156 433.265625 32.75 433.578125 32.890625 C 433.894531 33.03125 436.222656 33.015625 438.761719 32.855469 C 443.972656 32.527344 445.503906 32.625 447.796875 33.433594 C 449.492188 34.03125 450.070312 34.070312 455.683594 33.921875 C 457.832031 33.867188 459.453125 33.589844 459.8125 33.222656 C 460.519531 32.503906 468.132812 31.722656 473.757812 31.792969 C 481.859375 31.898438 482.042969 31.914062 480.972656 32.503906 C 480.023438 33.027344 480.03125 33.042969 481.117188 32.9375 C 481.738281 32.878906 482.296875 32.574219 482.359375 32.261719 C 482.429688 31.894531 483.1875 31.890625 484.496094 32.25 C 485.609375 32.558594 487.679688 32.65625 489.097656 32.476562 C 490.515625 32.292969 492.253906 32.28125 492.957031 32.449219 C 493.664062 32.617188 496.382812 32.605469 499 32.414062 C 501.617188 32.226562 504.226562 32.242188 504.789062 32.445312 C 506.132812 32.933594 513.175781 32.640625 520.988281 31.777344 C 524.421875 31.394531 528.417969 31.097656 529.875 31.113281 C 531.328125 31.132812 533.644531 31.078125 535.023438 31 C 537.867188 30.832031 539.035156 31.292969 536.761719 31.683594 C 532.339844 32.445312 542.515625 31.984375 552.019531 30.992188 C 558.035156 30.363281 563.425781 29.8125 564 29.765625 C 565.875 29.613281 568.523438 30.230469 568.476562 30.800781 C 568.445312 31.160156 570.035156 31.117188 572.941406 30.683594 C 575.425781 30.316406 579.84375 29.996094 582.761719 29.972656 L 588.070312 29.933594 L 586.746094 31.070312 C 586.019531 31.699219 585.660156 32.210938 585.953125 32.207031 Z M 588.425781 31.261719 C 587.816406 31.3125 587.679688 31.207031 588.070312 30.988281 C 588.425781 30.789062 588.878906 30.753906 589.074219 30.902344 C 589.265625 31.054688 588.976562 31.214844 588.425781 31.261719 Z M 672.316406 35.589844 C 671.078125 35.367188 669.46875 35.332031 668.746094 35.507812 C 668.019531 35.683594 667.269531 35.628906 667.074219 35.390625 C 666.878906 35.152344 665.558594 35.105469 664.140625 35.289062 C 662.332031 35.519531 661.4375 35.398438 661.160156 34.882812 C 660.652344 33.941406 657.191406 33.476562 653.191406 33.816406 C 651.460938 33.960938 649.617188 33.984375 649.097656 33.867188 C 648.574219 33.75 647.714844 33.550781 647.191406 33.425781 C 646.667969 33.300781 643.660156 33.464844 640.511719 33.796875 C 633.671875 34.511719 622.378906 35.042969 617.957031 34.855469 C 616.203125 34.78125 613.820312 34.714844 612.660156 34.714844 C 611.5 34.710938 609.9375 34.578125 609.191406 34.417969 C 608.445312 34.257812 606.300781 34.191406 604.421875 34.273438 C 602.546875 34.351562 599.578125 34.34375 597.824219 34.257812 C 596.070312 34.167969 593.894531 34.214844 592.984375 34.359375 C 592.078125 34.503906 591.160156 34.410156 590.949219 34.148438 C 590.714844 33.859375 591.550781 33.515625 593.050781 33.273438 L 595.535156 32.871094 L 590.785156 32.847656 L 592.371094 31.921875 C 593.878906 31.042969 598.460938 30.550781 599.734375 31.128906 C 600.027344 31.261719 600.855469 31.058594 601.570312 30.675781 C 602.5625 30.144531 603.292969 30.128906 604.617188 30.609375 C 606.410156 31.265625 609.925781 31.199219 616.457031 30.398438 C 618.53125 30.144531 620.25 30.121094 620.277344 30.34375 C 620.304688 30.566406 621.410156 30.757812 622.726562 30.769531 C 624.046875 30.78125 625.679688 31.011719 626.355469 31.28125 C 627.597656 31.78125 628.847656 31.769531 635.316406 31.195312 C 637.261719 31.023438 639.054688 31.117188 639.300781 31.40625 C 639.542969 31.695312 641.75 31.835938 644.203125 31.722656 C 646.65625 31.613281 649.378906 31.558594 650.253906 31.605469 C 651.132812 31.648438 652.4375 31.648438 653.160156 31.605469 C 653.878906 31.5625 655.203125 31.707031 656.101562 31.929688 C 657.003906 32.152344 658.8125 32.339844 660.128906 32.34375 C 661.441406 32.351562 663.257812 32.625 664.164062 32.957031 C 665.070312 33.289062 666.773438 33.640625 667.945312 33.738281 C 672.4375 34.113281 675.394531 34.707031 675.671875 35.28125 C 676.03125 36.023438 675.203125 36.097656 672.316406 35.589844 Z M 719.339844 55.660156 C 718.898438 55.117188 720.753906 54.183594 721.550781 54.546875 C 721.867188 54.691406 722.019531 55.042969 721.890625 55.328125 C 721.582031 56.003906 719.804688 56.234375 719.339844 55.660156 Z M 723.484375 55.574219 C 722.875 55.625 722.734375 55.519531 723.128906 55.300781 C 723.484375 55.101562 723.933594 55.0625 724.128906 55.214844 C 724.324219 55.363281 724.035156 55.527344 723.484375 55.574219 Z M 723.484375 55.574219 " fill-opacity="1" fill-rule="nonzero"/><path fill="#0b3e27" d="M 714.824219 53.566406 C 714.964844 53.257812 714.714844 53.050781 714.269531 53.109375 C 713.824219 53.167969 713.492188 53.449219 713.527344 53.734375 C 713.5625 54.019531 713.8125 54.222656 714.082031 54.1875 C 714.351562 54.15625 714.6875 53.875 714.824219 53.566406 Z M 714.824219 53.566406 " fill-opacity="1" fill-rule="nonzero"/><path fill="#0b3e27" d="M 566.765625 33.035156 C 566.496094 33.070312 566.308594 33.332031 566.34375 33.617188 C 566.378906 33.902344 566.773438 34.089844 567.21875 34.03125 C 567.667969 33.972656 567.855469 33.710938 567.640625 33.449219 C 567.429688 33.1875 567.035156 33 566.765625 33.035156 Z M 566.765625 33.035156 " fill-opacity="1" fill-rule="nonzero"/><path fill="#0b3e27" d="M 640.757812 56.21875 L 642.667969 56.710938 C 644.988281 57.308594 646.953125 57.210938 646.863281 56.507812 C 646.828125 56.222656 646.738281 55.988281 646.664062 55.992188 C 646.59375 55.992188 640.757812 56.21875 640.757812 56.21875 Z M 640.757812 56.21875 " fill-opacity="1" fill-rule="nonzero"/><path fill="#0b3e27" d="M 662.300781 33.410156 C 662.015625 33.445312 661.957031 33.691406 662.167969 33.953125 C 662.382812 34.214844 662.789062 34.402344 663.074219 34.363281 C 663.363281 34.328125 663.417969 34.082031 663.207031 33.820312 C 662.992188 33.558594 662.585938 33.371094 662.300781 33.410156 Z M 662.300781 33.410156 " fill-opacity="1" fill-rule="nonzero"/><path fill="#0b3e27" d="M 478.707031 57.851562 C 476.570312 57.96875 474.320312 57.972656 473.710938 57.871094 C 473.105469 57.769531 472.800781 57.847656 473.039062 58.042969 C 473.277344 58.238281 474.375 58.449219 475.476562 58.519531 C 477.714844 58.664062 483.261719 58.15625 482.855469 57.84375 C 482.714844 57.734375 480.847656 57.738281 478.707031 57.851562 Z M 478.707031 57.851562 " fill-opacity="1" fill-rule="nonzero"/><path fill="#0b3e27" d="M 594.011719 44.304688 L 591.8125 44.929688 L 601.816406 44.777344 C 607.972656 44.675781 607.753906 44.699219 606.6875 44.25 C 605.152344 43.601562 596.355469 43.640625 594.011719 44.304688 Z M 594.011719 44.304688 " fill-opacity="1" fill-rule="nonzero"/><path fill="#0b3e27" d="M 557.230469 44.363281 C 553.816406 44.4375 552.792969 44.914062 555.433594 45.199219 C 556.960938 45.367188 561.6875 44.828125 561.300781 44.53125 C 561.125 44.394531 559.292969 44.320312 557.230469 44.363281 Z M 557.230469 44.363281 " fill-opacity="1" fill-rule="nonzero"/><path fill="#0b3e27" d="M 563.945312 44.628906 C 563.027344 44.863281 563.675781 44.878906 565.390625 44.660156 C 567.101562 44.441406 567.855469 44.25 567.058594 44.234375 C 566.265625 44.214844 564.863281 44.394531 563.945312 44.628906 Z M 563.945312 44.628906 " fill-opacity="1" fill-rule="nonzero"/><path fill="#0b3e27" d="M 527.046875 45.394531 C 526.921875 45.671875 529.058594 45.65625 531.832031 45.355469 C 534.585938 45.0625 536.976562 44.921875 537.144531 45.050781 C 537.308594 45.179688 537.753906 45.117188 538.128906 44.917969 C 538.503906 44.714844 539.300781 44.488281 539.894531 44.410156 C 540.488281 44.332031 540.851562 44.171875 540.695312 44.050781 C 540.152344 43.632812 527.269531 44.898438 527.046875 45.394531 Z M 527.046875 45.394531 " fill-opacity="1" fill-rule="nonzero"/><path fill="#0b3e27" d="M 555.960938 56.226562 C 555.566406 56.445312 555.707031 56.554688 556.316406 56.5 C 556.863281 56.453125 557.15625 56.289062 556.960938 56.140625 C 556.765625 55.988281 556.316406 56.027344 555.960938 56.226562 Z M 555.960938 56.226562 " fill-opacity="1" fill-rule="nonzero"/><path fill="#0b3e27" d="M 636.691406 56.410156 C 636.355469 56.601562 636.660156 56.683594 637.375 56.589844 C 638.089844 56.496094 638.367188 56.34375 637.992188 56.246094 C 637.613281 56.148438 637.03125 56.222656 636.691406 56.410156 Z M 636.691406 56.410156 " fill-opacity="1" fill-rule="nonzero"/><path fill="#0b3e27" d="M 626.632812 44.894531 L 624.613281 45.59375 L 626.929688 45.144531 C 628.207031 44.898438 629.859375 44.835938 630.609375 45.003906 C 631.355469 45.175781 632.925781 45.390625 634.097656 45.472656 C 636.820312 45.664062 637.578125 45.578125 638.714844 44.953125 C 640.238281 44.117188 629.03125 44.066406 626.632812 44.894531 Z M 626.632812 44.894531 " fill-opacity="1" fill-rule="nonzero"/><path fill="#0b3e27" d="M 639.386719 56.582031 C 638.992188 56.800781 639.132812 56.90625 639.742188 56.855469 C 640.289062 56.808594 640.582031 56.644531 640.386719 56.496094 C 640.191406 56.34375 639.742188 56.382812 639.386719 56.582031 Z M 639.386719 56.582031 " fill-opacity="1" fill-rule="nonzero"/><path fill="#0b3e27" d="M 615.878906 44.101562 C 614.789062 44.222656 612.832031 44.367188 611.535156 44.417969 L 609.171875 44.511719 L 610.824219 45.046875 C 612.738281 45.664062 617.234375 45.261719 617.605469 44.4375 C 617.757812 44.105469 617.058594 43.96875 615.878906 44.101562 Z M 615.878906 44.101562 " fill-opacity="1" fill-rule="nonzero"/><path fill="#0b3e27" d="M 614 56.152344 C 613.609375 56.371094 613.746094 56.480469 614.355469 56.425781 C 614.90625 56.378906 615.195312 56.21875 615 56.066406 C 614.804688 55.917969 614.355469 55.957031 614 56.152344 Z M 614 56.152344 " fill-opacity="1" fill-rule="nonzero"/></svg>